<svg width="512" height="512" viewBox="0 0 512 512" fill="none" xmlns="http://www.w3.org/2000/svg">
<rect width="512" height="512" rx="80" fill="url(#paint0_linear_48_6657)"/>
<path d="M312.479 98.3193C378.901 19.1525 469.895 139.482 391.161 196.33L368.914 209.7C447.649 193.856 502.499 249.652 476.448 327.714C454.994 392.037 383.604 408.565 331.449 367.244C345.664 403.196 360.83 436.094 333.14 470.467C292.241 521.104 192.898 518.788 164.469 455.991C152.316 429.199 159.555 402.196 166.953 375.351C120.663 420.882 57.6758 420.566 35.0066 352.769C14.0284 290.13 49.8552 247.073 113.582 245.494L81.296 226.965C15.138 182.066 80.3977 86.1075 148.352 103.057C163.941 106.952 177.098 121.848 188.512 132.165C184.232 104.531 175.249 79.5804 184.761 51.7352C193.902 25.0479 219.742 7.46699 247.642 6.15105C309.309 3.20335 328.173 43.7342 312.532 98.2667L312.479 98.3193ZM345.188 290.973C330.181 277.129 306.297 263.285 298.899 241.757C290.708 224.491 290.286 201.963 291.924 180.96C293.034 162.169 284.05 177.012 278.819 184.75C260.641 215.438 226.981 233.124 191.26 227.334C187.033 227.176 176.517 225.86 174.668 228.387C173.717 233.124 182.911 237.967 187.403 242.02C219.53 262.022 231.526 297.5 225.66 333.662C225.132 341.61 223.705 356.612 233.745 343.189C243.943 329.345 256.625 311.185 272.848 302.711C290.814 291.552 317.446 292.657 338.636 294.026C342.916 294.026 345.294 293.552 345.4 292.183L345.083 291.025L345.188 290.973Z" fill="#F5EDD8"/>
<defs>
<linearGradient id="paint0_linear_48_6657" x1="-31.0303" y1="256.004" x2="672.468" y2="251.265" gradientUnits="userSpaceOnUse">
<stop stop-color="#E91C3C"/>
<stop offset="1" stop-color="#FC5124"/>
</linearGradient>
</defs>
</svg>
