<svg width="357" height="195" viewBox="0 0 357 195" fill="none" xmlns="http://www.w3.org/2000/svg">
<path d="M104.775 142.45H92.1248L91.2998 191.4L64.0748 191.125L64.6248 142.725L-0.000195362 143.55V117.7L0.824805 115.225C18.9748 70.125 26.6748 36.85 27.4998 -1.95503e-05L54.9998 0.824986C53.8998 45.925 42.3498 83.875 29.9748 115.775L64.8998 115.5L66.5498 0.274977L94.0498 0.549973L92.3998 115.225L104.5 114.95L104.775 142.45ZM223.457 38.775C230.057 58.3 230.882 81.675 230.882 97.9C230.882 182.325 195.682 194.975 175.057 194.975C135.732 194.975 121.982 143 121.982 98.725C121.982 83.05 122.532 60.225 128.582 40.425C138.757 6.87497 159.382 -1.95503e-05 175.057 -1.95503e-05C191.007 -1.95503e-05 212.732 6.59998 223.457 38.775ZM195.132 151.525C200.632 139.15 203.382 120.725 203.382 97.9C203.382 34.65 187.157 27.225 175.057 27.225C161.307 27.225 156.632 42.075 154.707 48.4C149.207 66.55 149.207 90.75 149.207 98.725C149.207 116.05 151.957 134.2 156.632 146.85C161.307 160.6 167.632 167.475 175.057 167.475C181.107 167.475 188.807 165.825 195.132 151.525ZM356.679 142.45H344.029L343.204 191.4L315.979 191.125L316.529 142.725L251.904 143.55V117.7L252.729 115.225C270.879 70.125 278.579 36.85 279.404 -1.95503e-05L306.904 0.824986C305.804 45.925 294.254 83.875 281.879 115.775L316.804 115.5L318.454 0.274977L345.954 0.549973L344.304 115.225L356.404 114.95L356.679 142.45Z" fill="#001229"/>
</svg>
