<svg width="449" height="449" viewBox="0 0 449 449" fill="none" xmlns="http://www.w3.org/2000/svg">
<g clip-path="url(#clip0_47_1239)">
<path d="M440.711 166.368C472.729 285.864 401.815 408.691 282.319 440.71C162.823 472.729 39.9965 401.814 7.97773 282.319C-24.0411 162.823 46.8732 39.9961 166.369 7.97732C285.865 -24.0415 408.692 46.8726 440.711 166.368Z" fill="#FC5124"/>
<path d="M285.558 209.628C302.986 286.704 190.305 319.695 164.531 244.064C139.577 163.083 259.361 126.928 284.699 206.422L285.558 209.628Z" fill="#E91C3C"/>
<path d="M167.297 7.72604C94.3595 27.2697 110.316 63.0807 128.104 94.8559C143.216 121.857 142.65 97.2359 134.902 73.4018C127.15 49.5688 144.361 37.6295 173.237 29.8922C202.113 22.1549 222.987 23.8892 228.19 48.4053C233.397 72.9203 245.218 94.5254 244.805 63.5861C244.322 27.174 240.235 -11.8176 167.297 7.72604Z" fill="#E91C3C"/>
<path d="M7.7263 281.388C27.2699 354.326 63.081 338.369 94.8562 320.582C121.857 305.47 97.2363 306.035 73.4021 313.784C49.5691 321.536 37.6298 304.325 29.8925 275.449C22.1552 246.573 23.8895 225.698 48.4056 220.495C72.9207 215.289 94.5258 203.468 63.5865 203.881C27.1744 204.364 -11.8173 208.451 7.7263 281.388Z" fill="#E91C3C"/>
<path d="M281.388 440.959C354.326 421.415 338.37 385.604 320.582 353.829C305.47 326.828 306.036 351.449 313.784 375.283C321.536 399.116 304.325 411.056 275.449 418.793C246.573 426.53 225.698 424.796 220.495 400.28C215.289 375.765 203.468 354.16 203.881 385.099C204.364 421.511 208.451 460.503 281.388 440.959Z" fill="#E91C3C"/>
<path d="M440.958 167.3C421.415 94.3624 385.604 110.319 353.828 128.107C326.827 143.219 351.448 142.653 375.283 134.905C399.116 127.153 411.055 144.364 418.792 173.24C426.529 202.115 424.795 222.99 400.279 228.193C375.764 233.4 354.159 245.221 385.098 244.807C421.51 244.325 460.502 240.238 440.958 167.3Z" fill="#E91C3C"/>
<path d="M337.176 30.8344C271.782 -6.92107 257.744 29.6828 247.85 64.7326C239.447 94.5069 256.455 76.6957 267.829 54.3669C279.202 32.034 299.815 35.7582 325.702 50.7079C351.593 65.6523 365.124 81.6415 351.47 102.657C337.82 123.672 330.899 147.307 352.482 125.142C377.889 99.0486 402.571 68.5898 337.176 30.8344Z" fill="#E91C3C"/>
<path d="M30.8364 111.511C-6.9191 176.906 29.6848 190.943 64.7346 200.837C94.5089 209.241 76.6977 192.232 54.3689 180.858C32.036 169.486 35.7602 148.873 50.7099 122.985C65.6544 97.0945 81.6436 83.5629 102.659 97.2172C123.674 110.868 147.309 117.788 125.144 96.2049C99.0507 70.7978 68.5919 46.1168 30.8364 111.511Z" fill="#E91C3C"/>
<path d="M111.509 417.852C176.904 455.607 190.941 419.003 200.835 383.953C209.239 354.179 192.23 371.99 180.856 394.319C169.484 416.652 148.871 412.928 122.983 397.978C97.0925 383.034 83.5608 367.045 97.2153 346.029C110.866 325.014 117.786 301.379 96.203 323.544C70.7958 349.637 46.1147 380.096 111.509 417.852Z" fill="#E91C3C"/>
<path d="M417.852 337.178C455.607 271.784 419.003 257.746 383.953 247.852C354.179 239.449 371.99 256.457 394.319 267.831C416.652 279.204 412.928 299.817 397.978 325.704C383.034 351.595 367.044 365.126 346.029 351.472C325.014 337.822 301.379 330.901 323.544 352.484C349.637 377.891 380.096 402.572 417.852 337.178Z" fill="#E91C3C"/>
</g>
<defs>
<clipPath id="clip0_47_1239">
<rect width="449" height="449" fill="white"/>
</clipPath>
</defs>
</svg>
