<svg width="557" height="558" viewBox="0 0 557 558" fill="none" xmlns="http://www.w3.org/2000/svg">
<path d="M557 279.002C557 433.088 432.312 557.999 278.501 557.999C124.691 557.999 0.00268555 433.088 0.00268555 279.002C0.00268555 124.915 124.691 0.00378418 278.501 0.00378418C432.312 0.00378418 557 124.915 557 279.002Z" fill="#FC5124"/>
<path d="M356.751 281.03C352.878 379.378 206.939 382.745 200.323 283.446C196.414 177.973 351.902 173.09 356.751 276.897V281.03Z" fill="#E91C3C"/>
<path d="M279.697 -3.05176e-05C185.814 -3.05176e-05 193.453 48.2279 204.591 92.1906C214.05 129.547 221.294 99.7432 219.658 68.5708C218.018 37.3984 242.529 28.5826 279.697 28.5826C316.865 28.5826 341.376 37.3984 339.735 68.5708C338.1 99.7432 345.344 129.547 354.803 92.1906C365.94 48.2279 373.58 -3.05176e-05 279.697 -3.05176e-05Z" fill="#E91C3C"/>
<path d="M0 277.8C0 371.851 48.1416 364.198 92.0257 353.041C129.315 343.564 99.5648 336.308 68.4482 337.946C37.3315 339.59 28.5315 315.034 28.5315 277.8C28.5315 240.565 37.3315 216.01 68.4482 217.654C99.5648 219.292 129.315 212.036 92.0257 202.559C48.1416 191.402 0 183.749 0 277.8Z" fill="#E91C3C"/>
<path d="M277.303 557.999C371.186 557.999 363.547 509.771 352.41 465.809C342.95 428.453 335.706 458.256 337.342 489.428C338.983 520.601 314.471 529.417 277.303 529.417C240.135 529.417 215.624 520.601 217.265 489.428C218.9 458.256 211.657 428.453 202.197 465.809C191.06 509.771 183.421 557.999 277.303 557.999Z" fill="#E91C3C"/>
<path d="M556.997 280.201C556.997 186.15 508.856 193.803 464.972 204.96C427.682 214.437 457.432 221.694 488.549 220.055C519.666 218.411 528.466 242.967 528.466 280.201C528.466 317.436 519.666 341.991 488.549 340.347C457.432 338.709 427.682 345.966 464.972 355.442C508.856 366.599 556.997 374.252 556.997 280.201Z" fill="#E91C3C"/>
<path d="M476.275 82.5641C409.89 16.0598 381.253 55.5723 358.092 94.551C338.418 127.663 364.576 111.718 385.42 88.5205C406.265 65.3183 429.822 76.4438 456.1 102.775C482.384 129.101 493.49 152.699 470.329 173.581C447.174 194.463 431.257 220.668 464.309 200.959C503.218 177.757 542.66 149.068 476.275 82.5641Z" fill="#E91C3C"/>
<path d="M82.4186 80.8719C16.0333 147.376 55.4751 176.065 94.3841 199.267C127.437 218.975 111.52 192.771 88.3644 171.889C65.2037 151.007 76.3092 127.409 102.593 101.083C128.872 74.7516 152.428 63.6262 173.273 86.8284C194.118 110.025 220.275 125.971 200.602 92.8589C177.441 53.8802 148.804 14.3676 82.4186 80.8719Z" fill="#E91C3C"/>
<path d="M80.724 475.435C147.109 541.939 175.746 502.427 198.907 463.448C218.581 430.336 192.423 446.281 171.578 469.478C150.734 492.681 127.177 481.555 100.899 455.224C74.6147 428.898 63.5091 405.3 86.6698 384.418C109.825 363.535 125.742 337.331 92.6895 357.04C53.7805 380.242 14.3387 408.93 80.724 475.435Z" fill="#E91C3C"/>
<path d="M474.583 477.132C540.969 410.628 501.527 381.939 462.618 358.737C429.565 339.029 445.482 365.233 468.637 386.115C491.798 406.997 480.693 430.595 454.409 456.921C428.13 483.252 404.573 494.378 383.729 471.176C362.884 447.979 336.727 432.033 356.4 465.145C379.561 504.124 408.198 543.636 474.583 477.132Z" fill="#E91C3C"/>
</svg>
