<svg xmlns="http://www.w3.org/2000/svg" width="920" height="265" viewBox="0 0 920 265" fill="none">
    <path d="M248.61 250.088C181.539 217.595 164.571 189.598 169.122 127.014C179.186 159.543 219.319 151.098 231.466 178.883C244.453 208.593 223.911 222.837 248.61 250.088Z" fill="#0F704D" />
    <path d="M240.278 266.014C171.181 192.445 105.507 161.813 4.93189 224.653C77.4254 225.287 84.5361 270.9 137.825 279.393C175.513 285.399 195.493 265.86 240.278 266.014Z" fill="#0F704D" />
    <path d="M208.288 251.7C208.288 251.7 159.193 212.678 96.2204 211.084C149.487 226.129 191.464 245.281 208.288 251.7Z" fill="#2F9D65" />
    <path d="M227.356 228.045C227.356 228.045 169.944 193.51 190.664 176.1C195.02 197.292 204.399 209.913 227.356 228.045Z" fill="#2F9D65" />
    <path d="M671.391 250.088C738.462 217.595 755.429 189.598 750.878 127.014C740.815 159.543 700.681 151.098 688.534 178.884C675.548 208.593 696.09 222.837 671.391 250.088Z" fill="#0F704D" />
    <path d="M679.722 266.015C748.82 192.446 814.494 161.814 915.069 224.653C842.575 225.287 835.465 270.901 782.176 279.393C744.487 285.4 724.508 265.861 679.722 266.015Z" fill="#0F704D" />
    <path d="M711.713 251.701C711.713 251.701 760.807 212.679 823.78 211.084C770.513 226.13 728.536 245.282 711.713 251.701Z" fill="#2F9D65" />
    <path d="M692.645 228.045C692.645 228.045 750.056 193.51 729.336 176.1C724.981 197.292 715.601 209.914 692.645 228.045Z" fill="#2F9D65" />
    <path d="M544.178 400.894C612.215 441.3 662.864 394.607 664.662 355.103C666.463 315.598 641.884 289.558 641.884 289.558C693.436 278.187 714.117 227.007 691.937 191.692C669.76 156.378 633.194 161.465 633.194 161.465C666.761 121.361 645.182 95.6222 628.398 87.2424C611.615 78.8626 586.738 89.9351 586.738 89.9351C592.751 66.494 579.198 54.9998 564.596 51.6572C544.113 46.9643 522.041 64.8923 522.041 64.8923L502.22 72.1618L386.548 80.9749C372.632 64.5596 346.004 60.3968 331.65 74.2703C317.291 88.1438 319.608 105.02 319.608 105.02C298.075 96.2335 268.568 102.915 258.251 130.453C249.534 153.712 258.328 172.453 277.7 186.407C234.346 190.605 199.555 229.309 221.987 281.479C238.391 319.63 290.621 312.306 290.621 312.306C255.787 344.614 259.297 393.257 297.815 419.569C325.97 438.8 375.026 427.767 396.718 409.274" fill="#BC0A23" />
    <path d="M613.88 280.408C670.371 284.223 685.457 241.57 682.877 212.685C678.088 159.067 607.049 172.473 607.049 172.473C607.049 172.473 653.266 141.979 631.349 110.537C621.113 95.8511 595.047 95.2553 570.786 108.042C579.546 89.8776 579.987 71.2339 567.016 64.537C543.557 52.4199 523.922 81.4669 523.922 81.4669L380.038 84.0551C380.038 84.0551 359.783 67.0208 342.597 78.8825C328.39 88.686 331.474 114.034 333.647 122.383C323.132 110.05 294.493 103.012 275.482 124.267C259.853 141.735 268.377 176.86 302.281 197.318C269.101 196.595 231.59 213.292 234.508 259.95C237.258 303.954 281.704 307.033 311.657 308.883" fill="#E91C3C" />
    <path d="M637.96 238.549C637.96 336.786 558.211 416.425 459.831 416.425C361.454 416.425 281.706 336.786 281.706 238.549C281.706 140.313 361.454 60.6734 459.831 60.6734C558.211 60.6735 637.96 140.313 637.96 238.549Z" fill="#BC0A23" />
    <path d="M599.194 199.855C599.194 275.196 538.03 336.273 462.582 336.273C387.134 336.273 325.97 275.196 325.97 199.855C325.97 124.514 387.134 63.4373 462.582 63.4373C538.03 63.4373 599.194 124.514 599.194 199.855Z" fill="#E91C3C" />
    <path d="M531.072 72.1609C531.072 112.013 498.718 144.322 458.809 144.322C418.899 144.322 386.549 112.013 386.549 72.1609C386.549 32.3084 418.903 -9.79417e-06 458.809 -6.30979e-06C498.718 -2.82506e-06 531.072 32.3084 531.072 72.1609Z" fill="#BC0A23" />
</svg>