<svg xmlns="http://www.w3.org/2000/svg" width="364" height="227" viewBox="0 0 364 227" fill="none">
    <g clip-path="url(#clip0_100_4694)">
        <path d="M70.2715 16.9881C78.0986 10.2063 90.8645 15.5868 89.0013 26.4152C87.8714 32.9722 84.5938 40.1362 83.3591 47.0604C81.0769 59.8447 81.3163 77.2451 88.8142 88.3583C91.089 91.7305 94.4563 92.8546 91.3809 97.5007C87.5421 103.308 78.5177 104.365 73.6538 99.1943C62.1226 86.927 69.3062 59.7398 70.915 45.112C71.8354 36.794 68.4905 43.2836 67.211 46.4834C63.2076 56.51 61.7035 67.4059 60.828 77.9795C60.5137 81.7564 61.3668 85.803 57.2362 87.4066C43.0111 92.937 41.5071 68.9421 41.1255 60.4367C40.7214 51.3918 42.001 38.1054 39.6812 29.6899C39.4792 28.9705 39.3969 28.3935 38.7534 27.884C38.0425 27.8465 37.2643 32.013 37.152 32.8223C34.5704 51.6765 39.6363 91.4008 21.5426 103.84C13.1243 109.626 0.657729 103.308 0.00671335 93.4316C-0.359951 87.8637 3.0373 88.3433 6.5917 85.7805C24.1616 73.1386 24.5283 40.5334 25.4412 21.1246C25.8528 12.4619 26.414 1.18381 36.1493 0.0972178C50.4193 -1.49895 52.941 16.3586 52.9635 26.9922C52.9784 33.9689 52.2152 40.983 52.4995 47.9597C52.5594 49.346 52.9111 56.6599 54.1158 57.0046C55.2009 56.9221 55.4179 55.1911 55.7097 54.3218C59.4661 43.0138 60.5661 25.3736 70.2416 16.9806L70.2715 16.9881Z" fill="#001229" />
        <path d="M59.5868 124.283C70.0255 117.194 83.2179 111.799 95.9987 111.521C124.613 110.914 128.452 135.037 113.187 154.828C100.646 171.089 70.7887 188.385 49.8066 185.147C37.6318 183.274 29.1761 174.409 31.3611 161.624C32.0645 157.525 35.7985 151.126 39.7495 149.44C44.4787 147.424 43.3189 151.433 45.2195 154.513C51.4902 164.682 70.4221 157.788 78.7655 153.479C86.3981 149.537 101.312 139.391 100.369 129.604C100.04 126.149 97.1885 123.841 94.0232 123.024C84.1981 120.484 68.903 126.164 60.9487 132.099C58.9806 133.568 54.7902 138.087 53.0691 138.829C49.0134 140.575 45.6984 134.992 46.5739 131.305C47.644 126.809 55.8303 118.723 58.2997 113.927C60.4623 109.73 59.3174 109.213 55.2018 110.712C48.759 113.058 44.5535 117.929 39.4427 121.908C31.0244 128.465 24.4918 116.212 28.57 109.311C32.0496 103.413 47.6365 99.8237 54.1467 98.9169C58.816 98.265 65.0643 97.3358 68.2146 101.63C73.3554 108.636 62.3405 118.221 59.5942 124.276L59.5868 124.283Z" fill="#001229" />
        <path d="M184.14 50.695L188.488 43.8458C194.04 38.4578 203.379 39.7992 204.411 48.3195C206.881 43.8008 209.619 39.2521 214.947 37.8658C219.138 36.7717 223.62 37.9107 225.745 41.9199C229.943 49.8333 221.315 62.3328 224.368 72.1721C225.58 76.0763 230.482 78.227 225.543 82.6033C221.151 86.5001 214.349 85.7357 211.565 80.3177C207.517 72.4418 212.321 63.4643 213.443 55.7533C213.712 53.9098 213.87 51.5868 212.238 50.3428C210.33 49.7883 209.35 50.6576 208.377 52.1413C206.462 55.0339 205.115 61.4785 204.77 64.9481C204.321 69.4443 205.317 74.6675 204.479 78.9539C203.356 84.7166 190.209 86.4551 189.857 78.5492C189.565 71.9847 193.366 63.8315 193.164 56.4202C193.06 52.7258 190.717 50.2829 188.098 53.9398C183.332 60.5868 185.532 71.7749 184.177 79.2237C182.696 87.3693 169.077 88.1862 169.443 79.5534C169.586 76.1887 171.194 71.9772 171.658 68.5076C172.399 62.9773 172.676 56.6451 171.262 51.2271C170.289 47.5102 166.824 43.9732 170.686 40.9532C173.23 38.9599 177.143 38.6601 180.009 40.0539C183.676 41.8374 184.207 47.0456 184.14 50.68V50.695Z" fill="#001229" />
        <path d="M309.135 61.0513C302.789 66.3119 293.346 67.0088 286.439 62.3253C286.439 65.1654 286.372 68.0205 286.574 70.8531C286.791 73.8431 288.722 81.6741 287.839 83.7648C287.128 85.4434 283.379 87.0396 281.635 87.152C264.305 88.2536 272.768 69.789 274.003 60.1895C274.848 53.5951 275.245 45.292 272.805 39.0348C270.867 34.0514 265.337 30.5144 270.942 25.3137C278.118 18.6593 294.783 17.6626 303.575 20.8775C320.255 26.9923 321.968 50.4102 309.135 61.0438V61.0513ZM290.053 30.4619C289.2 30.5444 287.487 31.1588 287.075 31.9157C286.387 33.1747 287.906 39.7467 287.913 41.9573C287.913 43.9431 286.761 52.2087 287.457 53.1305C287.883 53.7 290.256 54.4943 291.034 54.6142C296.302 55.3786 301.001 50.7025 301.944 45.7416C303.613 36.989 299.871 29.5402 290.061 30.4694L290.053 30.4619Z" fill="#001229" />
        <path d="M337.967 79.7258L333.948 86.2003C322.716 98.3477 308.738 90.4493 310.721 74.4052C312.016 63.9365 322.956 49.5335 334.682 53.0331C337.922 53.9998 339.538 56.2029 341.222 58.9531C342.501 54.4494 344.133 45.0897 339.254 42.2196C337.188 41.0057 335.108 41.2979 334.936 43.9732C334.801 45.9965 336.717 47.0606 333.709 48.5593C326.099 52.3437 316.992 44.228 322.978 36.5094C328.089 29.9224 340.174 32.3429 345.584 37.3862C360.52 51.3245 344.604 67.5709 349.333 81.1496C350.313 83.9597 352.177 84.237 352.888 85.5784C354.205 88.0513 350.605 91.918 348.353 92.7049C340.122 95.605 337.076 86.1629 337.959 79.7332L337.967 79.7258ZM333.993 60.9615C328.643 61.501 322.597 74.8998 327.857 77.2378C332.354 79.2387 337.121 71.685 337.765 67.9831C338.311 64.8357 338.333 60.5268 333.986 60.969L333.993 60.9615Z" fill="#001229" />
        <path d="M116.449 77.6423L112.887 84.2668C101.319 98.2351 87.1088 88.763 90.0047 71.7373C91.6734 61.9055 101.917 50.3127 112.745 52.943C114.16 53.2877 115.08 54.3818 116.36 54.8689C115.97 50.2303 115.858 39.4618 109.939 38.3827C107.193 37.8806 105.068 39.2595 105.464 42.272C105.794 44.7824 108.817 45.1645 105.846 48.1695C100.967 53.0929 91.8006 50.3802 91.7482 42.7141C91.6434 28.1912 117.879 26.3328 124.404 41.2153C128.826 51.3094 124.351 69.2044 128.983 76.4284C130.57 78.9013 132.381 78.1969 131.468 82.3784C130.929 84.8663 127.389 87.7514 124.89 87.9762C119.315 88.4708 116.479 82.4308 116.449 77.6423ZM110.336 59.4176C105.502 60.1445 101.738 72.4867 105.247 75.4392C108.278 77.9871 112.079 73.7606 113.254 71.1003C114.668 67.893 116.27 58.5259 110.336 59.4176Z" fill="#001229" />
        <path d="M177.376 100.626C171.621 100.304 170.357 103.758 169.459 108.637C167.072 121.518 162.769 148.249 145.611 149.35C126.215 150.602 129.163 122.575 144.653 125.213C149.734 126.082 145.693 130.309 148.387 132.092C150.841 133.718 153.535 131.545 155.129 129.791C159.506 124.988 162.021 115.576 162.784 109.206C163.151 106.126 162.365 100.783 163.951 98.4752C166.787 94.3312 180.002 90.7716 184.889 90.9889C193.584 91.3786 187.852 102.065 186.744 107.123C185.068 114.789 184.754 122.553 186.759 130.204C187.957 134.767 191.055 137.87 185.772 141.489C181.903 144.142 176.291 143.737 173.717 139.541C172.429 137.443 172.003 134.018 171.995 131.56C171.966 120.971 176.029 110.975 177.383 100.618L177.376 100.626Z" fill="#001229" />
        <path d="M244.333 59.6198C243.532 68.7322 251.591 70.4183 258.535 66.8213C259.995 66.0644 263.946 62.8721 265.24 63.022C267.395 63.2693 268.241 68.1402 268.084 69.9162C267.358 78.1368 256.111 84.2817 248.643 84.4315C219.385 85.0086 225.094 41.3651 248.508 34.4409C255.774 32.2902 265.719 33.9688 267.769 42.4142C271.062 55.9704 256.343 67.0986 244.333 59.6123V59.6198ZM257.106 45.9438C255.901 44.5424 252.848 44.7598 251.299 45.614C249.855 46.4159 245.455 51.3168 246.368 52.793C248.882 53.6398 252.22 53.8646 254.614 52.4708C256.612 51.3093 258.955 48.087 257.106 45.9438Z" fill="#001229" />
        <path d="M310.31 93.5439C313.071 93.0568 315.458 97.2233 315.548 99.6288C315.885 108.629 307.646 111.566 300.044 109.798C295.606 108.764 290.727 105.526 286.589 104.777C283.379 104.192 286.664 108.097 287.285 109.423C292.321 120.229 295.008 133.411 294.776 145.378C294.708 148.825 294.169 159.481 292.456 161.977C290.069 165.454 283.514 164.494 280.483 162.321C274.34 157.915 278.582 151.253 279.959 145.625C283.02 133.103 282.982 118.146 274.759 107.535C271.773 103.683 266.827 101.165 271.137 95.7695C276.315 89.2799 288.677 95.0126 295.374 95.8894C299.003 96.369 303.082 96.4065 306.606 95.3124C307.818 94.9377 309.659 93.6638 310.318 93.5439H310.31Z" fill="#001229" />
        <path d="M151.701 38.9975C160.831 39.0425 168.291 45.9891 166.278 55.4987C164.961 61.7185 156.498 63.502 152.427 58.736C149.105 54.8467 153.303 54.1798 154.186 51.6844C155.72 47.323 151.163 45.5245 147.937 48.597C144.697 51.6769 143.695 58.2264 144.361 62.4604C146.082 73.4312 156.947 75.1697 163.21 66.6568C165.754 65.0007 167.311 71.0482 167.191 72.7492C166.607 81.2097 157.358 87.9915 149.15 87.3995C123.371 85.541 125.406 38.8626 151.709 38.99L151.701 38.9975Z" fill="#001229" />
        <path d="M215.703 139.353C213.93 140.89 210.749 142.628 208.385 142.763C184.896 144.134 185.494 96.3244 205.878 93.0496C226.149 89.7898 229.389 127.483 215.703 139.353ZM206.035 104.178C201.89 105.1 201.762 115.696 202.024 118.94C202.279 122.043 204.336 133.021 209.313 130.616C214.199 128.255 213.196 115.134 211.969 110.652C211.236 107.97 209.545 103.391 206.035 104.17V104.178Z" fill="#001229" />
        <path d="M245.448 102.072C245.47 107.789 243.959 113.29 243.181 118.888C242.522 123.609 242.021 128.39 242.148 133.163C242.223 135.861 243.458 141.878 243.046 143.992C242.081 148.952 233.662 149.065 230.228 146.42C222.49 140.462 230.295 125.43 232.72 118.093C234.702 112.076 236.439 106.073 236.528 99.6663C234.119 99.3815 231.986 99.3215 229.607 99.7637C226.778 100.296 223.643 102.514 222.116 98.2724C220.32 93.2666 223.613 88.8678 228.798 88.6355C235.443 88.3432 243.285 92.0676 250.911 91.9702C253.859 91.9327 259.643 89.5048 261.447 89.9993C265.577 91.1159 265.405 97.9427 263.512 100.91C259.718 106.845 250.851 103.458 245.448 102.072Z" fill="#001229" />
        <path d="M261.244 109.603C284.359 107.685 280.782 157.45 259.501 153.067C241.639 149.387 244.46 110.997 261.244 109.603ZM261.581 119.405C257.772 119.907 257.286 128.54 257.353 131.425C257.421 134.332 258.992 143.017 262.913 142.898C266.677 142.785 267.418 134.572 267.41 131.852C267.41 128.862 265.966 118.82 261.581 119.405Z" fill="#001229" />
        <path d="M139.834 122.687C110.022 124.171 111.563 86.2604 139.392 89.5801C162.746 92.3603 161.474 121.616 139.834 122.687ZM138.794 115.224C143.695 114.834 143.792 108.262 143.53 106.066C143.261 103.856 140.694 97.2387 135.613 97.3286C130.742 97.4185 130.3 103.676 130.473 105.752C130.66 108.03 133.151 115.673 138.794 115.224Z" fill="#001229" />
        <path d="M339.86 114.234C349.266 102.964 362.152 120.094 351.002 128.188L347.852 130.091C359.002 127.835 366.769 135.779 363.08 146.892C360.042 156.049 349.932 158.402 342.547 152.52C344.56 157.638 346.707 162.322 342.786 167.215C336.994 174.424 322.926 174.094 318.901 165.154C317.18 161.34 318.205 157.496 319.252 153.674C312.697 160.156 303.778 160.111 300.567 150.459C297.597 141.541 302.67 135.412 311.695 135.187L307.122 132.549C297.754 126.157 306.995 112.496 316.618 114.909C318.826 115.463 320.689 117.584 322.305 119.053C321.699 115.119 320.427 111.567 321.774 107.602C323.069 103.803 326.728 101.3 330.679 101.113C339.411 100.693 342.083 106.463 339.868 114.227L339.86 114.234ZM344.492 141.661C342.367 139.691 338.985 137.72 337.937 134.655C336.777 132.197 336.717 128.989 336.949 125.999C337.107 123.324 335.834 125.437 335.094 126.539C332.52 130.908 327.753 133.426 322.694 132.601C322.096 132.579 320.607 132.392 320.345 132.751C320.21 133.426 321.512 134.115 322.148 134.692C326.698 137.54 328.396 142.591 327.566 147.739C327.491 148.87 327.289 151.006 328.711 149.095C330.155 147.124 331.951 144.539 334.248 143.332C336.792 141.744 340.564 141.901 343.564 142.096C344.17 142.096 344.507 142.029 344.522 141.834L344.477 141.669L344.492 141.661Z" fill="#001229" />
        <path d="M122.728 176.613C121.837 175.631 122.376 174.484 119.921 174.597C115.417 174.799 111.915 187.291 110.867 190.993C120.774 185.77 136.062 184.878 139.968 208.371C141.24 216 124.875 220.054 124.022 212.552C123.296 206.213 124.778 197.258 116.719 195.677C113.77 195.1 107.56 197.79 106.766 201.102C108.69 207.037 114.332 218.525 106.736 221.635C102.471 223.381 94.5468 224.572 94.0604 218.098C93.791 214.546 95.2277 205.126 91.0073 197.033C87.9019 191.09 80.6809 185.777 87.1087 179.19C89.2788 176.965 95.2502 174.26 98.2733 175.294C103.242 177.002 101.154 187.351 103.818 191.105C109.071 181.866 106.976 164.832 117.452 159.16C127.33 153.809 134.812 165.499 128.931 173.78C127.913 175.211 124.344 178.374 122.742 176.605L122.728 176.613Z" fill="#001229" />
        <path d="M258.895 213.361C254.577 214.388 246.653 213.751 247.753 207.764L244.849 211.068C240.749 215.557 232.712 215.587 228.701 211.016C220.328 201.476 236.925 180.067 230.168 167.605C228.289 164.143 223.815 163.715 226.598 159.137C229.951 153.629 239.664 153.059 244.213 157.458C253.522 166.458 242.051 185.597 240.202 195.639C239.671 198.516 239.491 204.751 244.161 202.848C251.958 199.663 252.721 178.156 256.575 171.149C260.646 163.753 271.257 165.964 271.286 173.405C271.324 182.54 260.78 195.279 259.321 205.246C258.401 211.533 263.452 207.966 264.926 209.682C265.764 210.656 263.512 215.52 263.1 217.063" fill="#001229" />
        <path d="M159.08 193.736C163.599 190.611 166.533 180.419 167.939 175.548C170.109 168.055 170.775 150.19 182.352 149.395C193.913 148.601 188.473 166.099 187.432 171.891C186.385 177.744 186.587 183.822 188.315 189.637C189.198 192.627 191.488 196.194 191.975 198.981C193.022 204.976 182.823 207.846 178.258 203.035C172.175 196.628 177.802 177.991 179.082 170.513C179.321 169.126 180.137 165.087 177.45 167.148C173.08 170.498 171.247 187.119 169.758 192.634C167.857 199.656 162.806 211.93 151.649 207.682C143.612 204.624 143.889 195.1 151.918 192.941C152.929 193.001 153.288 194.193 153.946 194.455C155.757 195.189 157.68 194.717 159.095 193.736H159.08Z" fill="#001229" />
        <path d="M290.038 215.153C288.444 216.569 287.374 218.472 285.728 219.866C280.535 224.265 272.573 225.044 268.645 218.645C261.019 206.243 279.076 185.777 292.186 192.522C293.69 193.294 294.206 194.29 295.523 195.092C296.855 191.428 298.606 186.302 296.638 182.585C295.089 179.67 290.457 178.344 290.113 182.585C289.934 184.751 291.812 185.47 288.617 187.074C279.577 191.607 273 179.925 281.942 174.274C289.612 169.426 301.607 174.237 305.109 182.315C310.669 195.13 297.678 206.865 301.083 217.116C302.011 219.911 304.218 219.784 302.295 223.681C301.577 225.134 298.958 226.865 297.364 226.978C290.225 227.495 288.699 220.87 290.038 215.16V215.153ZM288.332 198.09C284.351 198.457 278.949 207.09 281.134 210.627C282.346 212.59 285.159 211.736 286.768 210.679C290.383 208.318 295.793 197.4 288.325 198.09H288.332Z" fill="#001229" />
        <path d="M206.978 173.083C215.359 167.32 224.166 173.068 225.244 182.562C226.711 195.557 218.075 208.288 203.962 205.089C188.091 201.492 194.407 181.071 195.447 169.95C195.799 166.211 196.083 161.595 195.821 157.848C195.507 153.404 192.282 147.222 198.403 145.813C202.024 144.974 205.279 145.386 208.25 147.709C215.075 153.037 208.415 166.353 206.978 173.09V173.083ZM217.881 188.977C218.689 188.153 214.678 186.856 214.102 186.437C211.266 184.376 211.341 179.04 210.951 178.898C210.039 178.576 209.425 181.341 209.021 182.053C207.943 183.956 206.858 184.811 204.771 185.425C203.977 185.657 199.794 185.86 201.972 187.021C203.356 187.756 205.317 188.265 206.349 189.584C207.457 190.993 208.041 194.328 207.801 196.096C209.358 196.718 209.41 194.23 210.166 192.889C211.962 189.681 214.461 189.254 217.896 188.977H217.881Z" fill="#001229" />
        <path d="M149.966 153.749C127.734 153.225 128.31 194.665 150.849 190.663C168.875 187.456 169.302 154.206 149.966 153.749ZM148.686 177.669C145.753 177.497 143.553 174.432 143.762 170.827C143.979 167.223 146.531 164.443 149.464 164.622C152.398 164.802 154.598 167.86 154.388 171.464C154.171 175.069 151.619 177.841 148.686 177.669Z" fill="#001229" />
        <path d="M265.091 210.866C263.078 218.487 261.199 229.113 250.364 226.633C244.191 225.224 243.547 218.113 248.905 215.587C252.325 213.976 257.406 218.292 259.875 211.241" fill="#001229" />
    </g>
    <defs>
        <clipPath id="clip0_100_4694">
            <rect width="364" height="227" fill="white" />
        </clipPath>
    </defs>
</svg>