<svg xmlns="http://www.w3.org/2000/svg" width="766" height="1125" viewBox="0 0 766 1125" fill="none">
    <g clip-path="url(#clip0_88_1327)">
        <g clip-path="url(#clip1_88_1327)">
            <g clip-path="url(#clip2_88_1327)">
                <path d="M1222.1 658.242C1221.2 657.536 1220.3 656.859 1219.38 656.206C1179.77 626.42 1128.57 621.836 1084.87 640.009C1048.75 623.813 1004.43 633.951 978.186 667.094C963.654 685.447 957.26 707.581 958.527 729.021C935.291 731.537 912.864 743.161 897.024 763.165C894.132 766.818 891.564 770.619 889.313 774.536C884.162 766.179 877.515 758.578 869.399 752.153C831.265 721.959 775.305 729.111 744.411 768.129C738.291 775.859 733.621 784.258 730.353 792.992C690.477 768.504 637.124 777.797 606.687 816.238C584.385 844.405 580.191 880.941 592.486 911.531C563.09 918.725 535.602 935.508 515.177 961.305C514.363 962.332 513.576 963.394 512.798 964.467C467.593 1024.87 477.352 1109.76 535.525 1155.82C594.718 1202.69 681.574 1191.58 729.526 1131.02C752.722 1101.72 762.527 1066.23 759.81 1032.07L1103.76 903.592C1153.62 914.193 1208.04 896.207 1242.44 852.76C1289.68 793.107 1281.51 707.751 1224.7 660.414C1223.85 659.672 1222.99 658.948 1222.1 658.242Z" fill="#2F9D65" />
                <path d="M1263.88 622.895C1262.67 622.625 1261.47 622.389 1260.27 622.182C1207.47 611.721 1155.38 630.737 1121.44 668.157C1078.51 669.14 1040.14 699.133 1030.34 742.931C1024.92 767.184 1029.23 791.344 1040.68 811.333C1019.22 824.373 1002.9 845.781 996.988 872.217C995.909 877.044 995.216 881.866 994.888 886.652C985.886 880.991 975.787 876.739 964.816 874.285C913.264 862.757 862.123 895.21 850.593 946.772C848.309 956.986 847.757 967.18 848.731 977.053C798.2 971.796 750.62 1005.11 739.26 1055.91C730.936 1093.13 744.248 1130.1 770.802 1153.83C745.575 1174.17 726.774 1202.84 719.151 1236.93C718.847 1238.29 718.586 1239.67 718.338 1241.06C703.041 1319.68 752.988 1396.66 831.629 1414.25C911.648 1432.14 991.021 1381.77 1008.92 1301.73C1017.58 1263.02 1010.23 1224.48 991.31 1192.95L1265.38 912.398C1319.04 899.764 1363.52 857.622 1376.36 800.207C1393.99 721.378 1345.37 643.222 1267.45 623.788C1266.27 623.463 1265.08 623.165 1263.88 622.895Z" fill="#0F704D" />
                <path d="M630.978 665.316C627.916 649.811 638.771 645.478 654.611 647.464C681.519 650.837 690.307 640.742 690.307 640.742C689.201 666.059 673.92 674.379 647.326 672.955C638.095 671.214 630.978 665.316 630.978 665.316Z" fill="#5991DB" />
                <path d="M805.609 613.691C784.175 706.497 879.109 682.535 874.564 798.076C871.082 886.586 800.438 908.194 788.14 958.832C735.049 951.024 734.387 916.869 729.475 898.297C719.999 877.472 713.313 834.289 713.313 834.289C742.292 803.364 704.258 772.653 724.124 703.549C745.925 627.713 805.609 613.691 805.609 613.691Z" fill="#5991DB" />
                <path d="M590.606 984.08C602.91 977.345 632.205 981.857 658.763 998.678C656.829 992.38 655.176 985.527 654.185 981.16C636.828 975.919 625.584 957.222 623.994 939.669C585.869 919.359 547.636 851.414 588.691 771.703C629.746 691.991 625.096 679.34 598.616 659.96C598.616 659.96 597.367 659.065 598.082 657.802C598.943 656.278 601.405 657.716 601.405 657.716C615.856 666.171 627.359 657.174 639.266 661.603C651.786 666.26 668.339 672.384 670.824 745.095C671.876 775.95 681.619 799.157 692.942 815.905C699.345 825.377 737.42 908.922 737.42 908.922C737.42 908.922 723.703 930.104 709.193 940.198C717.39 950.567 731.474 959.438 731.715 959.59L731.724 959.594C735.287 961.67 741.612 964.802 751.412 967.869L753.771 968.608C755.083 969.019 755.216 970.821 753.98 971.42L751.754 972.497C732.526 981.815 721.002 991.765 717.505 1002.07C715.389 1008.31 716.558 1017.47 719.709 1021.99C710.11 1021.27 710.21 1008.04 712.775 1000.47C716.417 989.739 726.728 979.973 744.221 970.716C736.837 968.054 731.843 965.487 728.769 963.657L728.76 963.671C714.362 970.083 690.613 969.173 675.891 949.816L659.534 949.816C659.534 949.816 656.198 966.689 659.078 980.141C660.453 986.165 663.09 996.924 665.868 1004.01L667.084 1007.12C667.638 1008.53 666.01 1009.78 664.783 1008.9L662.08 1006.95C635.944 988.077 604.704 982.053 593.004 988.458C590.005 990.101 588.768 992.357 588.81 995.548C584.394 993.243 585.948 986.63 590.606 984.08Z" fill="#001229" />
                <path d="M767.68 886.875C718.762 867.439 718.762 800.088 658.405 802.599C603.656 804.878 610.217 868.736 637.524 893.009C660.724 913.633 729.075 935.234 767.68 886.875Z" fill="#FA85BD" />
                <path d="M827.025 632.884C827.78 632.578 827.778 631.468 826.988 631.264C807.183 626.166 771.495 637.854 747.526 682.507C712.122 748.463 745.651 791.889 724.532 832.997C724.076 833.882 725.264 834.724 725.937 833.988C751.244 806.286 736.809 752.303 757.47 704.852C768.391 679.77 782.542 650.949 827.025 632.884Z" fill="#1766C7" />
                <path d="M851.316 681.823C852.219 681.832 852.516 680.678 851.767 680.173C832.876 667.384 795.3 670.486 774.24 744.887C756.787 806.534 743.773 827.434 733.241 838.995C732.49 839.818 733.657 840.982 734.515 840.272C762.225 817.273 773.106 775.583 801.98 719.081C819.536 684.726 843.154 681.746 851.316 681.823Z" fill="#1766C7" />
                <path d="M877.807 726.841C878.642 726.717 878.876 725.597 878.118 725.225C856.029 714.363 834.309 728.22 801.748 783.724C780.353 820.189 748.171 840.806 736.918 847.225C736.076 847.704 736.558 848.992 737.516 848.833C758.797 845.327 784.437 829.773 814.532 790.669C840.112 757.432 849.12 731.097 877.807 726.841Z" fill="#1766C7" />
                <path d="M887.022 822.537C887.834 822.766 888.507 821.841 887.969 821.191C874.671 805.16 851.092 805.02 815.309 824.05C783.026 841.216 759.721 852.979 745.27 857.385C744.295 857.682 744.58 859.145 745.597 859.082C768.325 857.693 792.348 848.965 818.395 838.269C846.734 826.63 865.721 816.525 887.022 822.537Z" fill="#1766C7" />
                <path d="M865.432 886.693C865.834 887.504 867.008 887.256 867.083 886.354C868.825 865.111 841.781 854.625 808.671 859.26C779.579 863.332 762.629 867.448 749.688 865.749C748.654 865.613 748.32 867.02 749.29 867.401C770.351 875.681 803.405 871.906 828.684 872.785C853.801 873.659 861.715 879.171 865.432 886.693Z" fill="#1766C7" />
                <path d="M826.997 934.58C799.829 939.419 778.568 922.219 763.448 905.487C762.973 904.964 763.548 904.195 764.196 904.478C785.871 913.968 813.308 916.135 827.436 933.421C827.77 933.83 827.516 934.487 826.997 934.58Z" fill="#1766C7" />
                <path d="M814.096 947.155C785.996 949.551 770.118 925.388 745.523 919.93C744.954 919.804 744.473 920.449 744.751 920.963C761.199 951.47 793.178 965.745 814.615 948.343C815.127 947.927 814.753 947.099 814.096 947.155Z" fill="#1766C7" />
                <path d="M651.411 869.445C661.404 878.776 696.651 909.052 734.765 910.964C727.37 913.718 719.713 915.258 712.061 915.842C694.042 911.149 669.638 897.201 650.263 870.457C650.032 870.137 650.081 869.693 650.378 869.431C650.675 869.169 651.121 869.174 651.411 869.445Z" fill="#E91C3C" />
                <path d="M705.66 863.989C732.48 885.428 757.157 887.315 767.617 886.95C765.462 889.648 763.208 892.116 760.877 894.388C737.509 892.361 718.58 882.516 704.58 865.071C704.335 864.765 704.358 864.323 704.636 864.045C704.912 863.769 705.354 863.743 705.66 863.989Z" fill="#E91C3C" />
                <path d="M744.791 906.367C731.296 904.324 701.854 896.835 678.881 869.584C678.628 869.285 678.64 868.845 678.909 868.56C679.175 868.277 679.612 868.238 679.926 868.471C712.555 892.711 740.942 898.719 754.225 900.18C751.176 902.534 748.022 904.584 744.791 906.367Z" fill="#E91C3C" />


                <path d="M-7.13243 46.531C-17.5981 4.2524 -60.3647 -21.5388 -102.652 -11.0709C-143.24 -1.02368 -168.539 38.7726 -161.264 79.3375C-164.789 79.8408 -168.327 80.5261 -171.858 81.4002C-206.835 90.0586 -233.331 115.279 -245.128 146.628C-263.389 126.62 -291.755 116.987 -319.901 123.954C-360.821 134.084 -385.782 175.458 -375.654 216.369C-365.528 257.278 -324.149 282.23 -283.229 272.101C-263.067 267.11 -246.807 254.512 -236.682 238.144C-213.446 276.56 -167.143 297.175 -121.256 285.817C-64.7983 271.841 -30.3537 214.75 -44.3266 158.304C-46.1357 150.995 -48.6975 144.072 -51.8588 137.56C-17.4202 122.39 2.21783 84.3034 -7.13243 46.531Z" fill="#5991DB" />
                <path d="M-458.334 658.242C-457.442 657.536 -456.539 656.86 -455.622 656.206C-416.01 626.42 -364.811 621.836 -321.111 640.009C-284.983 623.813 -240.666 633.951 -214.424 667.094C-199.893 685.447 -193.498 707.581 -194.766 729.021C-171.529 731.537 -149.102 743.161 -133.263 763.166C-130.371 766.818 -127.802 770.62 -125.552 774.536C-120.4 766.179 -113.753 758.578 -105.638 752.153C-67.5033 721.959 -11.5433 729.111 19.3508 768.129C25.4707 775.859 30.1409 784.258 33.4083 792.992C73.2842 768.504 126.637 777.797 157.075 816.239C179.376 844.405 183.571 880.942 171.276 911.531C200.672 918.725 228.16 935.508 248.585 961.305C249.399 962.333 250.185 963.395 250.964 964.467C296.169 1024.87 286.409 1109.76 228.236 1155.82C169.044 1202.69 82.188 1191.58 34.2359 1131.02C11.0394 1101.72 1.23433 1066.23 3.9519 1032.07L-339.995 903.592C-389.861 914.193 -444.282 896.207 -478.682 852.76C-525.914 793.107 -517.749 707.751 -460.937 660.414C-460.091 659.672 -459.225 658.948 -458.334 658.242Z" fill="#2F9D65" />
                <path d="M-500.116 622.894C-498.911 622.624 -497.709 622.388 -496.504 622.181C-443.706 611.72 -391.616 630.736 -357.675 668.156C-314.746 669.139 -276.376 699.132 -266.582 742.93C-261.158 767.183 -265.467 791.343 -276.914 811.332C-255.462 824.372 -239.137 845.78 -233.226 872.216C-232.146 877.043 -231.454 881.865 -231.125 886.652C-222.123 880.99 -212.024 876.738 -201.053 874.284C-149.502 862.756 -98.3607 895.209 -86.8301 946.771C-84.546 956.985 -83.9941 967.179 -84.9688 977.052C-34.437 971.795 13.1429 1005.11 24.503 1055.91C32.8267 1093.13 19.5142 1130.1 -7.03931 1153.83C18.1882 1174.17 36.9886 1202.84 44.6118 1236.93C44.9155 1238.29 45.1766 1239.67 45.4245 1241.06C60.7216 1319.68 10.7749 1396.66 -67.8658 1414.25C-147.885 1432.14 -227.258 1381.76 -245.155 1301.73C-253.813 1263.02 -246.464 1224.48 -227.547 1192.95L-501.619 912.397C-555.275 899.763 -599.755 857.621 -612.594 800.207C-630.222 721.377 -581.611 643.221 -503.688 623.787C-502.51 623.462 -501.322 623.164 -500.116 622.894Z" fill="#0F704D" />
                <path d="M138.184 664.316C141.247 648.811 130.391 644.477 114.551 646.464C87.6435 649.837 78.855 639.741 78.855 639.741C79.9608 665.059 95.2419 673.378 121.837 671.955C131.067 670.213 138.184 664.316 138.184 664.316Z" fill="#5991DB" />
                <path d="M-36.4469 612.69C-15.0122 705.496 -109.946 681.534 -105.401 797.075C-101.92 885.585 -31.2752 907.193 -18.9774 957.831C34.1136 950.024 34.7753 915.868 39.6874 897.296C49.1633 876.471 55.8499 833.288 55.8499 833.288C26.8705 802.363 64.9049 771.653 45.0391 702.549C23.2373 626.713 -36.4469 612.69 -36.4469 612.69Z" fill="#5991DB" />
                <path d="M178.557 983.079C166.252 976.345 136.957 980.856 110.4 997.677C112.333 991.38 113.986 984.526 114.978 980.16C132.335 974.919 143.578 956.221 145.168 938.669C183.294 918.358 221.527 850.414 180.472 770.702C139.417 690.99 144.067 678.34 170.547 658.959C170.547 658.959 171.796 658.064 171.08 656.802C170.22 655.278 167.758 656.715 167.758 656.715C153.307 665.17 141.804 656.173 129.896 660.603C117.377 665.259 100.824 671.383 98.3383 744.094C97.2862 774.949 87.5438 798.156 76.2209 814.904C69.8172 824.376 31.743 907.921 31.743 907.921C31.743 907.921 45.46 929.104 59.9695 939.197C51.7726 949.566 37.6885 958.437 37.4477 958.589L37.4383 958.594C33.8753 960.669 27.551 963.802 17.7502 966.869L15.3911 967.607C14.0795 968.019 13.9462 969.821 15.183 970.419L17.4088 971.497C36.6364 980.814 48.1604 990.765 51.658 1001.07C53.7739 1007.31 52.6049 1016.47 49.4533 1020.99C59.0531 1020.27 58.9525 1007.04 56.3877 999.47C52.7452 988.738 42.4346 978.972 24.9418 969.716C32.3252 967.053 37.3191 964.487 40.3936 962.656L40.4029 962.67C54.8003 969.082 78.5495 968.173 93.2719 948.816L109.628 948.816C109.628 948.816 112.965 965.688 110.084 979.141C108.71 985.164 106.072 995.924 103.295 1003.01L102.079 1006.12C101.525 1007.52 103.152 1008.78 104.38 1007.9L107.082 1005.94C133.219 987.076 164.459 981.053 176.158 987.457C179.158 989.101 180.395 991.356 180.353 994.547C184.769 992.242 183.214 985.629 178.557 983.079Z" fill="#001229" />
                <path d="M1.48242 885.875C50.4002 866.439 50.4001 799.088 110.758 801.598C165.506 803.878 158.946 867.736 131.638 892.009C108.438 912.633 40.0873 934.234 1.48242 885.875Z" fill="#FA85BD" />
                <path d="M-57.8624 631.884C-58.6176 631.578 -58.6153 630.467 -57.825 630.264C-38.0199 625.166 -2.33286 636.854 21.6362 681.507C57.0404 747.462 23.5113 790.889 44.6303 831.996C45.0862 832.882 43.8985 833.724 43.2252 832.987C17.9188 805.286 32.3535 751.303 11.6927 703.851C0.771987 678.77 -13.3799 649.948 -57.8624 631.884Z" fill="#1766C7" />
                <path d="M-82.1545 680.823C-83.057 680.833 -83.3539 679.678 -82.6057 679.173C-63.7148 666.385 -26.1386 669.486 -5.07804 743.887C12.375 805.534 25.3883 826.434 35.9209 837.996C36.6714 838.818 35.5048 839.982 34.6467 839.272C6.93688 816.273 -3.94411 774.583 -32.8183 718.081C-50.3742 683.727 -73.9926 680.746 -82.1545 680.823Z" fill="#1766C7" />
                <path d="M-108.644 725.84C-109.478 725.716 -109.712 724.597 -108.955 724.225C-86.8654 713.363 -65.1455 727.219 -32.5844 782.724C-11.1894 819.189 20.993 839.806 32.2457 846.224C33.0874 846.704 32.6058 847.992 31.6472 847.833C10.3668 844.326 -15.2739 828.773 -45.3685 789.668C-70.9484 756.431 -79.9567 730.097 -108.644 725.84Z" fill="#1766C7" />
                <path d="M-117.861 821.537C-118.672 821.766 -119.345 820.841 -118.807 820.191C-105.509 804.16 -81.9304 804.02 -46.1475 823.049C-13.8645 840.216 9.44052 851.979 23.8916 856.385C24.8666 856.682 24.5813 858.145 23.5643 858.082C0.836731 856.693 -23.1861 847.965 -49.2336 837.269C-77.5724 825.63 -96.5592 815.525 -117.861 821.537Z" fill="#1766C7" />
                <path d="M-96.2697 885.693C-96.6718 886.504 -97.8455 886.256 -97.9203 885.354C-99.6621 864.111 -72.6186 853.625 -39.508 858.26C-10.4164 862.332 6.534 866.448 19.4748 864.749C20.5082 864.613 20.8425 866.02 19.8722 866.401C-1.18838 874.681 -34.2429 870.906 -59.5212 871.785C-84.6382 872.659 -92.5523 878.171 -96.2697 885.693Z" fill="#1766C7" />
                <path d="M-57.835 933.579C-30.6676 938.418 -9.40592 921.219 5.71385 904.487C6.18846 903.963 5.61332 903.194 4.96569 903.477C-16.7098 912.967 -44.1461 915.134 -58.2745 932.42C-58.6089 932.829 -58.354 933.486 -57.835 933.579Z" fill="#1766C7" />
                <path d="M-44.9342 946.156C-16.8339 948.551 -0.956639 924.389 23.639 918.93C24.2071 918.804 24.6888 919.449 24.4105 919.964C7.96279 950.471 -24.0162 964.746 -45.4532 947.343C-45.9653 946.927 -45.5912 946.099 -44.9342 946.156Z" fill="#1766C7" />
                <path d="M117.751 868.445C107.758 877.776 72.5109 908.051 34.397 909.963C41.792 912.717 49.4489 914.257 57.1012 914.842C75.1201 910.148 99.524 896.2 118.899 869.457C119.13 869.136 119.081 868.692 118.784 868.43C118.487 868.169 118.041 868.173 117.751 868.445Z" fill="#E91C3C" />
                <path d="M63.5021 862.988C36.683 884.428 12.0056 886.314 1.54541 885.95C3.70104 888.647 5.95486 891.116 8.28583 893.388C31.654 891.361 50.5824 881.516 64.5823 864.071C64.8277 863.764 64.8044 863.323 64.5261 863.045C64.2503 862.769 63.8084 862.743 63.5021 862.988Z" fill="#E91C3C" />
                <path d="M24.3713 905.367C37.8662 903.324 67.3084 895.834 90.2815 868.584C90.534 868.284 90.5223 867.845 90.2535 867.56C89.9869 867.277 89.5497 867.237 89.2364 867.471C56.6075 891.711 28.2196 897.718 14.9375 899.179C17.9862 901.533 21.1402 903.583 24.3713 905.367Z" fill="#E91C3C" />


                <path d="M920.028 327.157C949.663 376.997 915.417 414.099 886.444 415.416C857.47 416.736 838.371 398.731 838.371 398.731C830.031 436.494 792.494 451.644 766.593 435.396C740.693 419.151 744.424 392.365 744.424 392.365C715.01 416.954 696.132 401.146 689.986 388.852C683.84 376.557 691.961 358.334 691.961 358.334C674.769 362.738 666.339 352.811 663.887 342.114C660.445 327.109 673.594 310.941 673.594 310.941L678.926 296.421L685.39 211.688C673.35 201.493 670.297 181.987 680.472 171.472C690.648 160.954 703.025 162.651 703.025 162.651C696.581 146.877 701.481 125.262 721.678 117.705C738.737 111.319 752.482 117.761 762.717 131.952C765.796 100.194 794.182 74.7078 832.446 91.1402C860.426 103.157 855.055 141.417 855.055 141.417C878.751 115.9 914.427 118.471 933.725 146.687C947.83 167.311 939.737 203.247 926.174 219.137" fill="#BC0A23" />
                <path d="M831.661 378.216C834.459 419.598 803.175 430.649 781.99 428.759C742.666 425.251 752.497 373.212 752.497 373.212C752.497 373.212 730.132 407.068 707.072 391.013C696.301 383.514 695.864 364.42 705.242 346.648C691.92 353.065 678.246 353.388 673.334 343.886C664.447 326.702 685.751 312.319 685.751 312.319L687.649 206.918C687.649 206.918 675.156 192.081 683.856 179.491C691.046 169.084 709.637 171.343 715.76 172.935C706.714 165.232 701.553 144.253 717.142 130.327C729.954 118.878 755.715 125.122 770.72 149.958C770.189 125.653 782.436 98.1744 816.656 100.311C848.93 102.326 851.189 134.885 852.545 156.826" fill="#E91C3C" />
                <path d="M800.96 395.856C873.01 395.856 931.42 337.437 931.42 265.37C931.42 193.305 873.01 134.886 800.96 134.886C728.91 134.886 670.5 193.305 670.5 265.37C670.5 337.437 728.91 395.856 800.96 395.856Z" fill="#BC0A23" />
                <path d="M772.58 367.458C827.837 367.458 872.633 322.653 872.633 267.385C872.633 212.116 827.837 167.311 772.58 167.311C717.322 167.311 672.527 212.116 672.527 267.385C672.527 322.653 717.322 367.458 772.58 367.458Z" fill="#E91C3C" />
                <path d="M678.925 317.556C708.154 317.556 731.85 293.856 731.85 264.621C731.85 235.386 708.154 211.688 678.925 211.688C649.696 211.688 626 235.388 626 264.621C626 293.856 649.696 317.556 678.925 317.556Z" fill="#BC0A23" />
                <path d="M-161.847 327.157C-191.481 376.997 -157.236 414.099 -128.262 415.416C-99.2882 416.736 -80.189 398.731 -80.189 398.731C-71.8496 436.494 -34.3123 451.644 -8.41158 435.396C17.4891 419.151 13.7578 392.365 13.7578 392.365C43.1713 416.954 62.0492 401.146 68.1952 388.852C74.3413 376.557 66.2203 358.334 66.2203 358.334C83.4128 362.738 91.843 352.811 94.2946 342.114C97.7365 327.109 84.5875 310.941 84.5875 310.941L79.2558 296.421L72.792 211.688C84.8315 201.493 87.8847 181.987 77.7094 171.472C67.5341 160.954 55.1569 162.651 55.1569 162.651C61.6009 146.877 56.7005 125.262 36.5032 117.705C19.4442 111.319 5.69931 117.761 -4.53555 131.952C-7.61424 100.194 -36.0006 74.7078 -74.2643 91.1402C-102.245 103.157 -96.8735 141.417 -96.8735 141.417C-120.569 115.9 -156.245 118.471 -175.543 146.687C-189.648 167.311 -181.556 203.247 -167.993 219.137" fill="#BC0A23" />
                <path d="M-73.4793 378.216C-76.2771 419.598 -44.9936 430.649 -23.8088 428.759C15.5161 425.251 5.68415 373.212 5.68415 373.212C5.68415 373.212 28.0493 407.068 51.1097 391.013C61.8808 383.514 62.3178 364.42 52.9399 346.648C66.262 353.065 79.9359 353.388 84.8476 343.886C93.7346 326.702 72.4307 312.319 72.4307 312.319L70.5324 206.918C70.5324 206.918 83.0259 192.081 74.3261 179.491C67.1359 169.084 48.5446 171.343 42.4213 172.935C51.4672 165.232 56.6286 144.253 41.0394 130.327C28.2281 118.878 2.46643 125.122 -12.5383 149.958C-12.0077 125.653 -24.2543 98.1744 -58.4746 100.311C-90.7483 102.326 -93.0069 134.885 -94.3633 156.826" fill="#E91C3C" />
                <path d="M-42.7785 395.856C-114.828 395.856 -173.238 337.437 -173.238 265.37C-173.238 193.305 -114.828 134.886 -42.7785 134.886C29.2713 134.886 87.6812 193.305 87.6812 265.37C87.6812 337.437 29.2713 395.856 -42.7785 395.856Z" fill="#BC0A23" />
                <path d="M-14.3981 367.458C-69.6556 367.458 -114.451 322.653 -114.451 267.385C-114.451 212.116 -69.6555 167.311 -14.3981 167.311C40.8594 167.311 85.655 212.116 85.655 267.385C85.655 322.653 40.8594 367.458 -14.3981 367.458Z" fill="#E91C3C" />
                <path d="M79.2566 317.556C50.0275 317.556 26.3315 293.856 26.3315 264.621C26.3315 235.386 50.0275 211.688 79.2566 211.688C108.486 211.688 132.182 235.388 132.182 264.621C132.182 293.856 108.486 317.556 79.2566 317.556Z" fill="#BC0A23" />
            </g>
        </g>
        <path d="M-122.671 1025.51C-25.5777 1035.78 19.1253 1117.29 81.8133 1121.25C144.501 1125.21 148.404 1082.01 199.2 1107.18C181.703 1005.05 -11.9085 993.314 -122.671 1025.51Z" fill="#2F9D65" />
        <path d="M-32.0786 1029.8C-32.0786 1029.8 61.2427 1023.8 145.019 1069.38C64.0004 1045.88 -5.255 1035.39 -32.0786 1029.8Z" fill="#0F704D" />
        <path d="M733.814 1048.66C624.503 986.398 460.454 987.557 439.498 1067.87C477.243 1048.27 502.801 1100.23 563.507 1079.12C616.859 1060.57 664.686 1032.12 733.814 1048.66Z" fill="#0F704D" />
        <path d="M653.239 1034.47C653.239 1034.47 487.367 1011.91 509.915 1052.95C530.356 1030.03 639.559 1032.62 653.239 1034.47Z" fill="#2F9D65" />
        <path d="M-12.8667 1006.26C114.218 983.15 346.014 1016.14 342.81 1100.95C310.542 1074.04 279.115 1117.47 224.05 1084.66C175.657 1055.83 54.7462 1001.48 -12.8667 1006.26Z" fill="#0F704D" />
        <path d="M110.56 1011C110.56 1011 270.13 1036.87 243.386 1072.92C227.141 1042.95 123.719 1013.14 110.56 1011Z" fill="#2F9D65" />
        <path d="M892.561 1022.15C795.004 1026.01 738.041 1103.17 675.256 1103.48C612.471 1103.79 594.038 1085.26 541.5 1103.48C566.677 1020.72 784.596 990.613 892.561 1022.15Z" fill="#2F9D65" />
        <path d="M840.646 1026.71C840.646 1026.71 747.825 1011.65 662.042 1050.04C744.009 1033.88 813.614 1029.83 840.646 1026.71Z" fill="#0F704D" />
        <path d="M324.6 1044.73C346.166 1032.28 353.555 1004.7 341.104 983.128C328.653 961.558 301.076 954.167 279.511 966.621C257.944 979.075 250.555 1006.66 263.006 1028.23C275.457 1049.8 303.034 1057.19 324.6 1044.73Z" fill="#1766C7" />
        <path d="M326.2 1026.2C340.474 1017.96 345.365 999.704 337.123 985.428C328.882 971.151 310.629 966.259 296.356 974.502C282.081 982.744 277.191 1001 285.432 1015.28C293.673 1029.56 311.925 1034.45 326.2 1026.2Z" fill="#5991DB" />
        <path d="M347.618 1001.71C355.074 997.401 357.629 987.866 353.325 980.408C349.02 972.95 339.485 970.395 332.029 974.701C324.573 979.006 322.019 988.543 326.323 996C330.628 1003.46 340.163 1006.01 347.618 1001.71Z" fill="#1766C7" />
        <path d="M217.933 1032.97C226.028 1046.99 243.957 1051.79 257.979 1043.7C272 1035.6 276.804 1017.68 268.709 1003.66C260.613 989.641 242.684 984.838 228.663 992.931C214.642 1001.03 209.837 1018.95 217.933 1032.97Z" fill="#5991DB" />
        <path d="M229.979 1034.01C235.337 1043.29 247.204 1046.47 256.484 1041.11C265.765 1035.75 268.944 1023.89 263.586 1014.61C258.228 1005.33 246.361 1002.15 237.081 1007.51C227.8 1012.87 224.62 1024.73 229.979 1034.01Z" fill="#1766C7" />
        <path d="M245.901 1047.93C248.7 1052.78 254.899 1054.44 259.747 1051.64C264.594 1048.84 266.255 1042.64 263.456 1037.8C260.658 1032.95 254.459 1031.29 249.611 1034.09C244.763 1036.89 243.102 1043.09 245.901 1047.93Z" fill="#5991DB" />
    </g>
    <defs>
        <clipPath id="clip0_88_1327">
            <rect width="768" height="1125" fill="white" />
        </clipPath>
        <clipPath id="clip1_88_1327">
            <rect width="1440" height="1024" fill="white" transform="translate(-338 -2)" />
        </clipPath>
        <clipPath id="clip2_88_1327">
            <rect width="2081.03" height="1864.01" fill="white" transform="translate(-652 -363)" />
        </clipPath>
    </defs>
</svg>