<svg xmlns="http://www.w3.org/2000/svg" width="768" height="297" viewBox="0 0 768 297" fill="none">
    <path d="M218.305 77.7103C218.606 78.4557 218.924 79.1869 219.258 79.9091C233.171 112.06 262.616 132.942 295.212 137.302C311.608 159.937 341.863 169.413 368.95 158.48C383.95 152.425 395.302 141.191 401.781 127.674C416.698 134.349 434.203 135.186 450.553 128.587C453.538 127.382 456.377 125.971 459.064 124.379C459.358 131.293 460.813 138.275 463.554 145.059C476.434 176.937 512.728 192.346 544.617 179.474C550.934 176.924 556.6 173.454 561.53 169.284C577.393 198.299 612.832 211.482 644.25 198.8C667.27 189.508 682.158 168.718 685.054 145.727C705.28 151.727 727.593 151.206 748.676 142.696C749.516 142.357 750.351 141.988 751.185 141.609C798.965 120.759 821.749 65.5589 802.101 16.9304C782.108 -32.5506 725.774 -56.4637 676.277 -36.4849C652.333 -26.8203 634.4 -8.64479 624.501 13.1367L372.865 -30.0485C346.261 -54.1271 307.238 -62.3881 271.729 -48.0556C222.975 -28.3769 199.07 26.5405 217.463 75.4665C217.724 76.2181 218.003 76.9648 218.305 77.7103Z" fill="#1766C7" />
    <path d="M600.485 87.094C605.013 103.134 600.401 139.266 559.718 169.772C556.512 172.173 553.597 171.19 552.36 169.626C567.295 159.174 578.919 137.553 578.919 137.553C588.545 120.136 589.66 102.165 586.522 91.0297C579.162 64.9396 555.485 43.4655 534.82 44.1329C511.204 44.8998 493.706 59.8348 492.274 80.4773C491.229 95.6291 502.72 108.809 517.89 109.857C528.272 110.573 537.307 102.719 538.025 92.3552C538.493 85.5737 533.351 79.6788 526.562 79.2079C522.566 78.9328 519.547 75.4728 519.826 71.4764C520.099 67.475 523.574 64.4636 527.564 64.7388C542.331 65.7624 553.517 78.5921 552.497 93.3516C551.231 111.698 535.253 125.595 516.89 124.329C493.732 122.728 476.198 102.608 477.802 79.476C478.682 66.7221 484.137 55.4174 492.752 46.8056C502.963 36.5975 517.622 30.1794 534.352 29.6391C561.632 28.7526 591.301 54.5278 600.485 87.094Z" fill="#5991DB" />
    <path d="M678.745 131.487C667.583 125.241 650.476 103.137 655.991 64.5241C656.427 61.483 658.542 60.4352 660.062 60.613C657.632 74.3827 663.06 92.4164 663.06 92.4164C667.29 107.086 676.439 117.44 684.184 121.779C702.337 131.942 726.837 130.752 737.686 119.183C750.081 105.96 751.469 88.3679 741.043 76.3922C733.386 67.6056 719.999 66.6871 711.201 74.345C705.179 79.5868 704.541 88.7477 709.775 94.7598C713.202 98.6925 719.191 99.1019 723.13 95.6757C725.447 93.6582 728.963 93.8979 730.98 96.2171C733.004 98.5363 732.753 102.054 730.439 104.069C721.872 111.522 708.841 110.628 701.383 102.068C692.113 91.4279 693.239 75.2231 703.889 65.9517C717.321 54.2615 737.753 55.6676 749.438 69.0871C755.882 76.4837 759.058 85.5747 759.058 94.9188C759.058 105.995 754.589 117.427 745.806 126.792C731.487 142.068 701.402 144.174 678.745 131.487Z" fill="#5991DB" />
    <path d="M-112.221 56.8027C-111.94 57.4987 -111.644 58.1813 -111.332 58.8555C-98.3488 88.8711 -70.8673 108.364 -40.4424 112.431C-25.1407 133.562 3.09779 142.406 28.3823 132.195C42.3837 126.541 52.9806 116.052 59.0294 103.431C72.952 109.661 89.2912 110.441 104.553 104.278C107.339 103.153 109.99 101.836 112.497 100.349C112.771 106.804 114.128 113.322 116.686 119.655C128.705 149.416 162.58 163.798 192.347 151.778C198.243 149.397 203.532 146.156 208.134 142.262C222.937 169.349 256.014 181.654 285.341 169.811C306.829 161.133 320.728 141.721 323.433 120.256C342.311 125.855 363.138 125.367 382.818 117.42C383.602 117.103 384.382 116.758 385.16 116.404C429.759 96.9328 451.032 45.3943 432.697 -0.00440207C414.041 -46.1991 361.463 -68.519 315.26 -49.8611C292.91 -40.8355 276.169 -23.8644 266.927 -3.52764L32.0561 -43.82C7.22618 -66.2976 -29.1966 -74.0062 -62.3419 -60.6212C-107.85 -42.2435 -130.17 9.03135 -113.007 54.708C-112.763 55.4096 -112.502 56.1068 -112.221 56.8027Z" fill="#1766C7" />
    <path d="M114.516 114.583C109.118 101.166 109.562 70.4143 141.243 43.1444C143.74 40.9982 146.316 41.7266 147.519 43.0064C135.816 52.3849 128.008 71.1015 128.008 71.1015C121.493 86.1873 122.276 101.441 126.019 110.756C134.795 132.581 157.013 149.919 174.534 148.62C194.556 147.132 208.008 133.867 207.238 116.341C206.668 103.477 195.62 92.7282 182.61 92.3794C173.706 92.1418 166.774 99.1122 167.161 107.911C167.416 113.668 172.36 118.476 178.182 118.634C181.609 118.725 184.511 121.546 184.659 124.939C184.812 128.336 182.146 131.009 178.723 130.918C166.058 130.576 155.304 120.112 154.75 107.581C154.06 92.0053 166.318 79.6731 182.066 80.093C201.927 80.6259 218.787 97.0351 219.65 116.675C220.129 127.503 216.577 137.266 210.075 144.863C202.369 153.867 190.513 159.821 176.328 160.873C153.199 162.592 125.469 141.826 114.516 114.583Z" fill="#5991DB" />
</svg>