<svg xmlns="http://www.w3.org/2000/svg" width="1920" height="386" viewBox="0 0 1920 386" fill="none">
    <path d="M441.046 -67.683C441.07 -66.5738 441.065 -65.4735 441.034 -64.3758C440.885 -16.0314 414.906 26.4636 375.94 49.716C367.464 87.3413 334.252 115.809 293.95 116.669C271.633 117.145 251.124 109.067 235.552 95.4447C220.267 112.022 198.523 122.601 174.197 123.119C169.756 123.214 165.388 122.969 161.114 122.41C164.504 131.34 166.458 140.986 166.673 151.081C167.685 198.517 130.043 237.795 82.5969 238.806C73.1982 239.007 64.1244 237.686 55.6036 235.077C51.2743 280.503 13.5051 316.492 -33.2394 317.489C-67.4896 318.22 -97.6829 299.943 -113.865 272.356C-136.252 290.963 -164.831 302.434 -196.199 303.103C-197.449 303.13 -198.709 303.115 -199.973 303.088C-271.912 302.619 -330.843 244.992 -332.386 172.629C-333.957 98.9981 -275.528 38.0392 -201.885 36.4688C-166.261 35.7091 -133.628 49.0127 -109.223 71.2582L186.399 -120.33C207.036 -165.336 252.029 -197.03 304.859 -198.157C377.396 -199.703 437.596 -143.044 440.893 -70.9867C440.97 -69.8914 441.023 -68.7923 441.046 -67.683Z" fill="#1766C7" />
    <path d="M388.884 46.0022C377.054 -1.78468 328.716 -30.9361 280.919 -19.1044C235.043 -7.74814 206.448 37.2331 214.671 83.0829C210.686 83.6518 206.688 84.4264 202.697 85.4144C163.162 95.2009 133.215 123.707 119.881 159.14C99.2406 136.525 67.1785 125.638 35.3653 133.513C-10.8857 144.962 -39.0982 191.726 -27.6514 237.968C-16.2055 284.206 30.5646 312.409 76.8156 300.96C99.6047 295.319 117.983 281.081 129.427 262.579C155.691 306.001 208.026 329.302 259.891 316.463C323.705 300.667 362.637 236.138 346.844 172.337C344.799 164.077 341.903 156.252 338.33 148.891C377.256 131.744 399.452 88.6959 388.884 46.0022Z" fill="#5991DB" />
    <path d="M325.59 35.8951C325.936 36.7506 326.301 37.5897 326.685 38.4184C342.669 75.3141 376.482 99.2837 413.908 104.297C432.74 130.275 467.479 141.157 498.575 128.62C515.795 121.678 528.825 108.791 536.259 93.2825C553.388 100.946 573.486 101.912 592.256 94.345C595.682 92.9635 598.942 91.3462 602.026 89.5197C602.366 97.4537 604.038 105.465 607.188 113.25C621.986 149.832 663.66 167.524 700.269 152.765C707.521 149.841 714.025 145.861 719.684 141.078C737.906 174.375 778.598 189.513 814.666 174.971C841.094 164.317 858.18 140.466 861.497 114.086C884.721 120.976 910.339 120.386 934.543 110.628C935.507 110.239 936.466 109.815 937.423 109.381C992.273 85.4718 1018.42 22.1405 995.841 -33.6638C972.871 -90.4464 908.186 -117.903 851.364 -94.9938C823.876 -83.9118 803.292 -63.0621 791.934 -38.0723L503.011 -87.7031C472.458 -115.34 427.652 -124.831 386.888 -108.397C330.919 -85.8318 303.49 -22.8249 324.623 33.3203C324.923 34.1827 325.244 35.0397 325.59 35.8951Z" fill="#1766C7" />
    <path d="M602.97 107.017C596.331 90.5313 596.882 52.7467 635.857 19.2364C638.929 16.5991 642.097 17.4937 643.577 19.0661C629.18 30.5908 619.572 53.5889 619.572 53.5889C611.557 72.1257 612.519 90.8676 617.122 102.313C627.915 129.128 655.244 150.429 676.798 148.831C701.429 147 717.978 130.7 717.033 109.166C716.332 93.3604 702.743 80.1543 686.739 79.7272C675.786 79.4363 667.258 88.0016 667.733 98.8126C668.046 105.887 674.127 111.793 681.29 111.986C685.505 112.098 689.075 115.565 689.257 119.734C689.444 123.908 686.164 127.192 681.954 127.08C666.374 126.661 653.145 113.806 652.465 98.4092C651.618 79.2708 666.699 64.1166 686.072 64.6309C710.504 65.2834 731.242 85.4436 732.301 109.575C732.89 122.879 728.519 134.876 720.52 144.211C711.038 155.275 696.453 162.592 679.004 163.886C650.551 166.001 616.441 140.489 602.97 107.017Z" fill="#5991DB" />
    <path d="M848.448 42.2944C848.816 43.2044 849.203 44.0971 849.611 44.9787C866.58 84.2296 902.506 109.717 942.282 115.03C962.284 142.663 999.202 154.223 1032.26 140.866C1050.57 133.47 1064.42 119.75 1072.33 103.244C1090.53 111.39 1111.9 112.407 1131.85 104.345C1135.49 102.873 1138.96 101.15 1142.24 99.2048C1142.59 107.647 1144.37 116.171 1147.71 124.453C1163.42 163.37 1207.7 182.173 1246.62 166.448C1254.33 163.333 1261.25 159.095 1267.26 154.002C1286.61 189.423 1329.86 205.509 1368.2 190.016C1396.3 178.664 1414.47 153.276 1418.01 125.205C1442.69 132.524 1469.92 131.882 1495.65 121.485C1496.67 121.071 1497.69 120.62 1498.71 120.157C1557.02 94.6862 1584.84 27.2832 1560.88 -32.0841C1536.5 -92.4923 1467.76 -121.673 1407.35 -97.2652C1378.13 -85.4583 1356.24 -63.2616 1344.15 -36.6646L1037.09 -89.3188C1004.63 -118.71 957.016 -128.785 913.679 -111.275C854.179 -87.2343 824.991 -20.1758 847.422 39.5551C847.74 40.4726 848.081 41.3843 848.448 42.2944Z" fill="#1766C7" />
    <path d="M1407.86 107.883C1394.24 100.255 1373.37 73.2633 1380.09 26.1111C1380.63 22.3975 1383.21 21.1179 1385.06 21.335C1382.1 38.15 1388.72 60.1719 1388.72 60.1719C1393.88 78.0854 1405.05 90.7295 1414.5 96.0286C1436.65 108.439 1466.55 106.985 1479.78 92.8577C1494.91 76.7105 1496.6 55.2281 1483.88 40.6038C1474.54 29.8741 1458.2 28.7524 1447.46 38.1039C1440.12 44.5049 1439.34 55.6918 1445.73 63.0336C1449.91 67.836 1457.22 68.3359 1462.02 64.1519C1464.85 61.6882 1469.14 61.981 1471.6 64.8131C1474.07 67.6452 1473.76 71.941 1470.94 74.4014C1460.49 83.5029 1444.58 82.4109 1435.49 71.9575C1424.17 58.9647 1425.55 39.1762 1438.54 27.8544C1454.93 13.5789 1479.87 15.2959 1494.12 31.6832C1501.99 40.7156 1505.86 51.817 1505.86 63.2276C1505.86 76.7533 1500.41 90.7131 1489.69 102.15C1472.22 120.804 1435.51 123.376 1407.86 107.883Z" fill="#5991DB" />
    <path d="M1195.6 -60.9721C1215.86 -10.7889 1191.6 46.3298 1141.41 66.6C1093.23 86.0559 1038.77 64.4272 1016.54 18.2938C1012.63 20.3551 1008.57 22.2424 1004.38 23.935C962.859 40.7014 917.815 34.6164 883.101 11.6547C879.296 45.0993 857.759 75.4613 824.35 88.9531C775.78 108.568 720.512 85.1045 700.901 36.544C681.292 -12.0132 704.766 -67.2763 753.337 -86.8912C777.269 -96.5559 802.814 -95.7209 824.931 -86.6201C820.333 -142.219 851.924 -196.704 906.39 -218.7C973.403 -245.763 1049.67 -213.388 1076.73 -146.388C1080.23 -137.713 1082.69 -128.878 1084.26 -120.02C1129.97 -129.838 1177.49 -105.807 1195.6 -60.9721Z" fill="#5991DB" />
    <path d="M1489.99 -60.6832C1489.97 -59.5739 1489.98 -58.4736 1490.01 -57.376C1490.16 -9.03154 1516.14 33.4635 1555.1 56.7159C1563.58 94.3412 1596.79 122.809 1637.09 123.669C1659.41 124.145 1679.92 116.067 1695.49 102.445C1710.77 119.021 1732.52 129.6 1756.84 130.119C1761.28 130.214 1765.65 129.969 1769.93 129.41C1766.54 138.34 1764.58 147.986 1764.37 158.081C1763.36 205.517 1801 244.795 1848.44 245.806C1857.84 246.007 1866.92 244.685 1875.44 242.077C1879.77 287.503 1917.54 323.492 1964.28 324.489C1998.53 325.219 2028.72 306.943 2044.91 279.356C2067.29 297.963 2095.87 309.434 2127.24 310.103C2128.49 310.129 2129.75 310.115 2131.01 310.088C2202.95 309.619 2261.88 251.992 2263.43 179.629C2265 105.998 2206.57 45.0391 2132.93 43.4687C2097.3 42.709 2064.67 56.0126 2040.26 78.258L1744.64 -113.33C1724.01 -158.336 1679.01 -190.03 1626.18 -191.157C1553.65 -192.704 1493.45 -136.044 1490.15 -63.9868C1490.07 -62.8915 1490.02 -61.7924 1489.99 -60.6832Z" fill="#1766C7" />
    <path d="M1538.16 53.0022C1549.99 5.21532 1598.32 -23.9361 1646.12 -12.1044C1692 -0.748144 1720.59 44.2331 1712.37 90.0829C1716.35 90.6518 1720.35 91.4264 1724.34 92.4144C1763.88 102.201 1793.83 130.707 1807.16 166.14C1827.8 143.525 1859.86 132.638 1891.67 140.513C1937.93 151.962 1966.14 198.726 1954.69 244.968C1943.25 291.206 1896.48 319.409 1850.22 307.96C1827.44 302.319 1809.06 288.081 1797.61 269.579C1771.35 313.001 1719.01 336.302 1667.15 323.463C1603.34 307.667 1564.4 243.138 1580.2 179.337C1582.24 171.077 1585.14 163.252 1588.71 155.891C1549.78 138.744 1527.59 95.6959 1538.16 53.0022Z" fill="#5991DB" />
</svg>