<svg xmlns="http://www.w3.org/2000/svg" width="375" height="125" viewBox="0 0 375 125" fill="none">
    <g clip-path="url(#clip0_97_1389)">
        <path d="M199.553 43.7375C199.732 44.1808 199.921 44.6159 200.119 45.0457C208.383 64.1751 225.472 76.7726 244.23 79.6275C253.84 93.1514 271.296 99.0114 286.76 92.7764C295.324 89.3238 301.748 82.7774 305.353 74.8395C313.977 78.9133 324.038 79.5568 333.372 75.7935C335.076 75.1064 336.695 74.2966 338.224 73.3778C338.452 77.4688 339.347 81.6094 340.979 85.644C348.648 104.603 369.623 114.023 387.829 106.682C391.435 105.228 394.66 103.224 397.456 100.801C406.813 118.092 427.279 126.188 445.215 118.956C458.357 113.658 466.731 101.49 468.198 87.9205C479.865 91.6397 492.676 91.5215 504.712 86.6685C505.192 86.4752 505.668 86.2638 506.144 86.0468C533.407 74.1238 546.023 41.6772 534.325 12.756C522.421 -16.6723 489.864 -31.2907 461.607 -19.8975C447.937 -14.3861 437.792 -3.79107 432.293 9.00441L287.404 -18.6684C271.919 -33.1322 249.437 -38.3484 229.166 -30.1751C201.333 -18.953 188.071 13.3171 199.051 42.4036C199.207 42.8502 199.374 43.2941 199.553 43.7375Z" fill="#5991DB" />
        <path d="M-81.7252 39.4137C-81.5381 39.8778 -81.3406 40.3331 -81.1329 40.7827C-72.4875 60.8005 -54.1765 73.7956 -33.9 76.5009C-23.707 90.5923 -4.88888 96.4842 11.9652 89.6673C21.2982 85.8923 28.3634 78.893 32.3979 70.4731C41.6755 74.6255 52.565 75.1415 62.738 71.0268C64.5952 70.2756 66.3622 69.3966 68.0337 68.404C68.2146 72.7099 69.1177 77.0572 70.8208 81.281C78.8239 101.129 101.397 110.714 121.239 102.689C125.169 101.099 128.695 98.9359 131.763 96.3377C141.623 114.402 163.665 122.601 183.213 114.694C197.537 108.901 206.804 95.9488 208.613 81.6306C221.193 85.3606 235.074 85.0297 248.192 79.7238C248.715 79.5124 249.235 79.2821 249.753 79.0458C279.483 66.0472 293.673 31.6646 281.465 1.38728C269.042 -29.4209 234.005 -44.2958 203.208 -31.8391C188.31 -25.8133 177.148 -14.4891 170.984 -0.921773L14.4572 -27.7395C-2.08583 -42.7264 -26.3589 -47.8591 -48.4528 -38.9229C-78.7877 -26.6533 -93.6756 7.5536 -82.2482 38.0166C-82.0859 38.4846 -81.9124 38.9496 -81.7252 39.4137Z" fill="#1766C7" />
        <path d="M156.027 45.1757C158.843 55.1679 155.974 77.6767 130.668 96.6806C128.674 98.1761 126.861 97.564 126.092 96.5899C135.382 90.0788 142.612 76.6095 142.612 76.6095C148.6 65.7598 149.293 54.5642 147.341 47.6276C142.763 31.3745 128.035 17.9971 115.181 18.4128C100.492 18.8905 89.6073 28.1944 88.7163 41.0538C88.0666 50.4928 95.2142 58.7031 104.65 59.3562C111.108 59.8025 116.728 54.9093 117.175 48.4533C117.466 44.2287 114.267 40.5564 110.044 40.263C107.559 40.0917 105.681 37.9363 105.854 35.4466C106.024 32.9539 108.186 31.078 110.668 31.2494C119.853 31.8871 126.811 39.8794 126.177 49.074C125.39 60.503 115.451 69.1605 104.028 68.3714C89.6234 67.374 78.7166 54.8405 79.7144 40.43C80.262 32.4849 83.6546 25.4425 89.0134 20.0777C95.3655 13.7186 104.484 9.72035 114.89 9.38374C131.859 8.83153 150.314 24.8884 156.027 45.1757Z" fill="#5991DB" />
        <path d="M204.706 72.8306C197.763 68.9393 187.122 55.1696 190.552 31.1154C190.824 29.2209 192.139 28.5682 193.085 28.6789C191.573 37.2569 194.95 48.4911 194.95 48.4911C197.581 57.6295 203.272 64.0798 208.09 66.783C219.381 73.1141 234.621 72.3725 241.369 65.1654C249.079 56.9281 249.942 45.9691 243.457 38.5087C238.695 33.035 230.368 32.4628 224.894 37.2334C221.149 40.4988 220.752 46.2057 224.008 49.951C226.14 52.4009 229.865 52.6559 232.315 50.5215C233.756 49.2647 235.943 49.414 237.198 50.8588C238.457 52.3035 238.301 54.495 236.861 55.7502C231.532 60.3932 223.426 59.8361 218.788 54.5034C213.021 47.8753 213.722 37.7804 220.346 32.0047C228.702 24.7222 241.411 25.5981 248.679 33.9579C252.687 38.5657 254.663 44.229 254.663 50.05C254.663 56.9499 251.883 64.0714 246.42 69.9058C237.513 79.4218 218.8 80.734 204.706 72.8306Z" fill="#5991DB" />
    </g>
    <defs>
        <clipPath id="clip0_97_1389">
            <rect width="375" height="125" fill="white" />
        </clipPath>
    </defs>
</svg>