<svg xmlns="http://www.w3.org/2000/svg" width="375" height="906" viewBox="0 0 375 906" fill="none">
    <g clip-path="url(#clip0_88_1328)">
        <g clip-path="url(#clip1_88_1328)">
            <path d="M-231.951 771.649C-231.58 770.838 -231.19 770.044 -230.782 769.261C-213.713 734.341 -179.562 712.88 -142.541 709.979C-123.064 685.788 -88.4752 677.059 -58.3206 690.835C-41.6223 698.464 -29.2636 711.634 -22.5075 727.052C-5.37006 720.52 14.4481 720.635 32.6492 728.95C35.9722 730.468 39.1223 732.206 42.0915 734.138C42.7132 726.466 44.65 718.79 48.0317 711.41C63.9227 676.733 105.584 661.766 141.085 677.984C148.117 681.197 154.375 685.395 159.772 690.326C178.914 659.01 219.516 646.468 254.492 662.446C280.119 674.154 296.073 698.162 298.383 723.9C321.493 718.437 346.687 720.349 370.158 731.071C371.093 731.498 372.021 731.959 372.948 732.43C426.072 758.469 449.51 821.211 425.269 874.111C400.603 927.938 335.938 951.163 280.836 925.99C254.181 913.813 234.675 892.531 224.4 867.719L-61.7893 900.707C-92.8638 925.892 -137.31 932.747 -176.84 914.688C-231.114 889.894 -255.831 827.399 -232.997 774.093C-232.67 773.273 -232.323 772.46 -231.951 771.649Z" fill="#2F9D65" />
            <path d="M-284.35 576.845C-283.513 576.357 -282.67 575.896 -281.818 575.455C-244.821 555.111 -201.354 556.955 -167.088 576.853C-134.753 567.4 -98.9392 580.7 -81.2157 611.094C-71.4012 627.925 -68.8868 646.996 -72.7 664.645C-53.5626 669.295 -36.272 681.414 -25.5743 699.759C-23.6212 703.109 -21.9583 706.546 -20.576 710.044C-15.189 703.679 -8.64664 698.105 -1.02553 693.669C34.7867 672.823 80.7346 684.93 101.6 720.713C105.733 727.801 108.567 735.285 110.182 742.892C146.72 726.973 190.21 740.568 210.767 775.821C225.83 801.652 224.653 832.429 210.43 856.453C234.126 865.665 254.992 882.623 268.787 906.279C269.337 907.222 269.859 908.19 270.374 909.166C300.48 964.267 281.411 1033.63 226.78 1065.43C171.192 1097.79 99.8769 1078.99 67.4906 1023.45C51.824 996.585 48.1684 966.05 54.8281 938.01L-216.733 793.469C-259.856 796.764 -303.124 775.838 -326.357 735.995C-358.257 681.29 -340.464 611.369 -286.809 578.36C-286.005 577.837 -285.188 577.332 -284.35 576.845Z" fill="#0F704D" />
            <path d="M131.142 525.531C133.502 513.599 125.139 510.264 112.935 511.793C92.2045 514.389 85.4336 506.62 85.4336 506.62C86.2856 526.103 98.0586 532.505 118.548 531.409C125.659 530.069 131.142 525.531 131.142 525.531Z" fill="#5991DB" />
            <path d="M-3.39817 485.803C13.1157 557.22 -60.0241 538.781 -56.5225 627.693C-53.8404 695.804 0.586207 712.432 10.0608 751.4C50.9636 745.392 51.4734 719.108 55.2578 704.816C62.5583 688.791 67.7099 655.56 67.7099 655.56C45.3833 631.762 74.6861 608.13 59.3809 554.952C42.5842 496.594 -3.39817 485.803 -3.39817 485.803Z" fill="#5991DB" />
            <path d="M162.247 770.829C152.767 765.647 130.197 769.118 109.737 782.062C111.227 777.216 112.5 771.942 113.264 768.582C126.636 764.549 135.298 750.161 136.523 736.654C165.896 721.024 195.352 668.739 163.722 607.398C132.092 546.058 135.675 536.323 156.076 521.409C156.076 521.409 157.038 520.72 156.487 519.749C155.824 518.576 153.927 519.682 153.927 519.682C142.793 526.188 133.931 519.265 124.758 522.673C115.112 526.257 102.359 530.969 100.444 586.922C99.6337 610.667 92.1279 628.525 83.4044 641.413C78.4708 648.702 49.1374 712.992 49.1374 712.992C49.1374 712.992 59.7053 729.293 70.8839 737.06C64.5687 745.04 53.718 751.866 53.5325 751.983L53.5252 751.987C50.7801 753.584 45.9078 755.994 38.3569 758.354L36.5394 758.923C35.5289 759.239 35.4263 760.626 36.3791 761.087L38.0939 761.916C52.9074 769.086 61.7858 776.743 64.4805 784.676C66.1106 789.475 65.21 796.525 62.7819 800C70.1778 799.446 70.1004 789.266 68.1244 783.442C65.318 775.184 57.3745 767.668 43.8976 760.545C49.5859 758.496 53.4334 756.521 55.802 755.113L55.8092 755.124C66.9013 760.058 85.1985 759.358 96.5409 744.462L109.143 744.462C109.143 744.462 111.713 757.446 109.494 767.798C108.435 772.433 106.403 780.713 104.263 786.167L103.326 788.556C102.899 789.641 104.153 790.608 105.099 789.928L107.181 788.425C127.317 773.905 151.385 769.269 160.399 774.198C162.71 775.463 163.663 777.198 163.63 779.654C167.033 777.88 165.835 772.791 162.247 770.829Z" fill="#001229" />
            <path d="M25.8237 696.027C63.5113 681.071 63.5113 629.242 110.012 631.174C152.192 632.928 147.138 682.069 126.099 700.747C108.226 716.618 55.566 733.241 25.8237 696.027Z" fill="#FA85BD" />
            <path d="M-19.8974 500.573C-20.4792 500.338 -20.4774 499.483 -19.8686 499.327C-4.61022 495.404 22.8841 504.398 41.3505 538.76C68.6269 589.515 42.7951 622.933 59.0658 654.566C59.4171 655.248 58.5021 655.895 57.9833 655.329C38.4865 634.011 49.6075 592.47 33.6898 555.955C25.2762 536.654 14.3732 514.475 -19.8974 500.573Z" fill="#1766C7" />
            <path d="M-38.6129 538.234C-39.3082 538.241 -39.5369 537.352 -38.9605 536.964C-24.4064 527.123 4.54331 529.51 20.769 586.763C34.2153 634.203 44.2411 650.286 52.3558 659.183C52.934 659.816 52.0351 660.712 51.3741 660.165C30.0256 642.467 21.6426 610.385 -0.602858 566.905C-14.1285 540.468 -32.3247 538.175 -38.6129 538.234Z" fill="#1766C7" />
            <path d="M-59.0207 572.876C-59.6638 572.78 -59.8439 571.919 -59.2603 571.633C-42.2421 563.274 -25.5084 573.937 -0.422403 616.649C16.0609 644.71 40.8551 660.576 49.5245 665.515C50.173 665.884 49.8019 666.875 49.0634 666.753C32.6684 664.054 12.9141 652.085 -10.2716 621.993C-29.9791 596.416 -36.9194 576.151 -59.0207 572.876Z" fill="#1766C7" />
            <path d="M-66.1218 646.517C-66.7468 646.694 -67.2656 645.981 -66.8513 645.481C-56.6058 633.145 -38.4402 633.037 -10.872 647.681C13.9997 660.891 31.9546 669.943 43.0881 673.334C43.8392 673.562 43.6195 674.688 42.8359 674.64C25.326 673.571 6.81808 666.854 -13.2497 658.623C-35.0826 649.667 -49.7106 641.891 -66.1218 646.517Z" fill="#1766C7" />
            <path d="M-49.4872 695.887C-49.7971 696.511 -50.7013 696.321 -50.7589 695.626C-52.1009 679.279 -31.2658 671.21 -5.75644 674.777C16.6565 677.91 29.7156 681.078 39.6856 679.77C40.4817 679.666 40.7393 680.749 39.9918 681.042C23.7661 687.413 -1.70002 684.508 -21.1752 685.184C-40.526 685.857 -46.6232 690.099 -49.4872 695.887Z" fill="#1766C7" />
            <path d="M-32.1464 715.931C-27.9297 700.301 -14.6598 698.362 21.1869 696.267C21.6714 696.24 21.9794 696.832 21.6336 697.172C9.93445 708.599 -20.9012 715.319 -31.6132 716.588C-31.9681 716.629 -32.2401 716.275 -32.1464 715.931Z" fill="#1766C7" />
            <path d="M-19.8763 732.737C1.05427 736.461 17.4348 723.225 29.0835 710.35C29.4492 709.947 29.0061 709.355 28.5071 709.572C11.8077 716.876 -9.32995 718.543 -20.2149 731.845C-20.4725 732.16 -20.2762 732.665 -19.8763 732.737Z" fill="#1766C7" />
            <path d="M-9.93688 742.415C11.7124 744.259 23.9447 725.665 42.8938 721.465C43.3315 721.367 43.7026 721.864 43.4883 722.26C30.8164 745.736 6.17892 756.721 -10.3368 743.329C-10.7312 743.009 -10.443 742.372 -9.93688 742.415Z" fill="#1766C7" />
            <path d="M115.4 682.614C107.702 689.795 80.5461 713.093 51.1821 714.564C56.8795 716.683 62.7786 717.869 68.6741 718.318C82.5563 714.706 101.358 703.973 116.285 683.393C116.463 683.147 116.425 682.805 116.197 682.603C115.968 682.402 115.624 682.405 115.4 682.614Z" fill="#E91C3C" />
            <path d="M73.6052 678.415C52.9431 694.914 33.9309 696.366 25.8721 696.085C27.5328 698.161 29.2692 700.06 31.0651 701.809C49.0686 700.249 63.6515 692.673 74.4374 679.248C74.6265 679.013 74.6085 678.673 74.3942 678.459C74.1816 678.246 73.8412 678.227 73.6052 678.415Z" fill="#E91C3C" />
            <path d="M43.458 711.027C53.8548 709.455 76.538 703.691 94.2371 682.721C94.4316 682.491 94.4226 682.153 94.2155 681.933C94.0101 681.715 93.6733 681.685 93.4319 681.865C68.2937 700.518 46.4229 705.141 36.1899 706.265C38.5388 708.077 40.9687 709.654 43.458 711.027Z" fill="#E91C3C" />
            <path d="M244.304 525.531C241.944 513.599 250.308 510.264 262.511 511.793C283.242 514.389 290.013 506.62 290.013 506.62C289.161 526.103 277.388 532.505 256.898 531.409C249.787 530.069 244.304 525.531 244.304 525.531Z" fill="#5991DB" />
            <path d="M378.844 485.803C362.331 557.22 435.47 538.781 431.969 627.693C429.287 695.804 374.86 712.432 365.385 751.4C324.483 745.392 323.973 719.108 320.188 704.816C312.888 688.791 307.736 655.56 307.736 655.56C330.063 631.762 300.76 608.13 316.065 554.952C332.862 496.594 378.844 485.803 378.844 485.803Z" fill="#5991DB" />
            <path d="M213.199 770.829C222.679 765.647 245.249 769.118 265.709 782.062C264.22 777.216 262.946 771.942 262.183 768.582C248.81 764.549 240.148 750.161 238.923 736.654C209.55 721.024 180.094 668.739 211.724 607.398C243.354 546.058 239.771 536.323 219.37 521.409C219.37 521.409 218.408 520.72 218.96 519.749C219.623 518.576 221.519 519.682 221.519 519.682C232.653 526.188 241.515 519.265 250.689 522.673C260.334 526.257 273.087 530.969 275.002 586.922C275.813 610.667 283.318 628.525 292.042 641.413C296.976 648.702 326.309 712.992 326.309 712.992C326.309 712.992 315.741 729.293 304.562 737.06C310.878 745.04 321.728 751.866 321.914 751.983L321.921 751.987C324.666 753.584 329.539 755.994 337.089 758.354L338.907 758.923C339.917 759.239 340.02 760.626 339.067 761.087L337.352 761.916C322.539 769.086 313.661 776.743 310.966 784.676C309.336 789.475 310.236 796.525 312.664 800C305.268 799.446 305.346 789.266 307.322 783.442C310.128 775.184 318.072 767.668 331.549 760.545C325.86 758.496 322.013 756.521 319.644 755.113L319.637 755.124C308.545 760.058 290.248 759.358 278.905 744.462L266.304 744.462C266.304 744.462 263.733 757.446 265.953 767.798C267.012 772.433 269.043 780.713 271.183 786.167L272.12 788.556C272.547 789.641 271.293 790.608 270.348 789.928L268.265 788.425C248.129 773.905 224.061 769.269 215.047 774.198C212.736 775.463 211.783 777.198 211.816 779.654C208.413 777.88 209.611 772.791 213.199 770.829Z" fill="#001229" />
            <path d="M349.622 696.027C311.934 681.071 311.934 629.242 265.433 631.174C223.253 632.928 228.308 682.069 249.346 700.747C267.22 716.618 319.88 733.241 349.622 696.027Z" fill="#FA85BD" />
            <path d="M395.343 500.574C395.925 500.338 395.923 499.483 395.314 499.327C380.056 495.404 352.562 504.398 334.095 538.76C306.819 589.515 332.651 622.933 316.38 654.566C316.029 655.248 316.944 655.895 317.463 655.329C336.959 634.011 325.838 592.47 341.756 555.955C350.17 536.654 361.073 514.475 395.343 500.574Z" fill="#1766C7" />
            <path d="M414.059 538.234C414.754 538.241 414.983 537.352 414.406 536.964C399.852 527.123 370.902 529.51 354.677 586.763C341.23 634.203 331.205 650.286 323.09 659.183C322.512 659.816 323.411 660.712 324.072 660.165C345.42 642.467 353.803 610.385 376.049 566.905C389.574 540.468 407.771 538.175 414.059 538.234Z" fill="#1766C7" />
            <path d="M434.467 572.876C435.11 572.78 435.29 571.919 434.706 571.633C417.688 563.274 400.954 573.937 375.868 616.649C359.385 644.71 334.591 660.576 325.921 665.515C325.273 665.884 325.644 666.875 326.382 666.753C342.777 664.054 362.532 652.085 385.717 621.993C405.425 596.416 412.365 576.151 434.467 572.876Z" fill="#1766C7" />
            <path d="M441.568 646.517C442.193 646.694 442.712 645.981 442.298 645.481C432.052 633.145 413.886 633.037 386.318 647.681C361.447 660.891 343.492 669.943 332.358 673.334C331.607 673.562 331.827 674.688 332.61 674.64C350.12 673.571 368.628 666.854 388.696 658.623C410.529 649.667 425.157 641.891 441.568 646.517Z" fill="#1766C7" />
            <path d="M424.934 695.887C425.243 696.511 426.148 696.321 426.205 695.626C427.547 679.279 406.712 671.21 381.203 674.777C358.79 677.91 345.731 681.078 335.761 679.77C334.965 679.666 334.707 680.749 335.455 681.042C351.68 687.413 377.146 684.508 396.621 685.184C415.972 685.857 422.07 690.099 424.934 695.887Z" fill="#1766C7" />
            <path d="M407.593 715.931C403.376 700.301 390.106 698.362 354.259 696.267C353.775 696.24 353.467 696.832 353.813 697.172C365.512 708.599 396.347 715.319 407.06 716.588C407.414 716.629 407.686 716.275 407.593 715.931Z" fill="#1766C7" />
            <path d="M395.322 732.737C374.391 736.461 358.01 723.225 346.362 710.35C345.996 709.947 346.439 709.355 346.938 709.572C363.638 716.876 384.775 718.543 395.66 731.845C395.918 732.16 395.721 732.665 395.322 732.737Z" fill="#1766C7" />
            <path d="M385.384 742.415C363.734 744.259 351.502 725.665 332.553 721.465C332.115 721.367 331.744 721.864 331.959 722.26C344.63 745.736 369.268 756.721 385.784 743.329C386.178 743.009 385.89 742.372 385.384 742.415Z" fill="#1766C7" />
            <path d="M260.046 682.614C267.744 689.795 294.9 713.093 324.264 714.564C318.567 716.683 312.668 717.869 306.772 718.318C292.89 714.706 274.088 703.973 259.162 683.393C258.983 683.147 259.021 682.805 259.25 682.603C259.479 682.402 259.823 682.405 260.046 682.614Z" fill="#E91C3C" />
            <path d="M301.843 678.415C322.505 694.914 341.517 696.366 349.576 696.085C347.915 698.161 346.179 700.06 344.383 701.809C326.38 700.249 311.797 692.673 301.011 679.248C300.822 679.013 300.84 678.673 301.054 678.459C301.267 678.246 301.607 678.227 301.843 678.415Z" fill="#E91C3C" />
            <path d="M331.988 711.027C321.591 709.455 298.908 703.691 281.209 682.721C281.014 682.491 281.023 682.153 281.23 681.933C281.436 681.715 281.773 681.685 282.014 681.865C307.152 700.518 329.023 705.141 339.256 706.265C336.907 708.077 334.477 709.654 331.988 711.027Z" fill="#E91C3C" />
        </g>
    </g>
    <path d="M340.732 825.16C281.788 791.585 193.327 792.21 182.027 835.518C202.38 824.951 216.162 852.966 248.897 841.584C277.666 831.58 303.456 816.243 340.732 825.16Z" fill="#0F704D" />
    <path d="M-41 814.939C51.0597 790.747 207.17 793.814 210.263 848.42C184.781 833.55 164.439 863.708 121.799 846.739C84.3249 831.827 8.46148 806.886 -41 814.939Z" fill="#2F9D65" />
    <path d="M34.0078 812.178C34.0078 812.178 152.109 807.252 137.055 833.659C121.824 816.849 43.7485 811.779 34.0078 812.178Z" fill="#0F704D" />
    <path d="M413.468 812.518C363.313 814.83 334.028 861.03 301.749 861.214C269.47 861.399 259.994 850.306 232.983 861.214C245.927 811.664 357.962 793.638 413.468 812.518Z" fill="#2F9D65" />
    <path d="M382.469 817.176C382.469 817.176 334.748 808.163 290.646 831.148C332.786 821.47 368.571 819.044 382.469 817.176Z" fill="#0F704D" />
    <path d="M204.315 816.79C213.281 807.823 213.28 793.283 204.313 784.314C195.346 775.346 180.809 775.345 171.843 784.312C162.877 793.28 162.878 807.82 171.845 816.789C180.812 825.757 195.349 825.758 204.315 816.79Z" fill="#5991DB" />
    <path d="M202.659 807.465C208.594 801.529 208.593 791.906 202.658 785.97C196.723 780.034 187.101 780.033 181.167 785.969C175.232 791.904 175.233 801.528 181.168 807.464C187.103 813.4 196.725 813.401 202.659 807.465Z" fill="#1766C7" />
    <path d="M209.966 792.594C213.065 789.493 213.065 784.466 209.965 781.365C206.865 778.265 201.839 778.265 198.739 781.365C195.639 784.465 195.64 789.492 198.739 792.593C201.84 795.694 206.866 795.694 209.966 792.594Z" fill="#5991DB" />
    <path d="M151.179 827.514C157.347 833.681 167.348 833.681 173.518 827.513C179.686 821.345 179.687 811.345 173.519 805.178C167.35 799.011 157.349 799.012 151.18 805.179C145.011 811.347 145.011 821.347 151.179 827.514Z" fill="#1766C7" />
    <path d="M157.594 826.376C161.677 830.458 168.296 830.457 172.379 826.375C176.463 822.292 176.463 815.674 172.38 811.592C168.298 807.51 161.678 807.51 157.595 811.593C153.511 815.675 153.511 822.293 157.594 826.376Z" fill="#5991DB" />
    <path d="M167.823 831.401C169.955 833.533 173.413 833.533 175.546 831.401C177.679 829.268 177.679 825.811 175.546 823.679C173.414 821.547 169.956 821.547 167.823 823.679C165.69 825.812 165.69 829.269 167.823 831.401Z" fill="#1766C7" />
    <defs>
        <clipPath id="clip0_88_1328">
            <rect width="375" height="812" fill="white" />
        </clipPath>
        <clipPath id="clip1_88_1328">
            <rect width="1633" height="1461" fill="white" transform="translate(-405 -292)" />
        </clipPath>
    </defs>
</svg>