<svg xmlns="http://www.w3.org/2000/svg" width="357" height="195" viewBox="0 0 357 195" fill="none">
    <path d="M104.775 142.45H92.1248L91.2998 191.4L64.0748 191.125L64.6248 142.725L-0.000195362 143.55V117.7L0.824805 115.225C18.9748 70.1248 26.6748 36.8498 27.4998 -0.000202656L54.9998 0.824803C53.8998 45.9248 42.3498 83.8748 29.9748 115.775L64.8998 115.5L66.5498 0.274794L94.0498 0.54979L92.3998 115.225L104.5 114.95L104.775 142.45ZM223.457 38.7748C230.057 58.2998 230.882 81.6748 230.882 97.8998C230.882 182.325 195.682 194.975 175.057 194.975C135.732 194.975 121.982 143 121.982 98.7248C121.982 83.0498 122.532 60.2248 128.582 40.4248C138.757 6.87479 159.382 -0.000202656 175.057 -0.000202656C191.007 -0.000202656 212.732 6.59979 223.457 38.7748ZM195.132 151.525C200.632 139.15 203.382 120.725 203.382 97.8998C203.382 34.6498 187.157 27.2248 175.057 27.2248C161.307 27.2248 156.632 42.0748 154.707 48.3998C149.207 66.5498 149.207 90.7498 149.207 98.7248C149.207 116.05 151.957 134.2 156.632 146.85C161.307 160.6 167.632 167.475 175.057 167.475C181.107 167.475 188.807 165.825 195.132 151.525ZM356.679 142.45H344.029L343.204 191.4L315.979 191.125L316.529 142.725L251.904 143.55V117.7L252.729 115.225C270.879 70.1248 278.579 36.8498 279.404 -0.000202656L306.904 0.824803C305.804 45.9248 294.254 83.8748 281.879 115.775L316.804 115.5L318.454 0.274794L345.954 0.54979L344.304 115.225L356.404 114.95L356.679 142.45Z" fill="#001229" />
</svg>