<svg xmlns="http://www.w3.org/2000/svg" width="610" height="502" viewBox="0 0 610 502" fill="none">
    <path d="M232.966 452.038L233.422 455.154L226.926 456.091L229.663 474.734L226.541 475.188L223.348 453.418L232.978 452.039L232.966 452.038Z" fill="#001229" />
    <path d="M247.58 460.505C248.297 466.241 247.711 470.146 245.826 472.13C245.111 472.88 244.218 473.337 243.249 473.453C242.972 473.494 242.684 473.496 242.397 473.474C241.222 473.383 239.529 472.725 238.055 470.062C236.971 468.087 236.188 465.36 235.766 461.984C235.353 458.72 235.426 456.26 235.964 454.467C236.769 451.832 238.516 450.93 239.855 450.627C241.357 450.291 242.689 450.525 243.814 451.313C245.759 452.681 246.961 455.597 247.581 460.492L247.58 460.505ZM244.448 460.897C243.808 455.863 242.644 454.36 242.008 453.913C241.752 453.729 241.345 453.54 240.55 453.713C239.918 453.853 237.987 454.287 238.912 461.593C239.699 467.819 241.606 470.26 242.631 470.332C242.993 470.357 243.273 470.242 243.545 469.964C245.235 468.198 244.665 462.579 244.46 460.897L244.448 460.897Z" fill="#001229" />
    <path d="M259.085 461.44C257.924 463.15 256.119 464.275 253.836 464.708L254.421 471.703L251.268 471.968L249.392 449.769L251.948 449.408C254.162 449.134 256.158 449.728 257.727 451.095C259.113 452.305 260.018 454.024 260.29 455.945C260.573 457.917 260.154 459.877 259.085 461.44ZM257.155 456.399C256.763 453.623 254.698 452.477 252.792 452.511L253.557 461.549C256.639 460.818 257.438 458.359 257.156 456.387L257.155 456.399Z" fill="#001229" />
    <path d="M270.933 448.839C272.812 450.304 273.849 453.289 274.205 458.201C274.619 463.964 273.822 467.836 271.84 469.718C271.089 470.429 270.173 470.835 269.193 470.901C268.917 470.916 268.629 470.919 268.343 470.871C267.183 470.719 265.517 469.974 264.184 467.228C263.202 465.195 262.584 462.436 262.338 459.04C262.101 455.758 262.298 453.315 262.935 451.55C263.876 448.97 265.67 448.157 267.019 447.929C268.531 447.681 269.848 447.977 270.934 448.827L270.933 448.839ZM271.04 458.429C270.676 453.367 269.591 451.805 268.968 451.321C268.712 451.124 268.331 450.911 267.525 451.046C266.882 451.149 264.929 451.481 265.465 458.824C265.912 465.088 267.691 467.624 268.714 467.747C269.076 467.785 269.354 467.694 269.639 467.429C271.413 465.753 271.157 460.108 271.028 458.429L271.04 458.429Z" fill="#001229" />
    <path d="M290.173 469.164L275.583 469.797L275.441 466.643L277.411 466.561C279.027 461.105 278.609 449.304 278.6 449.179L278.542 447.602L287.635 447.304L288.275 466.099L290.044 466.023L290.186 469.177L290.173 469.164ZM280.71 466.412L285.114 466.227L284.579 450.548L281.794 450.639C281.856 453.929 281.831 461.527 280.71 466.412Z" fill="#001229" />
    <path d="M302.271 468.895L292.165 469.183L291.693 447.307L301.256 447.163L301.298 450.314L294.918 450.406L295.015 454.846L299.844 454.676L299.948 457.829L295.069 457.997L295.234 465.927L302.143 465.729L302.234 468.881L302.271 468.895Z" fill="#001229" />
    <path d="M315.8 466.001L315.642 472.407L312.488 472.323L312.583 468.852L304.343 468.754L304.407 446.984L307.563 446.993L307.508 465.639L311.339 465.684L311.721 447.037L314.876 447.096L314.487 465.955L315.813 466.001L315.8 466.001Z" fill="#001229" />
    <path d="M336.842 467.816L344.76 468.217L344.594 471.372L333.487 470.794L333.663 467.551L333.684 467.438C334.403 463.963 336.72 462.483 338.766 461.175C340.666 459.96 342.199 459.019 342.692 456.59C343.193 454.073 342.611 451.731 340.548 451.478C337.566 451.106 336.952 454.364 337.121 457.433L334.195 457.572C334.013 454.141 334.489 451.612 336.063 450.02C337.225 448.843 338.808 448.263 340.652 448.324C342.22 448.383 343.558 449.061 344.528 450.302C345.852 451.994 346.32 454.652 345.771 457.246C344.972 460.948 342.472 462.547 340.462 463.829C338.721 464.939 337.336 465.812 336.829 467.804L336.842 467.816Z" fill="#001229" />
    <path d="M360.339 461.929C359.421 471.622 355.262 472.69 352.861 472.461C348.362 472.042 347.324 465.929 347.812 460.837C347.975 459.057 348.311 456.433 349.212 454.252C350.761 450.512 353.209 449.927 354.994 450.103C356.854 450.276 359.244 451.281 360.153 455.099C360.695 457.392 360.526 460.097 360.352 461.941L360.339 461.929ZM357.197 461.637C357.886 454.39 356.097 453.377 354.689 453.238C353.106 453.093 352.423 454.741 352.135 455.451C351.302 457.455 351.047 460.225 350.954 461.141C350.76 463.135 350.883 465.243 351.274 466.767C351.681 468.39 352.324 469.255 353.167 469.338C353.858 469.402 354.768 469.283 355.653 467.703C356.408 466.352 356.937 464.259 357.185 461.65L357.197 461.637Z" fill="#001229" />
    <path d="M364.964 470.33L372.848 471.195L372.506 474.331L361.44 473.114L361.804 469.877L361.838 469.763C362.759 466.332 365.155 464.987 367.269 463.814C369.235 462.708 370.821 461.854 371.452 459.457C372.106 456.972 371.66 454.6 369.606 454.234C366.656 453.699 365.852 456.901 365.846 459.976L362.914 459.952C362.933 456.515 363.548 454.019 365.225 452.523C366.452 451.419 368.076 450.925 369.911 451.099C371.481 451.245 372.773 452.012 373.669 453.294C374.883 455.064 375.214 457.74 374.501 460.301C373.487 463.961 370.894 465.401 368.817 466.572C367.023 467.572 365.585 468.384 364.964 470.33Z" fill="#001229" />
    <path d="M388.872 468.715C388.247 472.736 385.546 476.504 381.592 475.891C379.917 475.637 378.625 474.869 377.743 473.637C376.32 471.624 376.087 468.508 377.002 463.814C377.652 460.505 378.627 457.921 379.894 456.153C381.543 453.846 383.379 453.32 384.63 453.277C386.594 453.209 387.801 454.054 388.452 454.769C388.999 455.375 390.237 457.12 389.833 460.283L386.7 459.879C386.857 458.624 386.629 457.457 386.12 456.887C385.925 456.669 385.565 456.394 384.739 456.423C383.087 456.48 381.389 458.801 380.569 462.266C380.965 461.765 382.994 459.933 385.565 461.118C388.098 462.281 389.415 465.21 388.873 468.728L388.872 468.715ZM385.761 468.236C386.067 466.213 385.495 464.52 384.312 463.999C383.065 463.455 381.341 464.314 379.817 466.229C379.368 469.544 379.823 471.103 380.336 471.823C380.573 472.152 381.002 472.612 382.073 472.775C384.188 473.102 385.452 470.159 385.749 468.236L385.761 468.236Z" fill="#001229" />
    <path d="M205.781 411.28L208.927 410.633L214.975 440.699L210.699 441.534L206.567 421.001C205.858 423.887 204.886 426.153 202.85 429.357L199.178 427.013C203.251 420.605 204.833 411.475 204.833 411.475L205.781 411.28Z" fill="#001229" />
    <path d="M230.979 422.361C232.518 423.845 233.536 425.951 233.961 428.512C234.335 430.769 233.978 433.192 232.913 435.108C231.645 437.415 229.575 438.917 226.971 439.349C224.496 439.759 222.088 439.222 220.201 437.795C218.365 436.404 217.116 434.248 216.699 431.73C216.253 429.039 216.66 426.384 217.877 424.309C218.189 423.767 218.558 423.304 218.978 422.878C216.773 421.683 215.292 419.475 214.932 417.305C214.637 415.525 214.64 412.848 216.393 410.506C217.667 408.779 219.535 407.666 221.662 407.314C226.393 406.53 230.282 409.542 231.124 414.621C231.534 417.095 230.758 419.409 229.172 421.144C229.902 421.514 230.509 421.948 230.979 422.361ZM222.374 411.611C219.726 412.05 218.914 414.415 219.273 416.585C219.726 419.32 221.635 420.877 223.885 420.459C226.359 420.049 227.157 417.33 226.826 415.333C226.373 412.599 224.718 411.223 222.374 411.611ZM229.663 429.224C229.391 426.772 228.085 423.465 224.352 424.084C221.53 424.551 220.153 427.545 220.996 431.018C221.681 433.803 223.611 435.49 226.258 435.052C227.908 434.778 230.058 432.95 229.663 429.224Z" fill="#001229" />
    <path d="M283.47 402.184L286.68 402.051L287.813 432.699L283.459 432.834L282.683 411.904C281.518 414.639 280.195 416.719 277.67 419.554L274.423 416.649C279.474 410.98 282.503 402.224 282.503 402.224L283.47 402.184Z" fill="#001229" />
    <path d="M309.366 416.38C309.489 429.184 304.734 431.997 301.874 432.566C301.39 432.654 300.862 432.698 300.334 432.697C298.706 432.696 297.166 432.167 295.847 431.11C293.868 429.524 292.638 426.795 292.552 424.023L296.909 423.895C296.951 425.391 297.654 426.887 298.622 427.68C299.281 428.252 300.117 428.429 301.085 428.254C302.317 427.991 303.154 426.715 303.595 425.66C304.344 424.032 305.051 420.953 305.054 417.301C303.6 419.192 300.827 420.642 297.924 419.759C296.164 419.274 294.713 418.085 293.702 416.5C292.647 414.871 292.121 412.891 292.123 410.559C292.127 404.927 295.518 401.014 300.402 401.017C303.482 401.02 305.769 402.297 307.219 404.806C308.669 407.271 309.326 410.968 309.366 416.38ZM299.291 415.624C300.83 416.11 303.119 415.583 304.881 413.385C304.315 405.376 301.807 405.374 300.399 405.373C298.023 405.371 296.481 407.394 296.479 410.562C296.477 413.202 297.487 415.051 299.291 415.624Z" fill="#001229" />
    <path d="M340.994 403.531L338.933 433.954L334.543 433.65L335.904 413.985L328.507 432.923L323.854 432.601L325.926 402.665L330.272 402.966L328.938 422.235L336.517 403.221L340.994 403.531Z" fill="#001229" />
    <path d="M366.826 407.461L366.783 407.456C368.978 410.163 369.623 415.03 368.783 421.886C368.274 426.035 367.175 429.58 365.528 432.171C363.608 435.172 361.031 436.673 358.279 436.336C356.052 436.063 353.221 434.564 352.138 428.934C351.608 426.387 351.623 423.729 351.684 421.786L349.358 421.59L347.779 434.119L343.461 433.545L347.187 403.858L351.549 404.437L349.937 417.228L352.175 417.413C353.607 408.989 357.301 404.521 362.427 405.016C364.174 405.23 365.671 406.034 366.826 407.461ZM358.809 432.012C360.905 432.269 363.603 428.344 364.459 421.356C364.775 418.78 365.273 412.546 363.389 410.187C363.006 409.697 362.547 409.464 361.979 409.394C361.412 409.325 359.965 409.192 358.482 411.891C357.406 413.799 356.67 416.545 356.263 419.865C356.135 420.913 355.757 424.723 356.409 428.083C356.68 429.491 357.368 431.836 358.809 432.012Z" fill="#001229" />
    <path d="M391.34 410.285L386.176 440.605L381.886 439.849L386.279 413.906L382.068 413.208C381.149 417.916 378.893 429.448 377.803 433.098C377.101 435.566 376.148 436.917 374.641 437.858C373.143 438.755 370.173 438.366 368.746 436.327L370.501 433.465C372.046 434.586 373.147 433.663 373.597 431.866C374.782 427.428 378.129 410.459 378.16 410.286L378.534 408.163L391.34 410.285Z" fill="#001229" />
    <path d="M407.911 413.419L412.12 414.357L405.186 444.682L400.9 443.683L403.263 433.48C402.705 433.356 402.017 433.203 401.273 432.902L393.876 442.028L389.109 440.966L397.633 430.829C397.141 430.404 396.669 429.893 396.292 429.358C394.58 427.129 394.123 424.322 394.807 421.049C395.424 418.076 396.905 415.881 399.111 414.479C402.81 412.238 407.31 413.285 407.911 413.419ZM404.21 429.228L406.869 417.695L406.826 417.685C406.826 417.685 406.783 417.676 406.74 417.666C406.182 417.542 403.424 416.972 401.385 418.231C400.23 418.966 399.461 420.192 399.112 421.962C398.662 423.981 398.905 425.522 399.758 426.749C400.941 428.32 403.007 428.961 404.21 429.228Z" fill="#001229" />
    <path d="M266.844 416.896C258.99 418 243.209 421.015 240.115 421.599L239.734 419.662C242.825 419.065 258.654 416.053 266.53 414.945L266.844 416.896Z" fill="#001229" />
    <path d="M117.604 59.7061C130.699 48.4019 152.058 57.3703 148.94 75.4196C147.05 86.349 141.566 98.2902 139.501 109.832C135.682 131.141 136.083 160.145 148.627 178.669C152.433 184.289 158.067 186.163 152.922 193.907C146.499 203.588 131.4 205.349 123.263 196.73C103.97 176.283 115.989 130.966 118.681 106.584C120.22 92.7193 114.624 103.536 112.483 108.87C105.785 125.583 103.269 143.744 101.804 161.369C101.278 167.664 102.706 174.409 95.7949 177.082C71.9953 186.301 69.4789 146.305 68.8404 132.128C68.1643 117.051 70.3051 94.9052 66.4241 80.878C66.0861 79.6789 65.9483 78.7171 64.8717 77.8678C63.6823 77.8053 62.3803 84.7502 62.1925 86.0992C57.8732 117.526 66.349 183.74 36.0767 204.475C21.9923 214.118 1.13474 203.588 0.0455431 187.125C-0.567914 177.844 5.11595 178.644 11.0627 174.372C40.4586 153.3 41.072 98.9523 42.5994 66.601C43.288 52.1617 44.227 33.363 60.5149 31.5518C84.3896 28.8913 88.6087 58.6569 88.6462 76.3814C88.6713 88.0103 87.3943 99.7017 87.87 111.331C87.9702 113.641 88.5586 125.832 90.5742 126.407C92.3896 126.27 92.7526 123.384 93.2409 121.935C99.5257 103.087 101.366 73.6833 117.554 59.6936L117.604 59.7061Z" fill="#001229" />
    <path d="M99.7261 238.55C117.191 226.733 139.263 217.74 160.646 217.278C208.521 216.266 214.943 256.474 189.403 289.462C168.421 316.567 118.468 345.396 83.3631 340C62.9938 336.877 48.8467 322.101 52.5024 300.791C53.6793 293.959 59.9265 283.292 66.5368 280.481C74.4492 277.121 72.5086 283.804 75.6886 288.938C86.18 305.888 117.854 294.396 131.814 287.214C144.584 280.644 169.535 263.731 167.958 247.418C167.407 241.66 162.637 237.813 157.341 236.451C140.903 232.217 115.313 241.685 102.005 251.578C98.712 254.026 91.7011 261.558 88.8216 262.794C82.036 265.705 76.4899 256.399 77.9546 250.254C79.7449 242.759 93.4413 229.281 97.5728 221.287C101.191 214.292 99.2754 213.431 92.3897 215.929C81.6103 219.838 74.5744 227.957 66.0235 234.59C51.9391 245.52 41.0095 225.097 47.8327 213.593C53.6542 203.763 79.7324 197.78 90.6244 196.268C98.4366 195.182 108.89 193.633 114.161 200.79C122.762 212.469 104.333 228.445 99.7386 238.537L99.7261 238.55Z" fill="#001229" />
    <path d="M308.114 115.89L315.387 104.473C324.677 95.4923 340.301 97.7282 342.029 111.93C346.16 104.398 350.743 96.8163 359.656 94.5055C366.667 92.6819 374.167 94.5805 377.722 101.263C384.746 114.453 370.311 135.288 375.419 151.688C377.447 158.196 385.647 161.781 377.384 169.076C370.035 175.571 358.655 174.297 353.998 165.266C347.225 152.138 355.262 137.174 357.14 124.321C357.591 121.248 357.854 117.376 355.124 115.303C351.932 114.378 350.292 115.827 348.664 118.301C345.459 123.122 343.206 133.864 342.63 139.647C341.879 147.142 343.544 155.848 342.142 162.993C340.264 172.598 318.267 175.496 317.679 162.318C317.19 151.376 323.55 137.786 323.212 125.433C323.037 119.275 319.118 115.203 314.736 121.298C306.761 132.378 310.442 151.026 308.176 163.442C305.697 177.02 282.912 178.381 283.525 163.992C283.763 158.384 286.455 151.364 287.231 145.58C288.47 136.362 288.934 125.808 286.567 116.777C284.94 110.581 279.143 104.686 285.603 99.6518C289.86 96.3292 296.408 95.8296 301.203 98.1529C307.337 101.126 308.226 109.807 308.114 115.865V115.89Z" fill="#001229" />
    <path d="M517.24 133.152C506.623 141.921 490.824 143.082 479.268 135.276C479.268 140.01 479.156 144.769 479.494 149.49C479.857 154.474 483.087 167.527 481.609 171.012C480.42 173.81 474.148 176.47 471.231 176.658C442.235 178.494 456.395 147.716 458.461 131.716C459.875 120.724 460.539 106.884 456.458 96.4541C453.215 88.1477 443.963 82.2521 453.34 73.5834C465.346 62.4916 493.227 60.8303 507.938 66.1889C535.844 76.3814 538.711 115.415 517.24 133.14V133.152ZM485.315 82.1646C483.888 82.302 481.021 83.3263 480.332 84.5878C479.181 86.6863 481.722 97.6407 481.735 101.326C481.735 104.636 479.807 118.413 480.971 119.949C481.684 120.899 485.653 122.223 486.955 122.423C495.769 123.697 503.631 115.902 505.209 107.633C508.001 93.0441 501.741 80.6283 485.328 82.1771L485.315 82.1646Z" fill="#001229" />
    <path d="M565.478 164.279L558.755 175.071C539.963 195.319 516.576 182.154 519.894 155.411C522.06 137.961 540.363 113.954 559.982 119.787C565.403 121.398 568.107 125.071 570.924 129.655C573.064 122.148 575.794 106.547 567.631 101.763C564.176 99.7392 560.695 100.226 560.407 104.686C560.182 108.058 563.387 109.832 558.354 112.33C545.622 118.638 530.385 105.11 540.401 92.2447C548.952 81.2652 569.171 85.2998 578.222 93.7061C603.211 116.939 576.582 144.019 584.495 166.652C586.135 171.337 589.252 171.799 590.442 174.035C592.645 178.157 586.623 184.602 582.855 185.913C569.083 190.747 563.988 175.009 565.465 164.292L565.478 164.279ZM558.83 132.99C549.878 133.889 539.763 156.223 548.564 160.12C556.088 163.455 564.063 150.864 565.14 144.694C566.054 139.447 566.091 132.265 558.817 133.002L558.83 132.99Z" fill="#001229" />
    <path d="M194.862 160.807L188.903 171.849C169.548 195.132 145.773 179.343 150.618 150.964C153.41 134.576 170.549 115.253 188.665 119.637C191.031 120.212 192.571 122.035 194.712 122.847C194.061 115.115 193.873 97.1661 183.97 95.3674C179.375 94.5305 175.82 96.8288 176.483 101.85C177.034 106.035 182.092 106.672 177.122 111.68C168.959 119.887 153.623 115.365 153.535 102.587C153.36 78.3799 197.253 75.2821 208.17 100.089C215.569 116.914 208.083 146.742 215.832 158.783C218.486 162.905 221.516 161.731 219.989 168.701C219.087 172.848 213.166 177.657 208.984 178.032C199.657 178.856 194.912 168.788 194.862 160.807ZM184.634 130.417C176.546 131.628 170.249 152.201 176.12 157.122C181.191 161.369 187.551 154.324 189.516 149.89C191.882 144.544 194.562 128.93 184.634 130.417Z" fill="#001229" />
    <path d="M296.796 199.104C287.169 198.567 285.053 204.325 283.55 212.456C279.557 233.928 272.358 278.483 243.651 280.319C211.2 282.405 216.133 235.689 242.048 240.086C250.549 241.535 243.788 248.58 248.295 251.553C252.402 254.263 256.909 250.641 259.575 247.718C266.899 239.711 271.106 224.023 272.383 213.406C272.996 208.272 271.682 199.366 274.336 195.519C279.081 188.611 301.19 182.678 309.366 183.04C323.913 183.69 314.323 201.502 312.47 209.933C309.666 222.711 309.14 235.652 312.496 248.405C314.499 256.012 319.682 261.183 310.843 267.216C304.37 271.638 294.981 270.963 290.674 263.968C288.521 260.471 287.807 254.763 287.794 250.666C287.744 233.016 294.543 216.353 296.809 199.091L296.796 199.104Z" fill="#001229" />
    <path d="M408.821 130.766C407.481 145.955 420.965 148.766 432.583 142.77C435.024 141.508 441.634 136.187 443.8 136.437C447.406 136.849 448.82 144.968 448.558 147.929C447.343 161.631 428.526 171.874 416.032 172.123C367.08 173.085 376.633 100.339 415.806 88.7972C427.963 85.2124 444.601 88.0103 448.032 102.087C453.54 124.683 428.914 143.232 408.821 130.754V130.766ZM430.191 107.958C428.176 105.622 423.068 105.985 420.476 107.409C418.06 108.745 410.698 116.914 412.226 119.375C416.432 120.786 422.016 121.161 426.022 118.838C429.365 116.902 433.284 111.531 430.191 107.958Z" fill="#001229" />
    <path d="M519.205 187.312C523.825 186.5 527.819 193.445 527.969 197.455C528.532 212.456 514.748 217.353 502.029 214.405C494.604 212.681 486.442 207.285 479.518 206.036C474.148 205.062 479.644 211.569 480.683 213.78C489.108 231.792 493.603 253.763 493.215 273.711C493.102 279.457 492.201 297.219 489.334 301.378C485.34 307.174 474.373 305.575 469.302 301.953C459.024 294.608 466.123 283.504 468.426 274.123C473.547 253.251 473.484 228.32 459.725 210.633C454.73 204.212 446.454 200.015 453.666 191.022C462.329 180.205 483.011 189.76 494.216 191.222C500.288 192.021 507.111 192.084 513.008 190.26C515.036 189.636 518.116 187.512 519.218 187.312H519.205Z" fill="#001229" />
    <path d="M253.841 96.3791C269.115 96.4541 281.597 108.033 278.229 123.884C276.026 134.251 261.866 137.224 255.056 129.28C249.497 122.797 256.521 121.686 257.998 117.526C260.564 110.256 252.94 107.259 247.544 112.38C242.123 117.514 240.446 128.431 241.56 135.488C244.439 153.774 262.618 156.672 273.096 142.483C277.353 139.722 279.957 149.802 279.757 152.638C278.78 166.74 263.306 178.044 249.572 177.057C206.442 173.96 209.848 96.1543 253.854 96.3666L253.841 96.3791Z" fill="#001229" />
    <path d="M360.921 263.656C357.954 266.217 352.633 269.115 348.677 269.34C309.378 271.625 310.38 191.934 344.483 186.475C378.398 181.042 383.819 243.871 360.921 263.656ZM344.746 205.037C337.81 206.573 337.597 224.235 338.035 229.644C338.473 235.052 341.904 253.114 350.229 249.104C358.404 245.17 356.727 223.298 354.674 215.829C353.447 211.357 350.617 203.725 344.746 205.024V205.037Z" fill="#001229" />
    <path d="M410.686 201.514C410.724 211.045 408.195 220.213 406.893 229.544C405.791 237.413 404.952 245.382 405.165 253.339C405.29 257.835 407.356 267.866 406.667 271.388C405.052 279.657 390.968 279.844 385.221 275.435C372.276 265.505 385.334 240.448 389.39 228.22C392.708 218.19 395.613 208.184 395.763 197.505C391.732 197.03 388.164 196.93 384.182 197.667C379.45 198.554 374.204 202.251 371.65 195.182C368.646 186.838 374.154 179.506 382.83 179.118C393.948 178.631 407.068 184.839 419.825 184.677C424.758 184.614 434.436 180.567 437.453 181.392C444.364 183.253 444.076 194.632 440.908 199.578C434.561 209.471 419.725 203.825 410.686 201.514Z" fill="#001229" />
    <path d="M437.115 214.068C475.788 210.87 469.803 293.822 434.198 286.514C404.314 280.381 409.034 216.391 437.115 214.068ZM437.678 230.418C431.306 231.255 430.492 245.644 430.605 250.453C430.717 255.3 433.347 269.777 439.907 269.577C446.204 269.389 447.444 255.7 447.431 251.165C447.431 246.182 445.015 229.444 437.678 230.418Z" fill="#001229" />
    <path d="M233.986 235.889C184.108 238.362 186.687 175.171 233.247 180.705C272.32 185.339 270.192 234.103 233.986 235.889ZM232.245 223.436C240.446 222.786 240.608 211.832 240.17 208.172C239.732 204.512 235.425 193.458 226.925 193.608C218.774 193.758 218.036 204.187 218.324 207.647C218.637 211.445 222.806 224.185 232.245 223.436Z" fill="#001229" />
    <path d="M568.645 221.787C584.382 203.001 605.941 231.555 587.287 245.045L582.016 248.217C600.67 244.458 613.665 257.698 607.493 276.222C602.41 291.486 585.496 295.408 573.14 285.602C576.507 294.134 580.1 301.94 573.54 310.097C563.85 322.113 540.313 321.564 533.578 306.662C530.698 300.304 532.414 293.896 534.166 287.526C523.199 298.331 508.276 298.256 502.905 282.167C497.935 267.303 506.423 257.086 521.522 256.711L513.872 252.314C498.198 241.66 513.659 218.889 529.759 222.911C533.453 223.835 536.57 227.37 539.274 229.818C538.26 223.261 536.132 217.34 538.385 210.733C540.551 204.4 546.673 200.228 553.284 199.915C567.894 199.216 572.363 208.834 568.658 221.774L568.645 221.787ZM576.395 267.503C572.839 264.218 567.18 260.933 565.428 255.824C563.487 251.727 563.387 246.381 563.775 241.397C564.038 236.938 561.91 240.461 560.67 242.297C556.363 249.579 548.388 253.776 539.925 252.402C538.924 252.364 536.432 252.052 535.994 252.652C535.769 253.776 537.947 254.925 539.011 255.887C546.623 260.633 549.465 269.052 548.076 277.633C547.95 279.519 547.612 283.079 549.991 279.894C552.407 276.609 555.412 272.3 559.255 270.289C563.512 267.641 569.822 267.903 574.842 268.228C575.856 268.228 576.42 268.115 576.445 267.791L576.37 267.516L576.395 267.503Z" fill="#001229" />
    <path d="M205.366 325.76C203.876 324.124 204.777 322.213 200.671 322.4C193.134 322.738 187.275 343.56 185.522 349.73C202.098 341.024 227.676 339.538 234.211 378.697C236.339 391.412 208.959 398.17 207.532 385.666C206.317 375.099 208.796 360.173 195.313 357.537C190.38 356.575 179.989 361.06 178.662 366.581C181.879 376.473 191.319 395.622 178.612 400.805C171.475 403.716 158.217 405.702 157.403 394.91C156.953 388.989 159.356 373.288 152.295 359.798C147.1 349.893 135.019 341.037 145.773 330.057C149.403 326.348 159.394 321.838 164.452 323.562C172.765 326.41 169.272 343.66 173.729 349.918C182.518 334.517 179.012 306.125 196.539 296.669C213.065 287.751 225.585 307.237 215.744 321.039C214.042 323.425 208.07 328.696 205.391 325.748L205.366 325.76Z" fill="#001229" />
    <path d="M433.184 387.015C425.96 388.727 412.702 387.665 414.542 377.685L409.684 383.193C402.824 390.675 389.378 390.725 382.667 383.106C368.658 367.205 396.426 331.519 385.121 310.747C381.979 304.976 374.492 304.264 379.149 296.632C384.758 287.451 401.008 286.502 408.62 293.834C424.195 308.835 405.002 340.737 401.91 357.475C401.021 362.271 400.72 372.663 408.533 369.491C421.578 364.182 422.855 328.334 429.303 316.655C436.113 304.326 453.866 308.011 453.916 320.414C453.979 335.641 436.338 356.875 433.897 373.488C432.357 383.968 440.808 378.022 443.274 380.882C444.676 382.506 440.908 390.613 440.22 393.186" fill="#001229" />
    <path d="M266.186 354.302C273.748 349.093 278.655 332.106 281.009 323.987C284.639 311.496 285.754 281.718 305.121 280.394C324.464 279.07 315.362 308.236 313.622 317.891C311.869 327.647 312.208 337.777 315.1 347.469C316.577 352.453 320.408 358.399 321.222 363.046C322.974 373.038 305.91 377.822 298.273 369.803C288.095 359.123 297.51 328.059 299.65 315.593C300.051 313.282 301.416 306.55 296.921 309.985C289.61 315.568 286.542 343.273 284.051 352.466C280.871 364.17 272.42 384.63 253.754 377.547C240.308 372.451 240.771 356.575 254.205 352.978C255.895 353.078 256.496 355.064 257.597 355.501C260.627 356.725 263.845 355.938 266.211 354.302H266.186Z" fill="#001229" />
    <path d="M485.29 390.013C482.623 392.374 480.833 395.547 478.079 397.87C469.39 405.202 456.069 406.501 449.496 395.834C436.739 375.162 466.949 341.049 488.883 352.291C491.399 353.578 492.263 355.239 494.467 356.575C496.695 350.467 499.625 341.924 496.332 335.728C493.741 330.869 485.991 328.658 485.415 335.728C485.115 339.338 488.257 340.537 482.911 343.21C467.788 350.767 456.783 331.294 471.744 321.876C484.576 313.794 504.645 321.813 510.504 335.279C519.806 356.638 498.072 376.198 503.769 393.286C505.321 397.945 509.014 397.733 505.797 404.228C504.595 406.651 500.213 409.536 497.546 409.724C485.603 410.586 483.049 399.544 485.29 390.026V390.013ZM482.435 361.572C475.775 362.184 466.736 376.573 470.392 382.469C472.42 385.741 477.127 384.317 479.819 382.556C485.866 378.622 494.917 360.423 482.423 361.572H482.435Z" fill="#001229" />
    <path d="M346.323 319.89C360.345 310.284 375.081 319.865 376.883 335.691C379.337 357.35 364.89 378.572 341.278 373.238C314.724 367.242 325.29 333.205 327.031 314.669C327.619 308.436 328.095 300.741 327.657 294.496C327.131 287.089 321.735 276.784 331.976 274.436C338.035 273.037 343.481 273.724 348.452 277.596C359.869 286.477 348.727 308.673 346.323 319.902V319.89ZM364.564 346.383C365.916 345.009 359.206 342.848 358.242 342.148C353.497 338.713 353.622 329.82 352.971 329.583C351.444 329.046 350.417 333.655 349.741 334.841C347.938 338.014 346.123 339.438 342.63 340.462C341.303 340.849 334.304 341.187 337.948 343.123C340.264 344.347 343.544 345.196 345.272 347.395C347.124 349.743 348.101 355.301 347.7 358.249C350.304 359.286 350.392 355.139 351.657 352.903C354.661 347.557 358.843 346.845 364.589 346.383H364.564Z" fill="#001229" />
    <path d="M250.937 287.651C213.741 286.777 214.705 355.851 252.414 349.181C282.574 343.835 283.287 288.413 250.937 287.651ZM248.796 327.522C243.888 327.234 240.208 322.126 240.558 316.118C240.921 310.109 245.19 305.475 250.098 305.775C255.006 306.062 258.686 311.171 258.336 317.179C257.973 323.187 253.704 327.809 248.796 327.522Z" fill="#001229" />
    <path d="M443.55 382.856C440.182 395.559 437.04 413.271 418.911 409.137C408.583 406.788 407.506 394.935 416.47 390.725C422.192 388.04 430.692 395.234 434.824 383.481" fill="#001229" />
    <path d="M113.911 5.34607L106.086 26.0059L103.131 24.8942L106.261 16.6378L101.842 15.1514L98.8746 23.2954L95.9075 22.2212L103.469 1.46143L106.436 2.53564L102.918 12.191L107.375 13.6899L110.956 4.23439L113.911 5.34607Z" fill="#001229" />
    <path d="M116.965 25.3438L113.022 23.9573L111.156 27.6172L108.064 26.4555L118.305 6.78247L123.526 8.60613L119.231 30.4026L116.177 29.3784L116.978 25.3313L116.965 25.3438ZM117.579 22.2211L119.87 10.6921L119.958 10.3798L114.474 21.1219L117.591 22.2086L117.579 22.2211Z" fill="#001229" />
    <path d="M132.327 24.6943C130.574 25.7935 128.458 26.0933 126.192 25.5687L123.901 32.2013L120.909 31.1771L128.183 10.1176L130.662 10.817C132.79 11.4666 134.38 12.8031 135.256 14.6892C136.033 16.3505 136.17 18.2865 135.644 20.1602C135.106 22.0838 133.917 23.6951 132.314 24.7068L132.327 24.6943ZM132.615 19.2983C133.378 16.6003 131.951 14.7267 130.198 13.9897L127.231 22.5709C130.349 23.1455 132.076 21.2219 132.615 19.3108V19.2983Z" fill="#001229" />
    <path d="M147.15 27.0801C145.46 32.601 143.319 35.9361 140.777 36.9728C139.826 37.36 138.824 37.41 137.885 37.1352C137.622 37.0478 137.347 36.9478 137.097 36.8104C136.07 36.2608 134.781 34.9618 134.53 31.9265C134.342 29.6782 134.756 26.8802 135.757 23.6201C136.721 20.4725 137.785 18.2616 139.025 16.8501C140.84 14.7766 142.806 14.6642 144.145 14.939C145.647 15.2513 146.774 16.0007 147.475 17.1874C148.69 19.2359 148.59 22.3836 147.15 27.0926V27.0801ZM144.12 26.1558C145.61 21.3093 145.159 19.4482 144.759 18.7862C144.596 18.5114 144.308 18.1741 143.507 18.0118C142.868 17.8869 140.94 17.4871 138.774 24.532C136.934 30.5401 137.685 33.5378 138.586 34.025C138.899 34.1999 139.212 34.1999 139.563 34.0625C141.829 33.1381 143.619 27.7796 144.108 26.1558H144.12Z" fill="#001229" />
    <path d="M158.342 42.3438L144.271 38.4217L145.122 35.3864L147.025 35.9235C150.255 31.2395 153.535 19.8853 153.573 19.7729L154.011 18.249L162.749 20.7847L157.504 38.8464L159.206 39.321L158.355 42.3563L158.342 42.3438ZM150.205 36.7979L154.449 37.9845L158.831 22.9206L156.152 22.1462C155.175 25.2814 152.796 32.501 150.205 36.7979Z" fill="#001229" />
    <path d="M176.408 24.3072L170.887 45.6915L167.82 44.9045L170.023 36.3608L165.466 35.3616L163.413 43.7679L160.345 43.0184L165.591 21.5592L168.658 22.3087L166.217 32.2888L170.812 33.2881L173.341 23.5078L176.408 24.2947V24.3072Z" fill="#001229" />
    <path d="M180.164 32.0265C182.467 32.6135 184.208 34.1249 185.034 36.3108C186.123 39.1587 185.46 42.5562 183.381 44.7671C181.566 46.6907 178.949 47.3902 176.107 46.7406C175.832 46.6782 175.557 46.6032 175.281 46.5158L173.904 46.0786L178.486 24.7693L181.579 25.4313L180.164 32.0265ZM182.079 37.435C181.754 36.5731 181.04 35.5489 179.5 35.1117L177.635 43.7928C179.025 43.9302 180.201 43.518 181.078 42.5937C182.305 41.2946 182.73 39.1212 182.079 37.435ZM184.834 48.7517L189.578 27.2799L192.658 27.9544L187.913 49.4262L184.834 48.7517Z" fill="#001229" />
    <path d="M198.818 51.4622L197.529 43.2932L192.834 50.1881L189.353 49.4387L196.827 38.834L195.187 28.4541L198.48 29.1161L199.406 35.1617L203.05 29.9905L206.117 30.665L200.082 39.5335L202.011 52.0492L198.818 51.4497V51.4622Z" fill="#001229" />
    <path d="M219.062 55.097L217.497 46.9904L213.04 54.0352L209.535 53.3982L216.646 42.5437L214.668 32.2388L217.985 32.7884L219.112 38.7964L222.58 33.5003L225.672 34.0749L219.938 43.1433L222.28 55.5841L219.062 55.097Z" fill="#001229" />
    <path d="M238.054 35.9111C238.029 36.0235 236.051 47.1404 235.112 51.9493C234.599 54.5724 232.934 56.421 230.542 57.0456C229.666 57.2704 228.765 57.3079 227.888 57.183C226.261 56.9457 224.733 56.1462 223.669 54.8847L226.085 52.8487C226.937 53.8479 228.439 54.3226 229.741 53.9853C230.58 53.773 231.644 53.136 232.007 51.3373C232.082 50.9376 232.17 50.5004 232.258 50.0257C231.531 50.6128 230.68 50.9626 229.616 50.8127C229.065 50.7377 228.539 50.5753 228.038 50.3505C226.035 49.4012 225.046 47.3902 225.409 44.9545L226.962 34.2623L230.092 34.712L228.539 45.4041C228.477 45.7914 228.314 46.9905 229.403 47.5026C230.517 48.0272 231.945 47.6275 232.846 46.903C233.797 41.7568 234.924 35.449 234.937 35.3615L238.054 35.9111Z" fill="#001229" />
    <path d="M249.948 59.5562L235.45 57.795L235.826 54.6598L237.779 54.8972C240.258 49.7759 241.785 38.072 241.798 37.9471L241.998 36.3733L251.012 37.5599L248.558 56.1962L250.311 56.4086L249.923 59.5437L249.948 59.5562ZM244.727 39.9207C244.239 43.1683 242.987 50.6628 241.071 55.2969L245.441 55.8215L247.481 40.2829L244.727 39.9207Z" fill="#001229" />
    <path d="M264.02 49.2138C263.456 54.9596 262.004 58.6444 259.725 60.1683C258.862 60.7429 257.898 60.9927 256.921 60.8927C256.646 60.8678 256.358 60.8053 256.082 60.7304C254.955 60.3931 253.441 59.3689 252.602 56.446C251.976 54.2726 251.826 51.4497 252.164 48.0647C252.489 44.7921 253.09 42.4063 254.029 40.7825C255.394 38.3968 257.309 37.8972 258.674 37.8972C260.214 37.8972 261.453 38.4218 262.38 39.446C263.982 41.2072 264.495 44.3174 264.007 49.2263L264.02 49.2138ZM260.877 48.9016C261.378 43.8553 260.564 42.1315 260.051 41.5445C259.838 41.3071 259.488 41.0323 258.674 41.0323C258.023 41.0323 256.045 41.0323 255.319 48.352C254.705 54.5974 256.032 57.4078 257.009 57.6951C257.359 57.795 257.66 57.7451 257.985 57.5327C260.013 56.1837 260.714 50.5753 260.89 48.8891L260.877 48.9016Z" fill="#001229" />
    <path d="M276.452 49.9258L275.588 50.9375L274.837 61.3549L271.682 61.13L272.433 50.7876L271.632 49.5136L266.887 61.0426L263.093 60.7303L269.854 46.6532L265.384 39.4709L269.228 39.7083L272.758 46.241L273.209 39.9581L276.364 40.1829L275.901 46.5532L280.545 40.4577L284.351 40.695L278.73 47.2902L283.087 62.1168L279.394 61.892L276.464 49.9632L276.452 49.9258Z" fill="#001229" />
    <path d="M294.83 62.7164L284.74 62.4041L285.591 40.5452L295.143 40.9699L295.006 44.1175L288.633 43.8303L288.458 48.2645L293.29 48.3894L293.203 51.5371L288.32 51.4122L288.007 59.3314L294.918 59.5437L294.818 62.6914L294.83 62.7164Z" fill="#001229" />
    <path d="M307.362 54.9846C307.337 55.8839 307.187 58.1822 306.311 60.1932C305.322 62.4416 303.694 63.6532 301.704 63.6032C298.974 63.5408 297.672 61.2425 297.146 59.881C296.395 57.9574 296.057 55.2844 296.132 51.9368C296.207 48.7142 296.571 46.2535 297.234 44.4298C298.473 40.9949 300.639 40.3204 302.229 40.3578C303.569 40.3953 304.733 40.9199 305.585 41.8942C306.949 43.4555 307.425 45.9912 307.024 49.651L303.882 49.3013C304.27 45.7788 303.632 44.4423 303.206 43.9677C303.043 43.7803 302.743 43.518 302.154 43.5055C300.94 43.4805 300.427 44.892 300.214 45.4915C299.675 46.978 299.375 49.1639 299.3 52.0118C299.175 57.0955 300.151 60.4056 301.791 60.4556C302.755 60.4805 303.268 59.3189 303.431 58.9442C303.882 57.9074 304.182 56.396 304.22 54.9096L307.375 54.9846H307.362Z" fill="#001229" />
    <path d="M315.212 44.3424L315.3 63.0661H312.132L312.045 44.3424H308.351V41.1947H318.943V44.3424H315.2H315.212Z" fill="#001229" />
    <path d="M331.6 56.5335C331.625 58.2947 330.886 59.931 329.522 61.1301C328.07 62.4041 326.004 63.1036 323.537 63.1411L320.908 63.1786L320.295 41.457L322.173 41.2697C326.68 40.5702 328.796 42.4188 329.647 43.5805C330.874 45.2418 331.049 47.4776 330.11 49.4262C329.735 50.2006 329.209 50.8626 328.57 51.3872C328.946 51.6121 329.296 51.8744 329.634 52.1742C330.874 53.3108 331.588 54.8972 331.625 56.5335H331.6ZM323.7 50.1007H324.401C325.728 50.0507 326.843 49.3387 327.268 48.0272C327.569 47.1029 327.644 46.1661 327.106 45.4416C326.467 44.5922 325.203 44.18 323.537 44.28L323.7 50.1007ZM328.445 56.5709C328.42 54.5099 326.404 52.7737 324.451 52.8112H323.788L323.976 59.9559C325.453 59.8685 326.642 59.4563 327.431 58.7568C328.095 58.1698 328.458 57.3953 328.445 56.5709Z" fill="#001229" />
    <path d="M344.007 62.4791L333.916 62.9912L332.977 41.1323L342.53 40.7825L342.642 43.9302L336.27 44.155L336.458 48.6018L341.29 48.3395L341.466 51.4872L336.595 51.762L336.933 59.6811L343.844 59.3314L344.007 62.4791Z" fill="#001229" />
    <path d="M355.75 39.9581L356.965 62.0044L353.81 62.1793L353.321 53.3608L348.677 53.7854L349.265 62.4166L346.11 62.6289L344.608 40.5951L347.763 40.3828L348.464 50.6253L353.146 50.2006L352.595 40.1205L355.75 39.9456V39.9581Z" fill="#001229" />
    <path d="M369.084 38.9089L370.811 60.9302L367.656 61.18L366.968 52.374L362.336 52.9111L363.124 61.5297L359.969 61.817L357.966 39.8207L361.109 39.5334L362.048 49.7634L366.73 49.2263L365.941 39.1587L369.096 38.9089H369.084Z" fill="#001229" />
    <path d="M381.127 47.4651C383.08 49.8134 383.556 53.2359 382.304 55.9963C381.215 58.3946 378.961 59.9059 376.057 60.2182C375.781 60.2432 375.494 60.2682 375.206 60.2682L373.766 60.3056L371.174 38.6591L374.317 38.2843L375.118 44.9794C377.484 44.7921 379.625 45.6539 381.127 47.4526V47.4651ZM378.699 49.4886C378.11 48.7766 377.096 48.0397 375.494 48.1271L376.545 56.9456C377.91 56.6209 378.886 55.8589 379.425 54.6973C380.163 53.0735 379.863 50.8751 378.699 49.4886ZM384.983 59.3064L382.492 37.4475L385.634 37.0977L388.126 58.9566L384.983 59.3064Z" fill="#001229" />
    <path d="M399.105 57.3453L395.237 50.0382L393.046 58.0823L389.503 58.4945L393.121 46.0411L388.201 36.7605L391.531 36.3233L394.373 41.7318L396.138 35.6613L399.256 35.3115L396.426 45.6539L402.323 56.8707L399.105 57.3453Z" fill="#001229" />
    <path d="M418.611 32.2138L422.242 54.0103L419.124 54.5224L416.019 35.8736L411.237 36.723L414.417 55.2968L411.3 55.8339L407.594 34.1749L418.623 32.2138H418.611Z" fill="#001229" />
    <path d="M431.781 42.4438C430.78 44.255 429.065 45.529 426.836 46.1661L428.038 53.086L424.921 53.6231L421.102 31.6642L423.619 31.0772C425.797 30.615 427.838 31.0147 429.528 32.2513C431.005 33.338 432.069 34.9743 432.508 36.8604C432.958 38.809 432.708 40.7825 431.781 42.4438ZM429.415 37.5849C428.777 34.8494 426.623 33.8876 424.72 34.0999L426.273 43.0434C429.278 42.0441 429.866 39.521 429.403 37.5849H429.415Z" fill="#001229" />
    <path d="M445.903 37.3975C447.105 43.0559 446.842 47.003 445.127 49.1389C444.476 49.9383 443.625 50.4754 442.673 50.6753C442.398 50.7377 442.11 50.7627 441.822 50.7627C440.645 50.7752 438.892 50.2631 437.215 47.7149C435.963 45.8288 434.974 43.1808 434.26 39.8457C433.584 36.6231 433.446 34.1749 433.835 32.3387C434.41 29.6532 436.088 28.604 437.39 28.1918C438.855 27.7296 440.207 27.8545 441.396 28.554C443.45 29.7531 444.889 32.5636 445.903 37.385V37.3975ZM442.648 47.1528C444.176 45.2542 443.149 39.6958 442.799 38.047C441.747 33.0757 440.457 31.6767 439.781 31.277C439.506 31.1146 439.093 30.9648 438.317 31.2021C437.691 31.4019 435.813 31.989 437.34 39.1962C438.642 45.3417 440.745 47.615 441.772 47.6025C442.135 47.6025 442.398 47.4651 442.648 47.1528Z" fill="#001229" />
    <path d="M466.586 44.5422L463.518 45.2917L459.036 27.0551L460.138 45.0044L456.971 45.7538L449.334 29.3659L453.778 47.6025L450.711 48.3519L445.515 27.0676L450.736 25.6936L457.071 39.6333L455.994 24.2571L461.34 23.158L466.611 44.5672L466.586 44.5422Z" fill="#001229" />
    <path d="M474.536 29.7532C476.839 31.7642 477.853 35.0742 477.052 37.9971C476.351 40.5452 474.373 42.3814 471.556 43.1433C471.28 43.2183 471.005 43.2807 470.73 43.3307L469.315 43.593L463.331 22.6334L466.373 21.7715L468.226 28.2543C470.529 27.6922 472.783 28.2168 474.548 29.7532H474.536ZM472.457 32.1264C471.756 31.5144 470.642 30.9523 469.077 31.2895L471.518 39.8332C472.808 39.2961 473.659 38.3968 473.997 37.1602C474.473 35.4365 473.822 33.3255 472.457 32.1264ZM480.219 40.8325L474.298 19.6481L477.34 18.7987L483.262 39.9831L480.219 40.8325Z" fill="#001229" />
    <path d="M494.016 28.3791C494.266 29.241 494.842 31.4768 494.63 33.6627C494.392 36.0984 493.202 37.7597 491.299 38.3218C488.683 39.0962 486.73 37.31 485.803 36.1734C484.489 34.5746 483.337 32.1388 482.385 28.9287C481.459 25.831 481.046 23.3828 481.108 21.4467C481.234 17.7869 483.074 16.4879 484.601 16.0382C485.891 15.651 487.155 15.8009 488.27 16.4629C490.06 17.5246 491.287 19.7979 492.038 23.3953L488.946 24.0323C488.22 20.5599 487.205 19.4857 486.655 19.1609C486.442 19.036 486.079 18.8736 485.503 19.0485C484.338 19.3982 484.288 20.8971 484.276 21.5466C484.226 23.1205 484.614 25.3064 485.415 28.0294C486.867 32.9133 488.82 35.7612 490.398 35.2865C491.324 35.0117 491.45 33.7502 491.487 33.338C491.6 32.2013 491.412 30.6774 490.986 29.266L494.016 28.3666V28.3791Z" fill="#001229" />
    <path d="M509.615 31.9765L506.611 32.9632L500.689 14.9515L497.747 15.9258C498.761 19.2358 501.19 27.3299 501.74 30.0279C502.116 31.8516 501.953 33.0382 501.302 34.1374C500.651 35.2241 498.636 35.9486 497.033 35.1491L497.196 32.7259C498.573 32.9133 498.949 31.9515 498.648 30.64C497.922 27.4423 494.316 15.4886 494.279 15.3762L493.828 13.9023L502.717 10.9669L509.628 31.989L509.615 31.9765Z" fill="#001229" />
    <path d="M519.23 16.3005C521.133 21.759 521.359 25.7061 519.931 28.0419C519.393 28.9162 518.617 29.5532 517.69 29.8655C517.428 29.9529 517.152 30.0279 516.864 30.0654C515.7 30.2277 513.897 29.928 511.906 27.6172C510.429 25.9059 509.115 23.4078 507.988 20.1851C506.911 17.0749 506.46 14.6642 506.623 12.7906C506.861 10.0551 508.388 8.806 509.628 8.23142C511.03 7.59439 512.382 7.54443 513.647 8.09402C515.838 9.03084 517.615 11.6414 519.23 16.288V16.3005ZM516.251 17.3372C514.586 12.5408 513.133 11.3167 512.407 11.0044C512.107 10.8795 511.681 10.7795 510.942 11.1168C510.354 11.3916 508.551 12.2035 510.967 19.1609C513.033 25.094 515.412 27.0801 516.426 26.9427C516.789 26.8927 517.039 26.7303 517.24 26.3931C518.517 24.3071 516.802 18.9361 516.251 17.3372Z" fill="#001229" />
    <path d="M533.327 16.6252C533.941 18.274 533.791 20.0602 532.902 21.6465C531.963 23.3328 530.235 24.6693 527.931 25.5312L525.465 26.443L517.64 6.17043L519.343 5.37102C523.349 3.21011 525.966 4.24684 527.168 5.05875C528.883 6.22039 529.797 8.26889 529.546 10.4173C529.446 11.2667 529.171 12.0661 528.745 12.7781C529.183 12.8655 529.597 13.0029 530.01 13.1653C531.55 13.8273 532.764 15.0764 533.34 16.6128L533.327 16.6252ZM523.737 13.2028L524.388 12.9529C525.628 12.4783 526.442 11.4416 526.404 10.0551C526.379 9.08079 526.129 8.16896 525.39 7.66933C524.514 7.06977 523.174 7.11973 521.634 7.75676L523.725 13.1903L523.737 13.2028ZM530.373 17.7244C529.659 15.7884 527.18 14.8266 525.352 15.5011L524.726 15.7259L527.293 22.3835C528.645 21.8089 529.634 21.022 530.147 20.0977C530.573 19.3233 530.661 18.4739 530.373 17.6995V17.7244Z" fill="#001229" />
    <path d="M274.048 12.3909C273.797 15.3387 272.546 17.7744 270.542 19.2234C269.165 20.2351 267.538 20.3975 265.81 20.2726L265.622 22.2711L262.48 21.9838L262.655 19.9978C260.977 19.8104 259.438 19.3608 258.273 18.1616C256.558 16.3755 255.744 13.7774 256.007 10.8295C256.32 7.24467 257.359 4.78398 259.187 3.29758C260.477 2.24835 262.38 1.68626 264.308 1.88611L264.483 0L267.625 0.287289L267.463 2.09846C269.528 2.18589 271.106 3.14769 272.207 4.42175C273.747 6.19544 274.348 8.80603 274.035 12.3784L274.048 12.3909ZM260.564 15.9758C261.203 16.6378 262.004 17.05 262.918 17.2123L264.045 4.84644C262.83 4.87142 261.891 5.1712 261.19 5.74578C260.064 6.6576 259.4 8.41881 259.162 11.1043C258.987 13.1278 259.488 14.8641 260.564 15.9882V15.9758ZM268.689 16.6877C269.941 15.7759 270.73 14.1521 270.905 12.1286C271.143 9.44306 270.793 7.59442 269.841 6.50772C269.253 5.83321 268.377 5.37105 267.212 5.13373L266.085 17.5121C267.049 17.5246 267.938 17.2498 268.702 16.7002L268.689 16.6877Z" fill="#001229" />
    <path d="M285.34 23.5826L275.25 23.1205L276.439 1.27405L285.992 1.84863L285.804 4.99631L279.431 4.6091L279.193 9.04334L284.026 9.24319L283.901 12.3909L279.031 12.191L278.605 20.0977L285.516 20.4225L285.366 23.5702L285.34 23.5826Z" fill="#001229" />
    <path d="M297.935 16.0507C297.897 16.9501 297.71 19.2484 296.796 21.2469C295.782 23.4827 294.117 24.6569 292.126 24.5819C289.397 24.4695 288.132 22.1587 287.619 20.7847C286.893 18.8487 286.592 16.1631 286.73 12.8281C286.868 9.60545 287.256 7.15725 287.957 5.33359C289.259 1.91111 291.425 1.27408 293.015 1.33653C294.354 1.3865 295.519 1.93609 296.345 2.92287C297.685 4.5092 298.123 7.05733 297.66 10.7046L294.517 10.3049C294.968 6.78253 294.342 5.44601 293.929 4.95887C293.766 4.77151 293.478 4.5092 292.877 4.48422C291.663 4.43425 291.137 5.84572 290.899 6.44528C290.336 7.91919 289.998 10.1051 289.885 12.953C289.672 18.0368 290.599 21.3718 292.251 21.4343C293.215 21.4717 293.741 20.3226 293.916 19.9478C294.392 18.9111 294.705 17.4122 294.768 15.9258L297.922 16.0507H297.935Z" fill="#001229" />
    <path d="M305.872 5.52089L305.76 24.2446L302.592 24.2196L302.705 5.48342L299.012 5.44594L299.037 2.28577L309.628 2.38569L309.603 5.54587L305.86 5.5084L305.872 5.52089Z" fill="#001229" />
    <path d="M322.073 24.4321L318.918 24.4696L318.768 10.2925L314.524 24.2822L311.156 24.3197L310.93 2.71055L314.098 2.67308L314.236 16.5878L318.617 2.52319L321.847 2.48572L322.098 24.4321H322.073Z" fill="#001229" />
    <path d="M335.769 17.6995C335.807 19.4607 335.081 21.097 333.728 22.3086C332.289 23.5952 330.223 24.3072 327.757 24.3571L325.127 24.4196L324.364 2.72304L326.242 2.52318C330.736 1.79872 332.865 3.62238 333.728 4.77153C334.968 6.42032 335.168 8.65617 334.229 10.6047C333.854 11.3792 333.328 12.0412 332.702 12.5783C333.077 12.8031 333.44 13.0654 333.766 13.3652C335.005 14.4894 335.744 16.0757 335.782 17.712L335.769 17.6995ZM327.832 11.3292L328.533 11.3042C329.86 11.2668 330.962 10.5423 331.387 9.23075C331.688 8.30643 331.738 7.35713 331.212 6.65764C330.573 5.80827 329.296 5.40856 327.644 5.52098L327.844 11.3292H327.832ZM332.614 17.7745C332.564 15.7135 330.548 14.0022 328.595 14.0397H327.932L328.17 21.1845C329.647 21.0845 330.824 20.6598 331.613 19.9604C332.276 19.3733 332.627 18.5989 332.602 17.7745H332.614Z" fill="#001229" />
    <path d="M345.059 19.6855L340.89 19.8728L340.527 23.9698L337.221 24.0448L339.375 1.98598L344.896 1.74866L349.052 23.5576L345.835 23.745L345.071 19.6855H345.059ZM344.47 16.5628L342.292 5.00876L342.254 4.69649L341.178 16.7002L344.47 16.5503V16.5628Z" fill="#001229" />
    <path d="M362.736 22.7708L359.581 22.9956L358.217 4.08451L355.124 4.32184C355.299 7.7693 355.688 16.2256 355.575 18.9611C355.5 20.8222 355.062 21.9339 354.16 22.8332C353.271 23.7326 351.13 23.9449 349.766 22.7833L350.505 20.4725C351.794 20.9846 352.395 20.1352 352.42 18.7987C352.483 15.5261 351.894 3.06027 351.894 2.93536L351.807 1.39899L361.146 0.687012L362.736 22.7583V22.7708Z" fill="#001229" />
    <path d="M374.254 18.1242C373.115 20.5099 370.836 21.9713 367.932 22.2336C367.656 22.2586 367.368 22.2711 367.08 22.2711H365.641L363.437 0.587051L366.58 0.27478L367.256 6.99484C369.622 6.84495 371.75 7.75678 373.215 9.58044C375.13 11.9662 375.544 15.4012 374.242 18.1367L374.254 18.1242ZM370.761 11.554C370.185 10.8295 369.184 10.0801 367.581 10.13L368.483 18.9735C369.847 18.6738 370.849 17.9243 371.4 16.7752C372.163 15.1638 371.9 12.9655 370.761 11.554Z" fill="#001229" />
</svg>