<svg xmlns="http://www.w3.org/2000/svg" width="297" height="185" viewBox="0 0 297 185" fill="none">
    <g clip-path="url(#clip0_20_2715)">
        <path d="M57.3375 13.8453C63.724 8.31831 74.1401 12.7033 72.6198 21.5282C71.6979 26.8721 69.0236 32.7106 68.0162 38.3536C66.154 48.7726 66.3494 62.9535 72.4672 72.0105C74.3233 74.7588 77.0708 75.6749 74.5614 79.4614C71.4292 84.1945 64.0659 85.0556 60.0972 80.8416C50.6885 70.8441 56.5499 48.6871 57.8626 36.7658C58.6136 29.9867 55.8844 35.2756 54.8403 37.8834C51.5739 46.0548 50.3466 54.9347 49.6323 63.552C49.3758 66.6301 50.0719 69.928 46.7016 71.2349C35.0949 75.7421 33.8677 56.1867 33.5563 49.255C33.2266 41.8836 34.2706 31.0555 32.3779 24.1971C32.2131 23.6108 32.1459 23.1405 31.6208 22.7252C31.0408 22.6947 30.4058 26.0903 30.3142 26.7499C28.2078 42.1157 32.3413 74.4901 17.578 84.6281C10.7092 89.3428 0.537283 84.1944 0.00609739 76.1451C-0.293076 71.6075 2.47886 71.9983 5.37901 69.9097C19.7149 59.6068 20.0141 33.0342 20.759 17.2165C21.0948 10.1566 21.5527 0.965212 29.4961 0.0796649C41.1394 -1.22117 43.197 13.3323 43.2153 21.9985C43.2275 27.6843 42.6048 33.4007 42.8368 39.0865C42.8856 40.2163 43.1726 46.177 44.1556 46.4579C45.0409 46.3907 45.2179 44.98 45.4561 44.2715C48.5211 35.0557 49.4186 20.6793 57.3131 13.8392L57.3375 13.8453Z" fill="#F5EDD8" />
        <path d="M48.6187 101.288C57.136 95.5109 67.9001 91.1137 78.3285 90.8878C101.676 90.3931 104.808 110.052 92.353 126.181C82.12 139.434 57.7588 153.53 40.6387 150.891C30.7049 149.364 23.8056 142.14 25.5884 131.721C26.1624 128.38 29.2091 123.164 32.4328 121.79C36.2915 120.147 35.3452 123.415 36.896 125.925C42.0125 134.212 57.4596 128.594 64.2673 125.082C70.495 121.87 82.6634 113.601 81.8941 105.625C81.6255 102.809 79.2993 100.928 76.7166 100.262C68.7 98.192 56.2202 102.821 49.7299 107.658C48.1241 108.855 44.705 112.538 43.3007 113.142C39.9915 114.565 37.2867 110.016 38.0011 107.011C38.8742 103.347 45.5537 96.7568 47.5685 92.8482C49.3331 89.4282 48.3989 89.0068 45.0408 90.2282C39.7839 92.1398 36.3526 96.1094 32.1825 99.3524C25.3137 104.696 19.9835 94.7109 23.3111 89.0861C26.1502 84.2798 38.8681 81.3544 44.1799 80.6154C47.9898 80.0841 53.088 79.3268 55.6584 82.8262C59.853 88.5365 50.8656 96.3476 48.6248 101.282L48.6187 101.288Z" fill="#F5EDD8" />
        <path d="M150.246 41.3155L153.794 35.7335C158.324 31.3424 165.944 32.4356 166.786 39.3795C168.801 35.6969 171.036 31.9898 175.383 30.8599C178.802 29.9683 182.459 30.8966 184.193 34.1639C187.619 40.6132 180.579 50.8 183.07 58.8188C184.059 62.0007 188.058 63.7534 184.028 67.3201C180.444 70.4958 174.894 69.8729 172.623 65.4573C169.32 59.0387 173.24 51.7222 174.156 45.4379C174.376 43.9355 174.504 42.0423 173.173 41.0285C171.616 40.5765 170.816 41.285 170.022 42.4942C168.459 44.8516 167.36 50.1038 167.079 52.9314C166.713 56.5958 167.525 60.8525 166.841 64.3458C165.925 69.0423 155.198 70.4592 154.911 64.016C154.673 58.6661 157.774 52.0215 157.61 45.9814C157.524 42.9706 155.613 40.9796 153.476 43.9599C149.587 49.377 151.382 58.4951 150.277 64.5657C149.068 71.2042 137.956 71.8699 138.255 64.8344C138.371 62.0923 139.684 58.66 140.062 55.8324C140.667 51.3252 140.892 46.1646 139.739 41.7491C138.945 38.7199 136.118 35.8373 139.268 33.3761C141.344 31.7516 144.538 31.5073 146.876 32.6432C149.868 34.0968 150.301 38.3413 150.246 41.3033V41.3155Z" fill="#F5EDD8" />
        <path d="M252.234 49.7557C247.056 54.0429 239.351 54.6109 233.716 50.7939C233.716 53.1085 233.661 55.4354 233.825 57.7439C234.002 60.1807 235.578 66.5627 234.857 68.2667C234.277 69.6347 231.218 70.9355 229.796 71.0271C215.655 71.9249 222.561 56.8767 223.568 49.0533C224.258 43.679 224.582 36.9122 222.591 31.8127C221.01 27.7513 216.498 24.8687 221.071 20.6303C226.926 15.2071 240.523 14.3949 247.697 17.0149C261.307 21.9983 262.705 41.0834 252.234 49.7496V49.7557ZM236.665 24.826C235.968 24.8932 234.57 25.394 234.234 26.0108C233.673 27.0368 234.912 32.3928 234.918 34.1945C234.918 35.8129 233.978 42.5492 234.546 43.3003C234.894 43.7645 236.829 44.4119 237.464 44.5096C241.763 45.1325 245.597 41.3216 246.366 37.2786C247.728 30.1454 244.675 24.0748 236.671 24.8321L236.665 24.826Z" fill="#F5EDD8" />
        <path d="M275.759 64.9749L272.48 70.2516C263.315 80.1514 251.91 73.7144 253.528 60.6388C254.584 52.107 263.511 40.3689 273.078 43.221C275.722 44.0088 277.041 45.8044 278.415 48.0457C279.459 44.3753 280.79 36.7474 276.809 34.4083C275.124 33.4189 273.426 33.6571 273.286 35.8374C273.176 37.4863 274.739 38.3536 272.285 39.575C266.075 42.6592 258.645 36.045 263.529 29.7546C267.699 24.3863 277.56 26.359 281.974 30.4691C294.161 41.8286 281.174 55.069 285.033 66.1353C285.833 68.4255 287.353 68.6515 287.933 69.7447C289.008 71.7601 286.071 74.9114 284.233 75.5527C277.517 77.9161 275.032 70.2211 275.753 64.9811L275.759 64.9749ZM272.517 49.6825C268.151 50.1222 263.218 61.0419 267.51 62.9473C271.179 64.578 275.069 58.4219 275.594 55.4049C276.039 52.8399 276.058 49.3282 272.51 49.6886L272.517 49.6825Z" fill="#F5EDD8" />
        <path d="M95.0151 63.277L92.1089 68.6758C82.6697 80.0597 71.0752 72.3402 73.438 58.4646C74.7996 50.4519 83.1581 41.004 91.9929 43.1476C93.1468 43.4286 93.8978 44.3202 94.9419 44.7172C94.6244 40.9368 94.5328 32.1607 89.7033 31.2813C87.4625 30.8721 85.7286 31.9958 86.0522 34.451C86.3208 36.4969 88.7875 36.8083 86.3635 39.2573C82.3827 43.2698 74.9034 41.059 74.8606 34.8113C74.7751 22.9755 96.1813 21.4609 101.505 33.5898C105.114 41.8163 101.463 56.4003 105.242 62.2877C106.536 64.3031 108.014 63.729 107.269 67.1368C106.829 69.1644 103.942 71.5157 101.902 71.6989C97.3536 72.102 95.0396 67.1796 95.0151 63.277ZM90.0269 48.4243C86.0827 49.0167 83.0116 59.0753 85.8751 61.4815C88.3478 63.558 91.4495 60.1135 92.4081 57.9454C93.562 55.3315 94.8686 47.6975 90.0269 48.4243Z" fill="#F5EDD8" />
        <path d="M144.727 82.0081C140.032 81.7455 139 84.5609 138.267 88.5367C136.319 99.035 132.809 120.819 118.809 121.717C102.983 122.737 105.389 99.8961 118.027 102.046C122.173 102.754 118.876 106.199 121.074 107.652C123.076 108.978 125.274 107.206 126.575 105.777C130.147 101.863 132.198 94.192 132.821 89.0008C133.12 86.4908 132.479 82.1363 133.773 80.2553C136.087 76.878 146.87 73.9771 150.857 74.1542C157.952 74.4718 153.275 83.1807 152.371 87.303C151.003 93.5507 150.747 99.8778 152.383 106.113C153.36 109.833 155.888 112.361 151.577 115.311C148.421 117.473 143.842 117.143 141.741 113.723C140.691 112.013 140.343 109.222 140.337 107.219C140.312 98.5892 143.628 90.4422 144.733 82.002L144.727 82.0081Z" fill="#F5EDD8" />
        <path d="M199.359 48.5891C198.706 56.0155 205.282 57.3896 210.948 54.4582C212.138 53.8413 215.362 51.2397 216.418 51.3618C218.177 51.5633 218.867 55.533 218.738 56.9805C218.146 63.6801 208.97 68.688 202.876 68.8101C179.003 69.2804 183.662 33.7119 202.766 28.0689C208.695 26.3161 216.809 27.6841 218.482 34.5669C221.169 45.6149 209.159 54.6841 199.359 48.583V48.5891ZM209.782 37.4434C208.799 36.3014 206.308 36.4785 205.044 37.1747C203.865 37.8282 200.275 41.8223 201.02 43.0254C203.072 43.7156 205.795 43.8988 207.748 42.7628C209.379 41.8162 211.29 39.1901 209.782 37.4434Z" fill="#F5EDD8" />
        <path d="M253.192 76.2367C255.445 75.8397 257.393 79.2353 257.466 81.1957C257.741 88.5305 251.019 90.9246 244.816 89.4832C241.195 88.6405 237.214 86.0021 233.838 85.3914C231.218 84.915 233.899 88.0969 234.406 89.1779C238.515 97.9845 240.707 108.727 240.517 118.48C240.462 121.29 240.023 129.974 238.625 132.008C236.677 134.842 231.328 134.06 228.856 132.289C223.843 128.698 227.305 123.268 228.428 118.682C230.925 108.477 230.895 96.2867 224.185 87.6389C221.749 84.4998 217.713 82.4477 221.23 78.0505C225.455 72.7617 235.541 77.4337 241.006 78.1482C243.967 78.5391 247.294 78.5696 250.17 77.678C251.159 77.3726 252.661 76.3344 253.199 76.2367H253.192Z" fill="#F5EDD8" />
        <path d="M123.778 31.7822C131.227 31.8188 137.314 37.4802 135.672 45.2303C134.598 50.2993 127.692 51.7528 124.371 47.8686C121.66 44.699 125.085 44.1554 125.805 42.1217C127.057 38.5673 123.339 37.1016 120.707 39.6056C118.064 42.1156 117.245 47.4533 117.789 50.9039C119.193 59.8449 128.058 61.2618 133.169 54.324C135.245 52.9743 136.515 57.9028 136.417 59.2891C135.941 66.1842 128.394 71.7112 121.696 71.2288C100.663 69.7142 102.323 31.6723 123.785 31.7761L123.778 31.7822Z" fill="#F5EDD8" />
        <path d="M176 113.57C174.553 114.822 171.958 116.239 170.028 116.349C150.863 117.467 151.351 78.5024 167.983 75.8336C184.523 73.177 187.167 103.896 176 113.57ZM168.111 84.9028C164.729 85.654 164.625 94.2896 164.839 96.9341C165.046 99.4624 166.725 108.41 170.785 106.449C174.772 104.525 173.954 93.8316 172.953 90.1795C172.355 87.9931 170.975 84.2616 168.111 84.8967V84.9028Z" fill="#F5EDD8" />
        <path d="M200.269 83.1867C200.287 87.8465 199.054 92.3292 198.419 96.8913C197.882 100.739 197.473 104.635 197.577 108.526C197.638 110.724 198.645 115.628 198.309 117.351C197.522 121.394 190.653 121.485 187.85 119.329C181.537 114.474 187.905 102.223 189.884 96.244C191.502 91.3399 192.918 86.448 192.991 81.2263C191.025 80.9942 189.285 80.9454 187.344 81.3057C185.036 81.7393 182.477 83.547 181.232 80.0904C179.767 76.0107 182.453 72.4258 186.684 72.2365C192.106 71.9983 198.505 75.0336 204.726 74.9542C207.132 74.9236 211.851 72.9449 213.323 73.348C216.693 74.258 216.553 79.8216 215.008 82.2401C211.912 87.077 204.677 84.3166 200.269 83.1867Z" fill="#F5EDD8" />
        <path d="M213.158 89.3244C232.018 87.7609 229.1 128.319 211.736 124.746C197.162 121.748 199.463 90.4603 213.158 89.3244ZM213.433 97.3126C210.325 97.7218 209.928 104.757 209.983 107.109C210.038 109.478 211.32 116.556 214.52 116.459C217.591 116.367 218.195 109.674 218.189 107.457C218.189 105.02 217.011 96.8362 213.433 97.3126Z" fill="#F5EDD8" />
        <path d="M114.095 99.9875C89.7704 101.197 91.0282 70.3003 113.735 73.0058C132.79 75.2716 131.752 99.1142 114.095 99.9875ZM113.246 93.9047C117.246 93.5872 117.325 88.2311 117.111 86.4417C116.891 84.6401 114.797 79.2474 110.652 79.3207C106.677 79.394 106.317 84.4935 106.457 86.1852C106.61 88.0418 108.643 94.2712 113.246 93.9047Z" fill="#F5EDD8" />
        <path d="M277.303 93.0985C284.978 83.9132 295.492 97.8743 286.394 104.47L283.824 106.021C292.921 104.183 299.259 110.657 296.249 119.714C293.77 127.177 285.521 129.094 279.495 124.3C281.138 128.472 282.89 132.289 279.691 136.277C274.965 142.152 263.486 141.883 260.202 134.597C258.797 131.488 259.634 128.355 260.489 125.241C255.14 130.524 247.862 130.487 245.243 122.621C242.819 115.353 246.959 110.357 254.322 110.174L250.591 108.025C242.947 102.815 250.488 91.6816 258.339 93.6481C260.14 94.1001 261.661 95.8284 262.98 97.0254C262.485 93.8191 261.447 90.9243 262.546 87.6936C263.602 84.5972 266.588 82.5574 269.812 82.4047C276.937 82.0627 279.117 86.7653 277.309 93.0924L277.303 93.0985ZM281.083 115.451C279.349 113.845 276.589 112.239 275.734 109.741C274.788 107.738 274.739 105.124 274.928 102.687C275.056 100.507 274.018 102.229 273.414 103.127C271.314 106.687 267.424 108.739 263.297 108.067C262.809 108.049 261.594 107.896 261.38 108.189C261.27 108.739 262.332 109.301 262.851 109.771C266.564 112.092 267.95 116.208 267.272 120.404C267.211 121.326 267.046 123.067 268.206 121.509C269.384 119.903 270.85 117.796 272.724 116.813C274.8 115.518 277.877 115.646 280.326 115.805C280.82 115.805 281.095 115.75 281.107 115.591L281.07 115.457L281.083 115.451Z" fill="#F5EDD8" />
        <path d="M100.138 143.935C99.4112 143.135 99.8508 142.201 97.8481 142.292C94.1726 142.457 91.3152 152.638 90.4604 155.655C98.5442 151.398 111.018 150.672 114.205 169.818C115.243 176.035 101.89 179.339 101.194 173.226C100.602 168.059 101.811 160.761 95.2349 159.472C92.8293 159.002 87.7617 161.194 87.1145 163.894C88.6836 168.731 93.2873 178.093 87.0901 180.627C83.6099 182.05 77.1441 183.022 76.7472 177.745C76.5274 174.85 77.6997 167.173 74.2562 160.577C71.7223 155.734 65.8304 151.404 71.0751 146.036C72.8458 144.222 77.718 142.018 80.1847 142.86C84.2388 144.253 82.5353 152.687 84.7089 155.747C88.995 148.216 87.2855 134.335 95.8333 129.712C103.893 125.351 109.998 134.878 105.199 141.627C104.369 142.793 101.457 145.37 100.15 143.929L100.138 143.935Z" fill="#F5EDD8" />
        <path d="M211.241 173.885C207.718 174.722 201.252 174.202 202.15 169.323L199.781 172.016C196.435 175.674 189.878 175.699 186.605 171.973C179.773 164.199 193.315 146.75 187.802 136.594C186.269 133.773 182.618 133.425 184.889 129.693C187.625 125.204 195.55 124.74 199.262 128.325C206.857 135.66 197.497 151.258 195.989 159.441C195.556 161.786 195.409 166.868 199.219 165.316C205.581 162.721 206.204 145.193 209.348 139.483C212.67 133.455 221.327 135.257 221.352 141.321C221.382 148.766 212.78 159.148 211.589 167.271C210.838 172.395 214.959 169.488 216.162 170.886C216.846 171.68 215.008 175.644 214.672 176.902" fill="#F5EDD8" />
        <path d="M129.799 157.89C133.486 155.343 135.88 147.038 137.028 143.068C138.798 136.961 139.342 122.401 148.787 121.754C158.22 121.106 153.781 135.367 152.933 140.088C152.078 144.857 152.243 149.81 153.653 154.55C154.374 156.986 156.242 159.893 156.639 162.165C157.493 167.051 149.172 169.39 145.447 165.469C140.483 160.248 145.075 145.059 146.119 138.964C146.314 137.834 146.98 134.542 144.788 136.222C141.222 138.952 139.726 152.498 138.511 156.992C136.96 162.715 132.839 172.719 123.736 169.256C117.178 166.764 117.404 159.002 123.956 157.243C124.78 157.292 125.073 158.263 125.61 158.476C127.088 159.075 128.657 158.69 129.811 157.89H129.799Z" fill="#F5EDD8" />
        <path d="M236.652 175.344C235.352 176.499 234.479 178.05 233.136 179.186C228.898 182.771 222.402 183.406 219.197 178.19C212.975 168.083 227.708 151.404 238.405 156.901C239.632 157.53 240.053 158.342 241.128 158.995C242.215 156.009 243.643 151.832 242.038 148.802C240.774 146.427 236.994 145.346 236.713 148.802C236.567 150.567 238.099 151.154 235.492 152.461C228.117 156.156 222.75 146.634 230.046 142.03C236.304 138.078 246.092 141.999 248.949 148.583C253.486 159.026 242.886 168.59 245.664 176.945C246.421 179.223 248.223 179.119 246.653 182.294C246.067 183.479 243.93 184.89 242.63 184.982C236.805 185.403 235.56 180.004 236.652 175.351V175.344ZM235.26 161.438C232.012 161.738 227.604 168.773 229.387 171.656C230.376 173.256 232.672 172.56 233.984 171.698C236.933 169.775 241.348 160.876 235.254 161.438H235.26Z" fill="#F5EDD8" />
        <path d="M168.88 141.059C175.719 136.362 182.905 141.046 183.784 148.784C184.981 159.374 177.935 169.75 166.42 167.142C153.47 164.211 158.623 147.569 159.472 138.506C159.759 135.458 159.991 131.696 159.777 128.643C159.521 125.021 156.889 119.983 161.883 118.834C164.838 118.15 167.494 118.486 169.918 120.38C175.487 124.722 170.053 135.574 168.88 141.065V141.059ZM177.776 154.012C178.436 153.34 175.163 152.284 174.693 151.942C172.379 150.262 172.44 145.914 172.122 145.798C171.378 145.535 170.877 147.789 170.547 148.369C169.668 149.92 168.783 150.616 167.079 151.117C166.432 151.306 163.019 151.471 164.796 152.418C165.925 153.017 167.525 153.432 168.368 154.507C169.271 155.655 169.747 158.373 169.552 159.814C170.822 160.321 170.865 158.293 171.481 157.2C172.947 154.586 174.986 154.238 177.788 154.012H177.776Z" fill="#F5EDD8" />
        <path d="M122.362 125.302C104.222 124.874 104.693 158.647 123.083 155.386C137.791 152.772 138.139 125.674 122.362 125.302ZM121.318 144.796C118.925 144.656 117.13 142.158 117.301 139.22C117.478 136.283 119.56 134.017 121.953 134.163C124.346 134.31 126.141 136.802 125.97 139.739C125.793 142.677 123.711 144.937 121.318 144.796Z" fill="#F5EDD8" />
        <path d="M216.296 171.851C214.654 178.062 213.121 186.722 204.281 184.701C199.243 183.552 198.718 177.757 203.09 175.699C205.88 174.386 210.026 177.903 212.041 172.156" fill="#F5EDD8" />
    </g>
    <defs>
        <clipPath id="clip0_20_2715">
            <rect width="297" height="185" fill="white" />
        </clipPath>
    </defs>
</svg>