<svg xmlns="http://www.w3.org/2000/svg" width="69" height="69" viewBox="0 0 69 69" fill="none">
    <g filter="url(#filter0_d_10_2033)">
        <path fill-rule="evenodd" clip-rule="evenodd" d="M16.3069 11.7732C21.142 7.00895 27.6527 4.33114 34.4406 4.31501C41.2285 4.29889 47.7519 6.94573 52.6096 11.687H52.6153L52.7073 11.7732C62.8992 21.7983 62.9193 37.9012 52.8281 47.8257L36.5239 63.8625C35.9861 64.3918 35.2618 64.6885 34.5071 64.6885C33.7525 64.6885 33.0281 64.3918 32.4903 63.8625L16.1862 47.8257C13.7925 45.4855 11.8906 42.6906 10.5921 39.6052C9.29364 36.5197 8.62476 33.2059 8.62476 29.8584C8.62476 26.5108 9.29364 23.197 10.5921 20.1116C11.8906 17.0262 13.7925 14.2313 16.1862 11.8911L16.3069 11.7732ZM34.4999 18.6876C33.3673 18.6876 32.2457 18.9107 31.1993 19.3441C30.1529 19.7776 29.202 20.4129 28.4011 21.2138C27.6002 22.0147 26.9649 22.9655 26.5315 24.0119C26.098 25.0584 25.8749 26.1799 25.8749 27.3126C25.8749 28.4452 26.098 29.5668 26.5315 30.6132C26.9649 31.6597 27.6002 32.6105 28.4011 33.4114C29.202 34.2123 30.1529 34.8476 31.1993 35.281C32.2457 35.7145 33.3673 35.9376 34.4999 35.9376C36.7874 35.9376 38.9812 35.0289 40.5987 33.4114C42.2162 31.7939 43.1249 29.6001 43.1249 27.3126C43.1249 25.0251 42.2162 22.8313 40.5987 21.2138C38.9812 19.5963 36.7874 18.6876 34.4999 18.6876Z" fill="#FFC600" />
    </g>
    <defs>
        <filter id="filter0_d_10_2033" x="8.62476" y="4.31494" width="51.7493" height="64.3735" filterUnits="userSpaceOnUse" color-interpolation-filters="sRGB">
            <feFlood flood-opacity="0" result="BackgroundImageFix" />
            <feColorMatrix in="SourceAlpha" type="matrix" values="0 0 0 0 0 0 0 0 0 0 0 0 0 0 0 0 0 0 127 0" result="hardAlpha" />
            <feOffset dy="4" />
            <feComposite in2="hardAlpha" operator="out" />
            <feColorMatrix type="matrix" values="0 0 0 0 0.988235 0 0 0 0 0.317647 0 0 0 0 0.141176 0 0 0 1 0" />
            <feBlend mode="normal" in2="BackgroundImageFix" result="effect1_dropShadow_10_2033" />
            <feBlend mode="normal" in="SourceGraphic" in2="effect1_dropShadow_10_2033" result="shape" />
        </filter>
    </defs>
</svg>