<svg xmlns="http://www.w3.org/2000/svg" width="322" height="257" viewBox="0 0 322 257" fill="none">
    <g clip-path="url(#clip0_48_1282)">
        <path d="M62.1633 15.0423C69.0873 9.03729 80.3802 13.8015 78.732 23.3897C77.7324 29.1957 74.8331 35.5391 73.7409 41.6703C71.7219 52.9903 71.9337 68.3977 78.5665 78.238C80.5788 81.224 83.5576 82.2193 80.837 86.3332C77.4412 91.4757 69.458 92.4113 65.1553 87.8328C54.9547 76.9707 61.3094 52.8974 62.7326 39.9451C63.5468 32.5797 60.5879 38.326 59.4559 41.1593C55.9145 50.0375 54.584 59.6854 53.8095 69.048C53.5315 72.3922 54.2861 75.9753 50.6321 77.3953C38.0484 82.2923 36.7179 61.0457 36.3803 53.5145C36.0228 45.5055 37.1548 33.7409 35.1027 26.2894C34.924 25.6524 34.8512 25.1414 34.2819 24.6902C33.653 24.6571 32.9646 28.3463 32.8653 29.063C30.5816 45.7577 35.063 80.932 19.057 91.9468C11.61 97.0693 0.581912 91.4757 0.00601385 82.7302C-0.318343 77.8001 2.68692 78.2248 5.83119 75.9554C21.3738 64.7615 21.6982 35.8908 22.5058 18.7051C22.8698 11.0345 23.3663 1.04825 31.9783 0.0861134C44.6017 -1.32723 46.8325 14.485 46.8524 23.9006C46.8656 30.0782 46.1904 36.2889 46.442 42.4665C46.4949 43.6941 46.806 50.1702 47.8718 50.4755C48.8316 50.4025 49.0236 48.8697 49.2817 48.1C52.6047 38.0871 53.5778 22.4674 62.1368 15.0357L62.1633 15.0423Z" fill="#001229" />
        <path d="M52.7113 110.048C61.9455 103.771 73.6157 98.9937 84.9219 98.7482C110.235 98.2107 113.631 119.57 100.127 137.094C89.0326 151.493 62.6207 166.808 44.0596 163.941C33.2896 162.282 25.8095 154.433 27.7424 143.113C28.3647 139.483 31.6678 133.816 35.1629 132.323C39.3465 130.538 38.3204 134.088 40.0018 136.816C45.549 145.82 62.2963 139.715 69.6771 135.9C76.429 132.41 89.6217 123.425 88.7877 114.759C88.4964 111.7 85.9744 109.657 83.1743 108.934C74.4829 106.684 60.9526 111.714 53.916 116.969C52.1751 118.27 48.4682 122.271 46.9457 122.928C43.3579 124.474 40.4254 119.53 41.1999 116.266C42.1465 112.284 49.3883 105.125 51.5727 100.878C53.4858 97.1623 52.473 96.7045 48.8322 98.0315C43.1328 100.108 39.4127 104.421 34.8915 107.945C27.4446 113.751 21.6657 102.902 25.2734 96.7907C28.3514 91.5686 42.1399 88.3903 47.8989 87.5874C52.0295 87.0101 57.5568 86.1873 60.3436 89.9894C64.8912 96.1935 55.1473 104.68 52.7179 110.042L52.7113 110.048Z" fill="#001229" />
        <path d="M162.893 44.8886L166.739 38.8238C171.651 34.053 179.912 35.2407 180.825 42.7852C183.01 38.784 185.433 34.7563 190.146 33.5288C193.853 32.56 197.818 33.5686 199.698 37.1185C203.411 44.1255 195.779 55.1934 198.48 63.9057C199.552 67.3627 203.888 69.2671 199.519 73.1422C195.633 76.5926 189.616 75.9158 187.154 71.1184C183.573 64.1446 187.822 56.1953 188.815 49.3675C189.053 47.7352 189.193 45.6782 187.749 44.5767C186.061 44.0857 185.194 44.8554 184.334 46.1692C182.639 48.7305 181.448 54.4369 181.143 57.5091C180.746 61.4904 181.626 66.1153 180.885 69.9107C179.892 75.0134 168.262 76.5528 167.95 69.5524C167.692 63.7398 171.055 56.5205 170.876 49.958C170.784 46.6868 168.712 44.5236 166.395 47.7617C162.178 53.6473 164.124 63.554 162.926 70.1496C161.616 77.3623 149.568 78.0856 149.892 70.4416C150.018 67.4623 151.441 63.7332 151.852 60.661C152.507 55.764 152.752 50.1571 151.501 45.3597C150.64 42.0685 147.576 38.9366 150.991 36.2625C153.242 34.4975 156.704 34.2321 159.239 35.4663C162.483 37.0455 162.953 41.6571 162.893 44.8753V44.8886Z" fill="#001229" />
        <path d="M273.466 54.0587C267.852 58.7167 259.499 59.3338 253.389 55.1867C253.389 57.7015 253.329 60.2296 253.508 62.7378C253.7 65.3853 255.408 72.3193 254.627 74.1706C253.998 75.6569 250.681 77.0703 249.139 77.1698C233.808 78.1452 241.295 61.7956 242.387 53.2956C243.135 47.4564 243.486 40.1044 241.328 34.5638C239.614 30.1513 234.722 27.0194 239.68 22.4144C246.028 16.5221 260.77 15.6396 268.548 18.4862C283.302 23.9007 284.818 44.6364 273.466 54.052V54.0587ZM256.586 26.9729C255.831 27.0459 254.316 27.59 253.951 28.2602C253.342 29.3749 254.686 35.1942 254.693 37.1516C254.693 38.91 253.673 46.2289 254.289 47.045C254.666 47.5493 256.765 48.2527 257.453 48.3588C262.113 49.0357 266.27 44.8952 267.104 40.5025C268.581 32.7524 265.271 26.1567 256.593 26.9795L256.586 26.9729Z" fill="#001229" />
        <path d="M298.971 70.5941L295.416 76.3271C285.48 87.0831 273.115 80.0894 274.869 65.8829C276.014 56.6133 285.692 43.86 296.065 46.9587C298.931 47.8147 300.361 49.7655 301.85 52.2007C302.982 48.2128 304.425 39.9252 300.109 37.3838C298.282 36.3089 296.442 36.5677 296.29 38.9365C296.171 40.7281 297.865 41.6703 295.204 42.9974C288.472 46.3483 280.416 39.1621 285.712 32.3277C290.233 26.4951 300.924 28.6384 305.709 33.104C318.922 45.4459 304.842 59.8314 309.026 71.8548C309.893 74.3431 311.541 74.5886 312.17 75.7763C313.335 77.966 310.151 81.3899 308.159 82.0866C300.877 84.6545 298.183 76.2939 298.964 70.6007L298.971 70.5941ZM295.456 53.979C290.723 54.4568 285.374 66.3209 290.028 68.3911C294.006 70.1628 298.223 63.4743 298.792 60.1964C299.275 57.4095 299.295 53.5942 295.449 53.9857L295.456 53.979Z" fill="#001229" />
        <path d="M103.013 68.7495L99.8622 74.6152C89.6284 86.9836 77.0579 78.5965 79.6197 63.5208C81.0958 54.8151 90.158 44.5501 99.7364 46.8792C100.987 47.1844 101.802 48.1532 102.934 48.5845C102.589 44.4772 102.49 34.9421 97.2541 33.9866C94.8247 33.542 92.9448 34.7629 93.2956 37.4303C93.5869 39.6532 96.2612 39.9916 93.6332 42.6524C89.3173 47.0119 81.2084 44.6099 81.162 37.8218C81.0694 24.9624 104.277 23.3168 110.05 36.4948C113.962 45.4327 110.003 61.278 114.101 67.6746C115.504 69.8643 117.106 69.2405 116.298 72.9431C115.822 75.146 112.691 77.7007 110.48 77.8997C105.548 78.3377 103.04 72.9895 103.013 68.7495ZM97.6049 52.6122C93.3287 53.2558 89.9991 64.1843 93.1036 66.7987C95.7845 69.0547 99.1473 65.3124 100.187 62.9568C101.438 60.1168 102.854 51.8226 97.6049 52.6122Z" fill="#001229" />
        <path d="M156.909 89.1004C151.819 88.815 150.7 91.874 149.906 96.1936C147.794 107.6 143.988 131.268 128.809 132.244C111.652 133.352 114.26 108.535 127.962 110.871C132.457 111.641 128.882 115.383 131.265 116.962C133.436 118.402 135.819 116.478 137.229 114.925C141.102 110.672 143.326 102.338 144.001 96.6979C144.325 93.9707 143.63 89.2397 145.034 87.196C147.543 83.5266 159.233 80.3748 163.555 80.5672C171.247 80.9123 166.177 90.3744 165.197 94.8533C163.714 101.641 163.436 108.516 165.21 115.29C166.269 119.331 169.01 122.078 164.336 125.283C160.914 127.632 155.949 127.274 153.672 123.558C152.534 121.7 152.156 118.668 152.15 116.491C152.123 107.116 155.718 98.2639 156.916 89.0937L156.909 89.1004Z" fill="#001229" />
        <path d="M216.141 52.7913C215.432 60.86 222.562 62.3529 228.705 59.1679C229.995 58.4977 233.491 55.6711 234.636 55.8038C236.542 56.0227 237.29 60.3358 237.151 61.9084C236.509 69.1874 226.56 74.6284 219.954 74.7611C194.071 75.2721 199.122 36.6274 219.834 30.4963C226.262 28.5919 235.059 30.0783 236.873 37.5564C239.786 49.5598 226.765 59.4134 216.141 52.7847V52.7913ZM227.44 40.6817C226.375 39.4408 223.674 39.6333 222.304 40.3897C221.026 41.0997 217.134 45.4392 217.941 46.7464C220.165 47.4962 223.118 47.6953 225.236 46.4611C227.003 45.4326 229.075 42.5794 227.44 40.6817Z" fill="#001229" />
        <path d="M274.505 82.8298C276.948 82.3985 279.059 86.0878 279.139 88.2177C279.437 96.1869 272.149 98.788 265.423 97.222C261.498 96.3063 257.182 93.4398 253.521 92.7763C250.681 92.2587 253.587 95.7158 254.137 96.8902C258.592 106.458 260.968 118.13 260.763 128.727C260.703 131.779 260.227 141.215 258.711 143.424C256.599 146.503 250.801 145.654 248.12 143.73C242.685 139.828 246.438 133.929 247.656 128.946C250.364 117.858 250.331 104.614 243.056 95.2181C240.415 91.8075 236.039 89.578 239.852 84.8005C244.433 79.0542 255.368 84.1303 261.293 84.9067C264.503 85.3313 268.111 85.3645 271.228 84.3957C272.301 84.064 273.929 82.9359 274.512 82.8298H274.505Z" fill="#001229" />
        <path d="M134.198 34.5307C142.273 34.5705 148.873 40.7215 147.092 49.1419C145.927 54.6492 138.441 56.2285 134.84 52.0084C131.901 48.5646 135.614 47.974 136.395 45.7644C137.752 41.9026 133.721 40.3101 130.868 43.0306C128.002 45.7578 127.115 51.5571 127.704 55.3062C129.226 65.0204 138.838 66.5598 144.378 59.022C146.629 57.5556 148.006 62.9103 147.9 64.4166C147.384 71.908 139.202 77.913 131.94 77.3888C109.136 75.7432 110.937 34.4112 134.204 34.524L134.198 34.5307Z" fill="#001229" />
        <path d="M190.814 123.392C189.245 124.752 186.432 126.292 184.34 126.411C163.562 127.626 164.091 85.2916 182.123 82.3919C200.055 79.5055 202.921 112.882 190.814 123.392ZM182.262 92.2455C178.595 93.0617 178.482 102.444 178.714 105.317C178.939 108.064 180.759 117.785 185.161 115.655C189.484 113.565 188.597 101.947 187.511 97.9785C186.862 95.603 185.366 91.5488 182.262 92.2389V92.2455Z" fill="#001229" />
        <path d="M217.127 90.3809C217.147 95.4437 215.81 100.314 215.121 105.271C214.539 109.451 214.095 113.684 214.208 117.911C214.274 120.3 215.366 125.628 215.002 127.499C214.148 131.892 206.701 131.992 203.663 129.649C196.818 124.374 203.722 111.063 205.867 104.567C207.621 99.2392 209.157 93.9242 209.237 88.2509C207.105 87.9988 205.218 87.9457 203.113 88.3372C200.611 88.8083 197.838 90.7724 196.487 87.0167C194.899 82.5843 197.811 78.6893 202.399 78.4836C208.277 78.2248 215.214 81.5226 221.959 81.4364C224.567 81.4032 229.684 79.2533 231.28 79.6912C234.934 80.6799 234.781 86.7248 233.107 89.3524C229.75 94.6077 221.906 91.6084 217.127 90.3809Z" fill="#001229" />
        <path d="M231.101 97.0495C251.549 95.3508 248.384 139.417 229.559 135.535C213.758 132.277 216.253 98.2837 231.101 97.0495ZM231.399 105.729C228.029 106.173 227.599 113.817 227.659 116.372C227.718 118.946 229.108 126.637 232.577 126.531C235.907 126.431 236.562 119.159 236.555 116.75C236.555 114.103 235.278 105.211 231.399 105.729Z" fill="#001229" />
        <path d="M123.699 108.635C97.3268 109.949 98.6904 76.3802 123.308 79.3197C143.968 81.7814 142.843 107.686 123.699 108.635ZM122.779 102.026C127.115 101.681 127.201 95.8618 126.969 93.9176C126.731 91.9601 124.46 86.1011 119.966 86.1807C115.656 86.2603 115.266 91.8009 115.418 93.6389C115.583 95.6561 117.788 102.424 122.779 102.026Z" fill="#001229" />
        <path d="M300.646 101.15C308.966 91.1706 320.365 106.339 310.502 113.505L307.715 115.191C317.578 113.194 324.449 120.227 321.186 130.067C318.498 138.176 309.555 140.259 303.022 135.051C304.803 139.583 306.702 143.73 303.234 148.063C298.11 154.446 285.666 154.154 282.104 146.238C280.582 142.86 281.489 139.456 282.415 136.072C276.617 141.812 268.726 141.772 265.886 133.226C263.259 125.33 267.747 119.902 275.73 119.703L271.685 117.367C263.398 111.707 271.573 99.6108 280.085 101.747C282.038 102.238 283.686 104.116 285.116 105.417C284.58 101.933 283.455 98.788 284.646 95.2779C285.791 91.9137 289.028 89.6975 292.523 89.5316C300.248 89.16 302.612 94.2693 300.652 101.144L300.646 101.15ZM304.743 125.436C302.863 123.691 299.871 121.946 298.944 119.232C297.918 117.055 297.865 114.215 298.071 111.568C298.21 109.199 297.084 111.07 296.429 112.046C294.152 115.914 289.935 118.144 285.46 117.414C284.931 117.394 283.614 117.228 283.382 117.546C283.263 118.144 284.415 118.754 284.977 119.265C289.002 121.786 290.504 126.259 289.77 130.817C289.704 131.819 289.525 133.71 290.782 132.018C292.06 130.273 293.649 127.984 295.681 126.916C297.932 125.509 301.268 125.648 303.922 125.821C304.458 125.821 304.756 125.761 304.77 125.588L304.73 125.442L304.743 125.436Z" fill="#001229" />
        <path d="M108.567 156.383C107.779 155.514 108.256 154.499 106.084 154.598C102.1 154.778 99.0016 165.839 98.0749 169.117C106.839 164.492 120.363 163.702 123.818 184.504C124.944 191.259 110.467 194.849 109.712 188.207C109.07 182.593 110.381 174.664 103.251 173.264C100.643 172.753 95.149 175.135 94.4474 178.068C96.1486 183.323 101.14 193.495 94.4209 196.249C90.6478 197.795 83.6377 198.85 83.2074 193.117C82.9691 189.972 84.2401 181.631 80.5067 174.465C77.7596 169.203 71.3717 164.498 77.0579 158.666C78.9776 156.695 84.2599 154.3 86.9342 155.216C91.3296 156.728 89.4827 165.892 91.8393 169.216C96.4862 161.035 94.6327 145.952 103.9 140.929C112.638 136.192 119.257 146.543 114.054 153.875C113.154 155.143 109.997 157.943 108.58 156.377L108.567 156.383Z" fill="#001229" />
        <path d="M229.022 188.923C225.203 189.833 218.193 189.269 219.166 183.967L216.597 186.893C212.97 190.868 205.86 190.894 202.312 186.847C194.905 178.4 209.587 159.442 203.61 148.408C201.948 145.342 197.99 144.964 200.452 140.91C203.418 136.033 212.01 135.528 216.035 139.423C224.269 147.392 214.122 164.339 212.487 173.231C212.017 175.779 211.858 181.299 215.988 179.614C222.886 176.794 223.561 157.75 226.97 151.546C230.571 144.997 239.958 146.954 239.984 153.543C240.017 161.632 230.69 172.912 229.399 181.737C228.585 187.304 233.053 184.146 234.358 185.665C235.099 186.528 233.106 190.834 232.742 192.201" fill="#001229" />
        <path d="M140.725 171.545C144.723 168.778 147.318 159.754 148.562 155.441C150.482 148.806 151.071 132.987 161.311 132.284C171.538 131.58 166.726 147.074 165.806 152.203C164.879 157.385 165.058 162.767 166.587 167.916C167.368 170.563 169.394 173.722 169.824 176.19C170.751 181.498 161.728 184.04 157.69 179.78C152.309 174.107 157.287 157.604 158.419 150.982C158.63 149.755 159.352 146.178 156.975 148.003C153.11 150.969 151.488 165.686 150.171 170.57C148.489 176.787 144.021 187.656 134.151 183.894C127.042 181.187 127.287 172.753 134.39 170.842C135.283 170.895 135.601 171.95 136.184 172.182C137.785 172.833 139.487 172.415 140.738 171.545H140.725Z" fill="#001229" />
        <path d="M256.573 190.509C255.163 191.763 254.216 193.449 252.76 194.683C248.166 198.578 241.123 199.268 237.648 193.601C230.902 182.62 246.875 164.499 258.473 170.47C259.803 171.154 260.26 172.036 261.425 172.746C262.603 169.502 264.152 164.963 262.411 161.672C261.041 159.091 256.944 157.916 256.639 161.672C256.48 163.59 258.142 164.227 255.315 165.646C247.319 169.661 241.5 159.316 249.41 154.313C256.196 150.02 266.807 154.28 269.905 161.433C274.823 172.78 263.331 183.171 266.343 192.248C267.164 194.723 269.117 194.61 267.416 198.06C266.78 199.348 264.463 200.881 263.053 200.98C256.738 201.438 255.388 195.572 256.573 190.516V190.509ZM255.064 175.401C251.542 175.726 246.763 183.37 248.696 186.502C249.768 188.24 252.257 187.484 253.68 186.548C256.877 184.458 261.663 174.79 255.057 175.401H255.064Z" fill="#001229" />
        <path d="M183.096 153.258C190.51 148.155 198.301 153.245 199.254 161.652C200.552 173.158 192.913 184.431 180.428 181.598C166.388 178.413 171.975 160.331 172.895 150.485C173.206 147.173 173.458 143.086 173.226 139.768C172.948 135.834 170.095 130.359 175.51 129.112C178.714 128.369 181.593 128.734 184.221 130.791C190.258 135.508 184.367 147.3 183.096 153.265V153.258ZM192.741 167.332C193.456 166.602 189.907 165.454 189.398 165.082C186.889 163.258 186.955 158.533 186.611 158.407C185.803 158.122 185.261 160.57 184.903 161.201C183.95 162.886 182.99 163.643 181.143 164.187C180.442 164.392 176.741 164.572 178.668 165.6C179.892 166.25 181.626 166.701 182.54 167.869C183.52 169.117 184.036 172.07 183.824 173.635C185.201 174.186 185.247 171.983 185.916 170.796C187.505 167.956 189.715 167.577 192.754 167.332H192.741Z" fill="#001229" />
        <path d="M132.662 136.139C112.995 135.674 113.505 172.368 133.443 168.825C149.389 165.985 149.767 136.544 132.662 136.139ZM131.53 157.319C128.935 157.166 126.989 154.453 127.174 151.261C127.366 148.069 129.624 145.608 132.218 145.767C134.813 145.926 136.759 148.633 136.574 151.825C136.382 155.017 134.125 157.472 131.53 157.319Z" fill="#001229" />
        <path d="M234.503 186.714C232.723 193.462 231.061 202.871 221.476 200.675C216.015 199.427 215.446 193.13 220.185 190.894C223.21 189.468 227.705 193.29 229.889 187.046" fill="#001229" />
    </g>
    <path d="M8.194 226.472H10.676L10.574 250.17L7.208 250.136L7.276 233.952C6.29 236.026 5.202 237.59 3.162 239.698L0.748 237.352C4.828 233.136 7.446 226.472 7.446 226.472H8.194ZM25.7824 238.304C26.7684 239.63 27.2784 241.364 27.2784 243.37C27.2784 245.138 26.7004 246.94 25.6464 248.266C24.3884 249.864 22.6204 250.748 20.5804 250.748C18.6424 250.748 16.8744 250.034 15.6164 248.708C14.3924 247.416 13.7124 245.614 13.7124 243.642C13.7124 241.534 14.3584 239.562 15.5484 238.134C15.8544 237.76 16.1944 237.454 16.5684 237.182C15.0384 235.992 14.1884 234.122 14.1884 232.422C14.1884 231.028 14.5284 228.988 16.1604 227.424C17.3504 226.268 18.9144 225.656 20.5804 225.656C24.2864 225.656 26.8704 228.444 26.8704 232.422C26.8704 234.36 25.9864 236.026 24.5584 237.148C25.0684 237.522 25.4764 237.93 25.7824 238.304ZM20.5804 229.022C18.5064 229.022 17.5884 230.722 17.5884 232.422C17.5884 234.564 18.8464 235.992 20.6144 235.958C22.5524 235.958 23.5044 233.986 23.5044 232.422C23.5044 230.28 22.4164 229.022 20.5804 229.022ZM23.9124 243.37C24.0144 241.466 23.4364 238.78 20.5124 238.78C18.3024 238.78 16.8744 240.888 17.0784 243.642C17.2484 245.852 18.5064 247.382 20.5804 247.382C21.8724 247.382 23.7424 246.26 23.9124 243.37ZM38.089 239.834L58.353 239.562L58.319 242.962L38.055 243.2L38.089 239.834ZM75.9284 226.472H78.4104L78.3084 250.17L74.9424 250.136L75.0104 233.952C74.0244 236.026 72.9364 237.59 70.8964 239.698L68.4824 237.352C72.5624 233.136 75.1804 226.472 75.1804 226.472H75.9284ZM94.7407 237.658C94.8427 247.552 91.1707 249.728 88.9607 250.17C88.5867 250.238 88.1787 250.272 87.7707 250.272C86.5127 250.272 85.3227 249.864 84.3027 249.048C82.7727 247.824 81.8207 245.716 81.7527 243.574L85.1187 243.472C85.1527 244.628 85.6967 245.784 86.4447 246.396C86.9547 246.838 87.6007 246.974 88.3487 246.838C89.3007 246.634 89.9467 245.648 90.2867 244.832C90.8647 243.574 91.4087 241.194 91.4087 238.372C90.2867 239.834 88.1447 240.956 85.9007 240.276C84.5407 239.902 83.4187 238.984 82.6367 237.76C81.8207 236.502 81.4127 234.972 81.4127 233.17C81.4127 228.818 84.0307 225.792 87.8047 225.792C90.1847 225.792 91.9527 226.778 93.0747 228.716C94.1967 230.62 94.7067 233.476 94.7407 237.658ZM86.9547 237.08C88.1447 237.454 89.9127 237.046 91.2727 235.346C90.8307 229.158 88.8927 229.158 87.8047 229.158C85.9687 229.158 84.7787 230.722 84.7787 233.17C84.7787 235.21 85.5607 236.638 86.9547 237.08ZM117.152 226.438L117.186 250H113.786V234.768L109.094 249.762H105.49V226.574H108.856V241.5L113.684 226.438H117.152ZM135.768 227.22H135.734C137.672 229.09 138.624 232.762 138.624 238.1C138.624 241.33 138.114 244.152 137.094 246.294C135.904 248.776 134.068 250.17 131.926 250.17C130.192 250.17 127.88 249.286 126.52 245.07C125.874 243.166 125.636 241.126 125.5 239.63L123.698 239.698L123.664 249.456L120.298 249.422L120.366 226.302L123.766 226.336L123.732 236.298L125.466 236.23C125.772 229.634 128.186 225.86 132.164 225.758C133.524 225.758 134.748 226.234 135.768 227.22ZM131.926 246.804C133.558 246.804 135.258 243.54 135.258 238.1C135.258 236.094 135.054 231.266 133.388 229.634C133.048 229.294 132.674 229.158 132.232 229.158C131.79 229.158 130.668 229.192 129.784 231.402C129.138 232.966 128.832 235.142 128.832 237.726C128.832 238.542 128.9 241.5 129.716 244.016C130.056 245.07 130.804 246.804 131.926 246.804ZM153.193 226.234L153.329 250H149.963L149.827 229.668L146.529 229.702C146.461 233.408 146.291 242.486 145.951 245.41C145.747 247.382 145.203 248.538 144.183 249.456C143.163 250.34 140.851 250.442 139.491 249.082L140.443 246.668C141.769 247.314 142.483 246.464 142.585 245.036C142.891 241.5 143.163 228.138 143.163 228.002V226.336L153.193 226.234ZM164.957 225.894H168.289L168.153 249.932L164.753 249.898L164.821 241.806C164.379 241.806 163.835 241.806 163.223 241.704L159.177 249.83H155.403L160.129 240.752C159.687 240.514 159.245 240.208 158.871 239.868C157.205 238.474 156.389 236.434 156.355 233.85C156.321 231.504 157.069 229.6 158.497 228.172C160.911 225.86 164.481 225.894 164.957 225.894ZM164.821 238.44L164.889 229.294H164.855C164.855 229.294 164.821 229.294 164.787 229.294C164.345 229.294 162.169 229.328 160.843 230.62C160.095 231.368 159.721 232.422 159.755 233.816C159.755 235.414 160.197 236.536 161.047 237.318C162.203 238.304 163.869 238.44 164.821 238.44Z" fill="#001229" />
    <path d="M198.632 226.37L209.036 226.438V229.838L201.998 229.77L201.896 250H198.53L198.632 226.37ZM213.776 246.804L213.674 250.34L210.308 250.238L210.376 246.702L213.776 246.804ZM224.298 226.37L234.702 226.438V229.838L227.664 229.77L227.562 250H224.196L224.298 226.37ZM245.902 227.152C247.806 228.886 248.656 232.15 248.656 237.42C248.656 243.642 247.534 247.722 245.256 249.592C244.406 250.272 243.386 250.646 242.332 250.646C242.026 250.646 241.72 250.612 241.414 250.544C240.19 250.306 238.49 249.388 237.266 246.328C236.382 244.084 235.94 241.092 235.94 237.42C235.94 233.918 236.314 231.3 237.13 229.464C238.354 226.778 240.326 226.03 241.788 225.894C243.42 225.724 244.814 226.166 245.902 227.152ZM243.114 246.974C245.12 245.308 245.29 239.256 245.29 237.42C245.29 231.98 244.236 230.212 243.624 229.668C243.386 229.43 242.978 229.192 242.094 229.26C241.414 229.328 239.306 229.532 239.306 237.42C239.306 244.186 241.006 247.042 242.094 247.246C242.468 247.314 242.774 247.246 243.114 246.974ZM262.509 233.918C262.611 236.06 261.931 238.1 260.639 239.664C259.245 241.364 257.171 242.384 254.689 242.622L254.587 250.136L251.221 250.102L251.561 226.2L254.315 226.064C256.695 225.996 258.769 226.846 260.299 228.478C261.625 229.906 262.441 231.844 262.509 233.918ZM254.757 239.188C258.123 238.746 259.211 236.196 259.143 234.088C259.007 231.062 256.933 229.634 254.893 229.464L254.757 239.188ZM274.124 227.152C276.028 228.886 276.878 232.15 276.878 237.42C276.878 243.642 275.756 247.722 273.478 249.592C272.628 250.272 271.608 250.646 270.554 250.646C270.248 250.646 269.942 250.612 269.636 250.544C268.412 250.306 266.712 249.388 265.488 246.328C264.604 244.084 264.162 241.092 264.162 237.42C264.162 233.918 264.536 231.3 265.352 229.464C266.576 226.778 268.548 226.03 270.01 225.894C271.642 225.724 273.036 226.166 274.124 227.152ZM271.336 246.974C273.342 245.308 273.512 239.256 273.512 237.42C273.512 231.98 272.458 230.212 271.846 229.668C271.608 229.43 271.2 229.192 270.316 229.26C269.636 229.328 267.528 229.532 267.528 237.42C267.528 244.186 269.228 247.042 270.316 247.246C270.69 247.314 270.996 247.246 271.336 246.974ZM293.291 246.566V249.966H277.685V246.566H279.793C281.765 240.82 281.867 228.138 281.867 228.002V226.302L291.591 226.404L291.421 246.566H293.291ZM285.199 229.702C285.131 233.238 284.757 241.398 283.329 246.566H288.021L288.191 229.736L285.199 229.702ZM306.43 246.464L306.464 249.864L295.652 250L295.516 226.54H305.75V229.906H298.916L298.95 234.7L304.118 234.598L304.186 237.964L298.95 238.066L299.018 246.566L306.43 246.464ZM319.614 246.566L321.042 246.6L320.94 253.468L317.574 253.434L317.608 249.694H308.802L308.598 226.336L311.964 226.302L312.134 246.328H316.248L316.418 226.302L319.818 226.336L319.614 246.566Z" fill="#001229" />
    <defs>
        <clipPath id="clip0_48_1282">
            <rect width="322" height="201" fill="white" />
        </clipPath>
    </defs>
</svg>