<svg width="351" height="664" viewBox="0 0 351 664" fill="none" xmlns="http://www.w3.org/2000/svg">
<path d="M314.968 491.047C295.361 333.345 149.799 193.941 32.203 246.009C89.6849 263.799 47.5207 321.166 127.128 359.065C197.09 392.373 274.386 411.693 314.968 491.047Z" fill="#2F9D65"/>
<path d="M325.241 471.327C304.062 333.515 184.836 275.238 174.967 186.08C165.098 96.9221 226.425 88.4445 187.122 17.6798C333.913 35.7576 363.692 311.154 325.241 471.327Z" fill="#2F9D65"/>
<path d="M318.168 386.249C318.168 386.249 332.687 227.664 248.233 91.9708C290.535 225.892 308.354 341.624 318.168 386.249Z" fill="#0F704D"/>
<path d="M260.841 389.213C260.841 389.213 141.772 224.4 111.492 279.676C157.61 277.742 251.007 375.63 260.841 389.213Z" fill="#0F704D"/>
<path d="M143.16 446.965C89.1103 480.364 72.3503 551.286 105.728 605.375C139.105 659.462 209.979 676.234 264.029 642.834C318.081 609.435 334.839 538.514 301.464 484.425C268.086 430.338 197.21 413.566 143.16 446.965Z" fill="#1766C7"/>
<path d="M140.48 494.36C104.704 516.467 93.6115 563.409 115.704 599.207C137.797 635.008 184.707 646.108 220.481 624.001C256.257 601.896 267.35 554.954 245.257 519.154C223.166 483.353 176.256 472.253 140.48 494.36Z" fill="#5991DB"/>
<path d="M87.7135 558.469C69.0272 570.017 63.2325 594.536 74.7706 613.238C86.311 631.937 110.816 637.735 129.502 626.188C148.191 614.642 153.983 590.121 142.445 571.422C130.904 552.72 106.4 546.921 87.7135 558.469Z" fill="#1766C7"/>
</svg>
