<svg width="193" height="26" viewBox="0 0 193 26" fill="none" xmlns="http://www.w3.org/2000/svg">
<path d="M180.124 5.02151C184.416 5.04067 188.708 5.03359 193 5V25L180.116 24.9996C179.923 18.9395 180.004 11.1238 180.124 5.02151ZM182.683 22.5956L190.494 22.5961C190.398 17.8012 190.373 12.1788 190.483 7.38063L182.651 7.39062C182.69 12.4589 182.701 17.5273 182.683 22.5956Z" fill="#001229"/>
<path d="M163.079 5.02457C167.051 5.03915 171.022 5.03096 174.993 5L175 24.9971L163.058 25C162.905 20.1207 163.113 15.141 163.027 10.2525C162.996 8.53916 163.011 6.73529 163.079 5.02457ZM165.414 22.5979L172.673 22.5971C172.459 18.2302 172.715 13.7059 172.62 9.32482C172.607 8.69923 172.607 8.00256 172.638 7.3817L165.368 7.40141C165.454 12.4426 165.3 17.5946 165.414 22.5979Z" fill="#001229"/>
<path d="M151.959 4C152.427 4.22233 159.222 11.0136 159.999 11.7709L156.504 15.0693C157.7 16.084 158.87 17.2502 160 18.3408C157.353 20.8027 154.806 23.4512 152.178 25.9478L152.049 26C151.595 25.9347 144.851 19.1273 144.046 18.305C145.082 17.2388 146.337 16.1001 147.427 15.0652C146.405 13.9978 145.09 12.8164 144 11.7871C146.332 9.32108 149.48 6.38303 151.959 4ZM147.439 18.3293C148.09 18.9456 151.63 22.5159 152.038 22.7111C153.535 21.233 155.039 19.7633 156.554 18.3019C155.407 17.2343 154.213 16.1498 153.112 15.0424C154.151 14.0393 155.456 12.7058 156.541 11.7961C155.041 10.3011 153.524 8.8205 151.994 7.35483L147.437 11.7934C148.619 12.8398 149.78 13.9686 150.924 15.0575C149.904 15.9988 148.45 17.4685 147.439 18.3293Z" fill="#001229"/>
<path d="M54.7412 5.01069L57.2424 5C57.2575 8.36198 57.2496 11.724 57.2187 15.0857C60.2139 11.7176 63.4778 8.30145 66.5633 5.00222L70 5.00083C67.3404 8.12029 63.5471 11.9272 60.6599 14.9959C63.6546 18.2945 66.8762 21.6164 69.9321 24.8899C69.2191 25.0479 67.3637 24.991 66.5416 24.9857C63.8275 21.8723 60.0919 18.0004 57.2313 14.9968L57.2504 24.9885L54.7563 24.9931C54.5761 22.3423 54.7241 17.8302 54.742 15.014C51.8539 17.8086 48.312 21.9725 45.4114 24.9907L42 24.9773C44.8906 21.6623 48.2766 18.2922 51.2911 15.0039C48.8951 12.0097 44.7218 8.17332 42.0288 5.00833L45.3972 5.03582C46.484 6.03121 47.8391 7.58053 48.8629 8.68531L54.7478 15.0102C54.6727 11.7782 54.6997 8.24093 54.7412 5.01069Z" fill="#001229"/>
<path d="M109.44 5.01166L111.996 5L112 24.9464C111.64 25.0237 109.916 24.9947 109.448 24.9946C109.368 19.7334 109.438 14.3024 109.435 9.0272C105.394 14.1486 100.781 20.0371 96.5974 24.9934L94.0981 24.9973C93.9317 18.747 94.007 11.3026 94.1038 5.01943L96.6244 5.00444L96.6258 21.1728C100.858 15.7556 105.129 10.3685 109.44 5.01166Z" fill="#001229"/>
<path d="M118.091 5C118.889 5.0233 119.822 5.00139 120.633 5.00097C120.611 10.1431 120.792 16.176 120.551 21.203L133.422 5.01678L135.946 5.00804C136.059 11.4005 135.96 18.165 135.96 24.5828L135.873 24.8895C135.308 25.0559 134.096 24.9875 133.455 24.9784C133.211 20.1899 133.397 14.0011 133.4 9.10879C131.983 10.7364 130.39 12.8257 129.019 14.5258L120.62 24.9644L118.088 24.9739C117.915 18.6425 118.042 11.3815 118.091 5Z" fill="#001229"/>
<path d="M34.6405 5.01194L36.9932 5.005L37 24.9907L34.6839 24.9992C34.4676 20.6128 34.5455 13.5255 34.6437 9.05807C30.6964 13.9587 26.3132 19.898 22.5094 24.9829L20.0911 25C19.9096 18.7191 20.0487 11.3542 20.0885 5.00792L22.5124 5C22.5326 10.3957 22.5253 15.7915 22.4903 21.187C26.0307 16.0899 30.821 9.99479 34.6405 5.01194Z" fill="#001229"/>
<path d="M10.5834 5.01055L12.9988 5C12.9192 11.6041 12.9788 18.3842 13 24.9908L10.5915 24.9983C10.5101 22.1974 10.5804 19.0675 10.583 16.2415L2.51155 16.2495C2.56706 19.1022 2.5189 22.1231 2.5208 24.9897L0.104237 25C-0.0616196 18.8345 -0.00583458 11.2091 0.107231 5.01611L2.50597 5.00389L2.53427 13.7551L10.5866 13.7554C10.5418 10.8717 10.5803 7.90074 10.5834 5.01055Z" fill="#001229"/>
<path d="M84.7529 5.01402L86.9938 5.00028L87 24.9886L84.7509 25C84.6648 22.2306 84.7318 19.0425 84.7292 16.2406L77.2889 16.2457L77.2835 24.9981L75.0827 24.9964C74.863 20.6406 75.164 15.9833 75.0459 11.5971C74.9895 9.50197 75.0037 7.09532 75.0926 5L77.2822 5.00264L77.2878 13.7505L84.7385 13.7527C84.7191 10.8399 84.7239 7.92683 84.7529 5.01402Z" fill="#001229"/>
<path d="M123.042 0.0164269L130.988 0L131 3C128.35 2.95807 125.701 2.95722 123.051 2.99726C122.982 1.81188 122.987 1.1948 123.042 0.0164269Z" fill="#001229"/>
</svg>
