<svg width="127" height="120" viewBox="0 0 127 120" fill="none" xmlns="http://www.w3.org/2000/svg">
<path d="M53.673 119.027C53.5905 118.857 53.552 118.626 53.5602 118.337V111C53.2935 111.487 52.9387 111.907 52.4905 112.262C52.0422 112.617 51.5445 112.903 51 113.123H52.3997V118.337C52.3915 118.626 52.3475 118.857 52.2677 119.027C52.188 119.198 52.056 119.349 51.8745 119.478H54.0827C53.8929 119.349 53.7554 119.198 53.673 119.027Z" fill="#001229"/>
<path d="M58.6616 111.315C57.7816 111.324 57.0446 111.596 56.4478 112.137C55.8511 112.676 55.5569 113.378 55.5651 114.238C55.5651 114.984 55.8044 115.589 56.2828 116.053C56.7613 116.518 57.3938 116.749 58.1831 116.749C58.4333 116.749 58.6588 116.722 58.8596 116.669C59.0603 116.617 59.2363 116.524 59.3875 116.394L60.0475 115.514C59.8275 115.635 59.602 115.729 59.371 115.789C59.14 115.85 58.909 115.88 58.6836 115.88C58.1363 115.88 57.6991 115.712 57.3691 115.377C57.0391 115.041 56.8741 114.574 56.8741 113.974C56.8741 113.441 57.0226 113.02 57.3223 112.712C57.6221 112.404 58.0373 112.25 58.5681 112.25C59.1675 112.25 59.6543 112.47 60.031 112.913C60.4078 113.356 60.5948 113.947 60.5948 114.692C60.5948 115.688 60.273 116.57 59.6268 117.335C58.9805 118.099 58.1363 118.63 57.0886 118.927L56.5523 119.645C58.0786 119.463 59.349 118.908 60.3665 117.978C61.384 117.052 61.8955 115.963 61.9037 114.714C61.9037 113.741 61.6013 112.929 60.999 112.283C60.3968 111.637 59.6158 111.312 58.6588 111.312L58.6616 111.315Z" fill="#001229"/>
<path d="M66.0726 115.025V114.978C66.5263 114.879 66.9058 114.678 67.2056 114.373C67.5053 114.068 67.6566 113.699 67.6566 113.265C67.6566 112.687 67.4201 112.217 66.9443 111.854C66.4686 111.494 65.8086 111.312 64.9589 111.312C64.6701 111.312 64.4144 111.329 64.1916 111.365C63.9689 111.398 63.7406 111.447 63.5152 111.508L62.9817 112.762C63.2924 112.586 63.5949 112.456 63.8919 112.374C64.1889 112.291 64.4721 112.247 64.7444 112.247C65.2449 112.247 65.6381 112.363 65.9214 112.588C66.2046 112.817 66.3476 113.083 66.3476 113.389C66.3476 113.807 66.2018 114.126 65.9104 114.348C65.6189 114.568 65.2284 114.678 64.7444 114.678C64.6454 114.687 64.5161 114.681 64.3566 114.667C64.1971 114.654 64.0459 114.634 63.9001 114.61V115.638C64.0376 115.6 64.1724 115.572 64.3099 115.553C64.4474 115.534 64.6124 115.525 64.8104 115.525C65.4484 115.525 65.9324 115.668 66.2679 115.954C66.6006 116.24 66.7683 116.623 66.7683 117.101C66.7683 117.536 66.5786 117.912 66.1991 118.237C65.8196 118.561 65.2806 118.718 64.5821 118.71C64.2191 118.71 63.8616 118.658 63.5124 118.556C63.1632 118.454 62.7617 118.281 62.3052 118.036L62.8414 119.474C63.1137 119.527 63.3832 119.571 63.6444 119.601C63.9056 119.631 64.1614 119.648 64.4116 119.648C65.5584 119.648 66.4548 119.414 67.1038 118.946C67.7528 118.479 68.0773 117.86 68.0773 117.093C68.0691 116.537 67.8766 116.064 67.4971 115.671C67.1176 115.281 66.6446 115.063 66.0754 115.028L66.0726 115.025Z" fill="#001229"/>
<path d="M74.6579 114.919C74.1794 114.452 73.5497 114.218 72.7687 114.218C72.5102 114.218 72.282 114.246 72.0812 114.304C71.8805 114.361 71.7072 114.449 71.5642 114.573L70.9042 115.45C71.116 115.338 71.3387 115.247 71.5697 115.183C71.8007 115.117 72.0345 115.087 72.271 115.087C72.8099 115.087 73.2444 115.258 73.5799 115.596C73.9127 115.934 74.0804 116.402 74.0804 116.993C74.0804 117.532 73.9292 117.955 73.6267 118.261C73.3242 118.566 72.909 118.717 72.3865 118.717C71.7787 118.717 71.2892 118.5 70.9125 118.06C70.5357 117.62 70.3542 117.026 70.3597 116.272C70.3597 115.283 70.6815 114.408 71.3222 113.641C71.963 112.876 72.8099 112.343 73.8659 112.038L74.3994 111.32C72.8677 111.51 71.5917 112.071 70.5742 112.997C69.5568 113.927 69.048 115.01 69.048 116.25C69.0398 117.232 69.3368 118.043 69.9363 118.687C70.5357 119.33 71.3057 119.652 72.2462 119.652C73.1867 119.652 73.8879 119.383 74.4819 118.841C75.0787 118.302 75.3784 117.598 75.3866 116.729C75.3784 115.992 75.1364 115.387 74.6579 114.919Z" fill="#001229"/>
<path d="M48.7809 43.6126C45.8714 40.259 48.5924 34.3858 53.8546 35.2978C53.8546 35.2978 52.2212 31.8381 48.079 31.6951C40.4076 31.4286 35.414 38.7078 36.0553 46.7582C36.3261 50.1509 38.0289 55.0145 43.0745 58.3204L48.7809 43.6126ZM48.1028 32.8758C48.7874 32.8758 49.342 33.4326 49.342 34.1193C49.342 34.8061 48.7874 35.3628 48.1028 35.3628C47.4182 35.3628 46.8636 34.8061 46.8636 34.1193C46.8636 33.4326 47.4182 32.8758 48.1028 32.8758Z" fill="#001229"/>
<path d="M61.9677 31.6777C61.9677 36.5197 59.2856 43.1728 55.3817 45.1204L50.8301 61.3383C54.0299 61.9687 57.8688 62.2633 62.5114 62.2633V31.6777H61.9655H61.9677Z" fill="#001229"/>
<path d="M49.5669 61.0593L53.9019 45.6127C52.6237 45.8272 51.2459 45.5282 49.8139 44.5273L44.2007 58.9991C45.715 59.8396 47.4915 60.5481 49.5691 61.0593H49.5669ZM49.7186 47.673C49.9352 47.0231 50.6371 46.6699 51.2871 46.8887C51.937 47.1076 52.2858 47.8095 52.0691 48.4616C51.8525 49.1115 51.1506 49.4646 50.5006 49.2458C49.8507 49.0292 49.5019 48.3251 49.7186 47.673ZM48.1111 52.4933C48.3277 51.8434 49.0296 51.4902 49.6796 51.709C50.3295 51.9257 50.6783 52.6298 50.4617 53.2819C50.245 53.934 49.5431 54.2849 48.8932 54.0661C48.2432 53.8495 47.8944 53.1454 48.1111 52.4933ZM48.0483 56.603C48.6982 56.8196 49.047 57.5237 48.8303 58.1758C48.6137 58.8258 47.9118 59.1789 47.2618 58.9601C46.6119 58.7434 46.2631 58.0393 46.4798 57.3872C46.6964 56.7373 47.3983 56.3842 48.0483 56.603Z" fill="#001229"/>
<path d="M83.2806 58.3219C88.3284 55.0159 90.0312 50.1523 90.2998 46.7597C90.9411 38.7093 85.9475 31.4301 78.2762 31.6965C74.134 31.8395 72.5005 35.2993 72.5005 35.2993C77.7627 34.3851 80.4838 40.2583 77.5743 43.6141L83.2806 58.3219ZM79.4915 34.1208C79.4915 34.8075 78.9369 35.3643 78.2523 35.3643C77.5678 35.3643 77.0131 34.8075 77.0131 34.1208C77.0131 33.434 77.5678 32.8772 78.2523 32.8772C78.9369 32.8772 79.4915 33.434 79.4915 34.1208Z" fill="#001229"/>
<path d="M64.3851 31.6777C64.3851 36.5197 67.0671 43.1728 70.971 45.1204L75.5227 61.3383C72.3229 61.9687 68.6789 62.2633 63.8413 62.2633V31.6777H64.3872H64.3851Z" fill="#001229"/>
<path d="M82.1563 59L76.5431 44.5283C75.1111 45.5292 73.7333 45.8282 72.4551 45.6137L76.7901 61.0603C78.8677 60.549 80.642 59.8406 82.1585 59H82.1563ZM75.8542 49.2468C75.2043 49.4634 74.5023 49.1125 74.2857 48.4625C74.0691 47.8126 74.42 47.1085 75.0678 46.8897C75.7177 46.6731 76.4196 47.024 76.6363 47.674C76.8529 48.3239 76.502 49.028 75.8542 49.2468ZM77.4617 54.0671C76.8118 54.2837 76.1098 53.9328 75.8932 53.2828C75.6766 52.6329 76.0275 51.9288 76.6753 51.71C77.3252 51.4934 78.0271 51.8443 78.2438 52.4943C78.4604 53.1442 78.1094 53.8483 77.4617 54.0671ZM79.8751 57.3882C80.0917 58.0381 79.7408 58.7422 79.093 58.961C78.4431 59.1777 77.7412 58.8267 77.5245 58.1768C77.3079 57.5269 77.6588 56.8228 78.3066 56.604C78.9565 56.3873 79.6584 56.7383 79.8751 57.3882Z" fill="#001229"/>
<path d="M21.2284 73.5238C19.8938 72.2911 18.1997 71.665 16.1936 71.665C14.0033 71.665 12.2637 72.3345 11.018 73.656C9.77447 74.9753 9.14404 76.5677 9.14404 78.3875C9.14404 80.3914 9.8178 82.0314 11.1502 83.2597C12.4782 84.4881 14.1745 85.1099 16.1936 85.1099C18.3708 85.1099 20.1105 84.4426 21.3605 83.1276C22.6105 81.8147 23.2431 80.2181 23.2431 78.3875C23.2431 76.3965 22.565 74.7587 21.2284 73.5238ZM19.6274 74.8562C20.5113 75.8549 20.9576 77.1396 20.9576 78.6799C20.9576 80.0599 20.5091 81.206 19.623 82.0899C18.737 82.9738 17.5714 83.4201 16.1589 83.4201C14.7464 83.4201 13.6242 82.9196 12.7446 81.9296C11.8607 80.9373 11.421 79.6483 11.4318 78.0993C11.4318 76.7323 11.8781 75.5906 12.7576 74.7067C13.6372 73.825 14.8071 73.37 16.2326 73.3592C17.6061 73.3592 18.7478 73.864 19.6295 74.8583L19.6274 74.8562Z" fill="#001229"/>
<path d="M47.5443 73.5238C46.2098 72.2911 44.5156 71.665 42.5095 71.665C40.3193 71.665 38.5796 72.3345 37.3339 73.656C36.0904 74.9753 35.46 76.5677 35.46 78.3875C35.46 80.3914 36.1337 82.0314 37.4639 83.2597C38.7919 84.4881 40.4882 85.1099 42.5073 85.1099C44.6846 85.1099 46.4242 84.4426 47.6743 83.1276C48.9243 81.8147 49.5569 80.2181 49.5569 78.3875C49.5569 76.3965 48.8788 74.7587 47.5421 73.5238H47.5443ZM47.2735 78.6778C47.2735 80.0578 46.825 81.2038 45.939 82.0877C45.0529 82.9716 43.8874 83.4179 42.4748 83.4179C41.0623 83.4179 39.9401 82.9175 39.0606 81.9274C38.1767 80.9352 37.7369 79.6462 37.7477 78.0972C37.7477 76.7301 38.194 75.5884 39.0736 74.7045C39.9531 73.8228 41.123 73.3678 42.5485 73.357C43.922 73.357 45.0637 73.8618 45.9455 74.8562C46.8294 75.8549 47.2756 77.1396 47.2756 78.6799L47.2735 78.6778Z" fill="#001229"/>
<path d="M101.053 83.1381C100.385 82.5922 99.4214 81.6411 98.1887 80.3109L95.7688 77.6246L101.332 71.9355H97.021V72.1717C97.021 72.1652 97.2702 72.228 97.2961 72.2388C97.3741 72.2713 97.4391 72.3168 97.4998 72.3732C97.6471 72.5118 97.7273 72.6916 97.7208 72.8953C97.7099 73.1661 97.5518 73.4087 97.3936 73.6189C97.2203 73.8463 97.0275 74.0586 96.8347 74.271L93.2666 78.1489L97.3265 82.6074C98.3187 83.7036 99.0466 84.3535 99.5492 84.5896C99.9934 84.7998 100.479 84.8388 100.951 84.8388C101.033 84.8388 101.116 84.8388 101.198 84.8366H103.6L103.642 84.6395C102.84 84.282 101.737 83.6992 101.051 83.136L101.053 83.1381Z" fill="#001229"/>
<path d="M93.3164 83.9749C93.1908 83.7192 93.1345 83.3661 93.1453 82.922V73.8533C93.1453 73.4222 93.2059 73.0756 93.3251 72.8178C93.4443 72.5621 93.6501 72.3282 93.9339 72.1224L94.1917 71.936H90.0581L90.3029 72.1202C90.5781 72.326 90.7774 72.56 90.8965 72.8156C91.0157 73.0734 91.0828 73.4222 91.0958 73.8512V82.9176C91.0828 83.3618 91.0179 83.7171 90.8965 83.9749C90.7774 84.2305 90.5802 84.458 90.3051 84.6508L90.043 84.8371H94.2068L93.9317 84.6508C93.6457 84.4558 93.4378 84.2283 93.3143 83.9749H93.3164Z" fill="#001229"/>
<path d="M115.085 83.997C114.851 83.7284 114.632 83.3363 114.433 82.8293L110.056 71.9365H107.01L106.967 72.1315C107.173 72.229 107.307 72.3655 107.377 72.5475C107.446 72.7273 107.431 72.9526 107.331 73.2169L103.704 82.3939C103.447 83.0351 103.195 83.5247 102.961 83.8497C102.732 84.1703 102.444 84.439 102.11 84.6491L101.807 84.8376H105.89L105.624 84.6513C105.334 84.4476 105.143 84.205 105.061 83.9255C104.978 83.6482 105.035 83.2669 105.227 82.7946L106.337 80.0108H111.109L112.45 83.3536C112.572 83.6786 112.591 83.945 112.504 84.1487C112.42 84.3523 112.238 84.517 111.963 84.6383L112.004 84.8354H115.873L115.919 84.6404C115.594 84.478 115.312 84.2613 115.08 83.9927L115.085 83.997ZM110.548 78.594H106.898L108.715 73.9686L110.548 78.594Z" fill="#001229"/>
<path d="M123.692 83.9753C123.573 84.2287 123.376 84.4584 123.101 84.6512L122.838 84.8375H127L126.725 84.6512C126.439 84.4562 126.233 84.2287 126.108 83.9731C125.982 83.7175 125.926 83.3643 125.936 82.9202V73.8516C125.936 73.4205 125.997 73.0717 126.116 72.816C126.235 72.5604 126.441 72.3264 126.725 72.1206L126.983 71.9343H126.667C125.878 71.9343 125.362 71.9321 125.087 71.9256C124.806 71.9191 124.537 71.9105 124.281 71.8975L123.363 71.8866C122.86 71.8801 122.388 71.8758 122.345 71.8715C122.28 71.865 122.223 71.8628 122.171 71.8628C120.635 71.8628 119.461 72.1813 118.679 72.8095C117.893 73.4443 117.492 74.3628 117.492 75.537C117.479 76.3105 117.756 77.0037 118.315 77.5952C118.841 78.1519 119.576 78.5289 120.497 78.713C119.461 80.2425 118.441 81.5315 117.466 82.5519C116.467 83.5962 115.564 84.2981 114.784 84.6425L114.818 84.8397C115.022 84.8527 115.293 84.857 115.57 84.857C115.954 84.857 116.346 84.8483 116.588 84.844C116.692 84.8418 116.766 84.8397 116.798 84.8397C117.626 84.8397 118.564 84.2612 119.589 83.1195C120.661 81.9215 121.818 80.2079 123.02 78.0219L123.111 77.8551L122.921 77.8703C122.046 77.9396 121.292 77.7576 120.681 77.3265C120.07 76.8954 119.775 76.3365 119.775 75.615C119.775 74.8936 119.985 74.378 120.401 73.9946C120.819 73.6089 121.439 73.414 122.241 73.414C122.466 73.414 122.676 73.4226 122.864 73.44C122.934 73.4464 123.068 73.453 123.222 73.4616C123.441 73.4746 123.727 73.4898 123.885 73.5071V82.9202C123.872 83.3643 123.807 83.7196 123.686 83.9753H123.692Z" fill="#001229"/>
<path d="M41.3636 92.5067C40.0291 91.2719 38.335 90.6479 36.3288 90.6479C34.1386 90.6479 32.399 91.3174 31.1533 92.6389C29.9097 93.9582 29.2793 95.5506 29.2793 97.3704C29.2793 99.3743 29.9531 101.014 31.2832 102.243C32.6113 103.471 34.3076 104.093 36.3267 104.093C38.5039 104.093 40.2436 103.426 41.4936 102.111C42.7436 100.798 43.3762 99.2032 43.3762 97.3704C43.3762 95.3794 42.6981 93.7416 41.3615 92.5067H41.3636ZM41.0928 97.6607C41.0928 99.0407 40.6444 100.187 39.7583 101.071C38.8722 101.955 37.7067 102.401 36.2942 102.401C34.8817 102.401 33.7595 101.9 32.8799 100.91C31.996 99.9181 31.5562 98.6291 31.567 97.0801C31.567 95.7131 32.0133 94.5713 32.8929 93.6874C33.7725 92.8057 34.9423 92.3508 36.3678 92.3399C37.7414 92.3399 38.8831 92.8447 39.7648 93.8391C40.6487 94.8378 41.095 96.1225 41.095 97.6607H41.0928Z" fill="#001229"/>
<path d="M66.8993 102.972C66.7736 103.217 66.5721 103.438 66.297 103.633L66.0349 103.819H70.1966L69.9214 103.633C69.6355 103.438 69.4318 103.217 69.3127 102.974C69.1935 102.729 69.1329 102.37 69.1329 101.904V92.8331C69.122 92.3803 69.1784 92.0272 69.3018 91.7845C69.4253 91.5397 69.6333 91.3123 69.9214 91.1043L70.1792 90.918H57.3323L57.5771 91.1021C57.8523 91.3101 58.0559 91.5376 58.1816 91.7824C58.3072 92.0272 58.3701 92.3803 58.3701 92.8331V101.902C58.3701 102.368 58.3072 102.727 58.1816 102.97C58.0581 103.215 57.8544 103.436 57.5815 103.631L57.3193 103.817H61.4832L61.2081 103.631C60.9221 103.436 60.7185 103.215 60.5993 102.972C60.4802 102.727 60.4195 102.368 60.4195 101.902V92.5731H67.0834V101.902C67.0834 102.365 67.0206 102.725 66.8949 102.97L66.8993 102.972Z" fill="#001229"/>
<path d="M81.5159 102.972C81.3924 103.215 81.1888 103.438 80.9158 103.633L80.6537 103.819H84.8154L84.5403 103.633C84.2543 103.438 84.0506 103.217 83.9315 102.974C83.8123 102.729 83.7517 102.37 83.7517 101.904V92.8353C83.7517 92.3825 83.8123 92.0272 83.9315 91.7824C84.0506 91.5397 84.2543 91.3101 84.5424 91.1043L84.8002 90.918H81.8799L81.8517 90.9396C81.7261 91.0393 81.6156 91.1411 81.5246 91.2408C81.4293 91.3426 81.3188 91.4877 81.1996 91.6676L74.5357 101.033V92.8353C74.5357 92.3825 74.5964 92.0272 74.7155 91.7824C74.8347 91.5376 75.0405 91.3101 75.3265 91.1043L75.5843 90.918H71.4507L71.6955 91.1021C71.9707 91.3101 72.1743 91.5376 72.3 91.7824C72.4256 92.0272 72.4884 92.3803 72.4884 92.8331V101.902C72.4884 102.365 72.4256 102.725 72.3 102.97C72.1765 103.215 71.9728 103.436 71.6977 103.631L71.4355 103.817H74.3602L74.3884 103.795C74.501 103.706 74.605 103.611 74.6982 103.514C74.7913 103.414 74.904 103.269 75.0427 103.067L81.7066 93.704V101.902C81.7066 102.368 81.6437 102.727 81.5181 102.97L81.5159 102.972Z" fill="#001229"/>
<path d="M108.464 97.7292C108.085 96.9796 107.405 96.3817 106.549 96.0437C106.311 95.9506 106.055 95.8726 105.771 95.8076C104.706 95.5628 103.596 95.6213 102.617 95.6711C101.859 95.7101 101.473 95.7318 101.276 95.7599V92.8353C101.276 92.4041 101.337 92.0575 101.456 91.7997C101.575 91.5441 101.781 91.3101 102.065 91.1043L102.323 90.918H98.189L98.4338 91.1021C98.7089 91.3079 98.9082 91.5419 99.0274 91.7975C99.1466 92.0553 99.2137 92.4041 99.2267 92.8331V101.9C99.2137 102.344 99.1487 102.699 99.0274 102.957C98.9082 103.212 98.7111 103.44 98.436 103.633L98.1738 103.819H103.462C105.265 103.819 106.627 103.436 107.518 102.679C108.412 101.919 108.865 100.877 108.865 99.5815C108.865 98.8796 108.731 98.2557 108.464 97.7292ZM105.849 101.523C105.377 102.008 104.636 102.244 103.625 102.235C103.323 102.235 102.457 102.222 102.141 102.199C101.848 102.177 101.558 102.14 101.276 102.088V97.3154L101.989 97.2504C102.193 97.2331 102.375 97.2266 102.552 97.2201L102.715 97.2136C104.097 97.1573 105.256 97.3934 105.813 97.844C106.322 98.2578 106.58 98.8341 106.58 99.5577C106.567 100.374 106.322 101.033 105.849 101.518V101.523Z" fill="#001229"/>
<path d="M8.56388 71.8596L8.45122 71.8856C8.3494 71.9094 8.24541 71.9224 8.14143 71.9289C8.03527 71.9354 7.92912 71.9376 7.8208 71.9376H0.015165L0.259971 72.1217C0.532941 72.3275 0.734418 72.5637 0.851405 72.8258C0.970559 73.0901 1.03772 73.4367 1.05072 73.8527V82.9214C1.05072 83.3503 0.98789 83.7013 0.862237 83.9656C0.738751 84.2255 0.535107 84.4574 0.262137 84.6523L0 84.8386H4.29602L3.97322 84.648C3.66559 84.466 3.44245 84.2407 3.30596 83.9807C3.16948 83.7186 3.10015 83.3633 3.10015 82.9214V73.6621C3.5681 73.6512 3.99705 73.6361 4.38701 73.6187C4.79863 73.6014 5.56988 73.5906 5.88618 73.5906C6.66826 73.5906 7.24669 73.6014 7.59332 73.7465C7.59982 73.7487 8.19775 74.013 8.46856 74.6239L8.49672 74.6868L8.83685 74.6738L8.56605 71.8574L8.56388 71.8596Z" fill="#001229"/>
<path d="M33.2089 72.8674C32.4702 72.2629 31.2981 71.9488 29.7253 71.938H24.2291L24.4739 72.1221C24.749 72.3279 24.9483 72.5619 25.0675 72.8176C25.1866 73.0754 25.2538 73.4242 25.2668 73.8531V82.9218C25.2668 83.3875 25.204 83.7472 25.0783 83.9898C24.9548 84.2346 24.7512 84.4556 24.4761 84.6506L24.1489 84.8369H28.6876C28.3258 84.6787 27.7387 84.2368 27.5632 83.914C27.3856 83.5869 27.3011 83.1557 27.3141 82.6293V73.4697C27.678 73.4458 29.0255 73.3722 30.0069 73.5195C30.0113 73.5195 30.4684 73.5888 30.7175 73.7036L30.737 73.7123C30.9688 73.8098 31.1746 73.9354 31.348 74.0914C31.7986 74.4922 32.0347 75.0533 32.0455 75.7552C32.0347 76.6608 31.7054 77.3736 31.0707 77.8697C30.5095 78.3094 29.7968 78.5759 28.9519 78.6561L28.8739 78.6647L28.8262 78.955L28.9172 78.9767C29.097 79.02 29.2444 79.0504 29.3808 79.0699C29.6495 79.1067 29.903 79.124 30.1348 79.124C31.387 79.1327 32.4073 78.7817 33.1721 78.0711C33.939 77.3584 34.3268 76.4571 34.3268 75.3934C34.3268 74.3297 33.9498 73.4761 33.2046 72.8652L33.2089 72.8674Z" fill="#001229"/>
<path d="M27.3336 91.8474C26.5948 91.2429 25.4228 90.931 23.8499 90.918H18.3537L18.5985 91.1021C18.8737 91.3079 19.073 91.5419 19.1921 91.7975C19.3113 92.0553 19.3784 92.4041 19.3914 92.8331V101.902C19.3914 102.368 19.3286 102.727 19.203 102.97C19.0795 103.215 18.8975 103.42 18.6245 103.615L18.3169 103.817H22.8426L22.4981 103.641C22.1341 103.464 21.8655 103.217 21.6922 102.894C21.5145 102.567 21.43 102.136 21.443 101.609V92.4496C21.807 92.4258 23.1545 92.3521 24.1337 92.4995C24.3071 92.5255 24.6515 92.5926 24.8443 92.6814L24.866 92.6923C25.0978 92.7898 25.3014 92.9154 25.4769 93.0714C25.9275 93.4722 26.1637 94.0333 26.1745 94.7352C26.1637 95.6408 25.8344 96.3535 25.1996 96.8496C24.6385 97.2894 23.9258 97.5537 23.0809 97.6361L23.0029 97.6447L22.9552 97.935L23.0462 97.9567C23.226 98 23.3733 98.0303 23.5098 98.0477C23.7785 98.0845 24.0319 98.104 24.2637 98.104C25.5138 98.1148 26.5363 97.7617 27.3011 97.0511C28.068 96.3384 28.4558 95.4371 28.4558 94.3734C28.4558 93.3097 28.0788 92.4561 27.3336 91.8452V91.8474Z" fill="#001229"/>
<path d="M61.3031 83.1824V73.8538C61.3031 73.4227 61.3637 73.0739 61.4829 72.8183C61.602 72.5626 61.8057 72.3286 62.0916 72.1228L62.3494 71.9365H51.8596L52.1997 72.1293C52.5659 72.3351 52.8432 72.6254 53.0273 72.9937C53.2115 73.3664 53.3133 73.9123 53.3241 74.6164C53.3241 76.2802 53.1356 77.8422 52.7673 79.2612C52.4012 80.6586 51.8379 81.9779 51.0905 83.1846H49.561V87.5673H50.0571V87.4676C50.0745 86.7852 50.1828 86.1981 50.3843 85.7215C50.6096 85.1864 51.1642 84.8419 51.7968 84.8419H60.7615C61.4525 84.8419 61.9097 85.1301 62.1588 85.7215C62.3603 86.1981 62.4729 86.7852 62.4946 87.4676V87.5673H63.0189V83.1846H61.3009L61.3031 83.1824ZM53.127 83.1824C53.8007 81.8891 54.3033 80.4636 54.6218 78.9427C54.9468 77.3916 55.1157 75.5913 55.1222 73.5917H59.2558V83.1803H53.1291L53.127 83.1824Z" fill="#001229"/>
<path d="M74.6032 82.2567L74.5425 82.3043C74.1461 82.6098 73.7041 82.8286 73.2275 82.9586C72.6426 83.1189 71.919 83.1947 71.0741 83.1817C70.7058 83.1817 70.3158 83.1731 69.9129 83.1557C69.7894 83.1492 69.5229 83.1427 69.2023 83.1341C68.548 83.1167 67.6728 83.0929 67.3218 83.0647V78.7081H70.604C70.9051 78.7081 71.1629 78.7427 71.3687 78.8121C71.568 78.8792 71.75 78.9919 71.9082 79.15L72.0815 79.3233V76.9013L71.958 76.9294C71.854 76.9533 71.75 76.9663 71.6482 76.9728C71.542 76.9793 71.4359 76.9814 71.3297 76.9814H67.324V73.6278L71.7803 73.5736C72.2136 73.5736 72.5797 73.6213 72.87 73.7145C73.1517 73.8054 73.3987 73.9658 73.6045 74.1932L73.7821 74.3925V71.938H64.2368L64.4817 72.1221C64.7568 72.3279 64.9561 72.5641 65.0731 72.8262C65.1922 73.0905 65.2594 73.4372 65.2724 73.8531V82.9218C65.2724 83.3507 65.2096 83.7017 65.0839 83.966C64.9604 84.2281 64.7568 84.4578 64.4838 84.6527L64.2217 84.839H74.0053L74.8675 82.4516L74.6054 82.2567H74.6032Z" fill="#001229"/>
<path d="M87.1073 83.1822V73.8514C87.0964 73.3986 87.1528 73.0455 87.2784 72.8028C87.4019 72.558 87.6121 72.3305 87.898 72.1226L88.1558 71.9363H84.0223L84.2671 72.1204C84.5422 72.3262 84.7459 72.5558 84.8715 72.8007C84.9972 73.0455 85.06 73.3986 85.06 73.8514V83.18H78.981V73.8514C78.981 73.3986 79.0417 73.0433 79.1608 72.7985C79.28 72.5537 79.4858 72.3262 79.7718 72.1204L80.0296 71.9341H75.896L76.1408 72.1182C76.416 72.324 76.6196 72.5537 76.7453 72.7985C76.8709 73.0433 76.9337 73.3964 76.9337 73.8492V82.9179C76.9337 83.3836 76.8709 83.7433 76.7453 83.9859C76.6196 84.2307 76.4181 84.4517 76.143 84.6467L75.8809 84.833H86.5093C87.0401 84.833 87.69 85.1059 87.9457 85.7125C88.1645 86.2303 88.2793 86.8803 88.2858 87.6385V87.7403H88.7126L88.8296 87.7013V83.1757H87.1116L87.1073 83.1822Z" fill="#001229"/>
<path d="M55.935 101.257L55.8787 101.298C55.4367 101.614 54.9428 101.859 54.4077 102.024C53.7144 102.238 52.9193 102.347 52.0419 102.347C50.5341 102.347 49.2993 101.857 48.3699 100.891C47.4405 99.9246 46.9703 98.6052 46.9703 96.9717C46.9703 95.5462 47.434 94.4154 48.346 93.6116C49.2624 92.8035 50.3608 92.3941 51.6065 92.3941C52.2564 92.3941 52.889 92.5024 53.4913 92.7147C54.0936 92.927 54.646 93.2043 55.1313 93.538L55.2916 93.6463V91.1441L55.1963 91.1376C55.0446 91.1267 54.8995 91.1051 54.7673 91.0769C54.6287 91.0466 54.4402 91.0011 54.1975 90.9404C53.6299 90.8191 53.175 90.7389 52.8479 90.7021C52.5207 90.6653 52.1741 90.6479 51.8231 90.6479C49.6091 90.6609 47.8477 91.3369 46.5847 92.6562C45.3239 93.9756 44.6848 95.5917 44.6848 97.4614C44.6718 99.4046 45.3109 101.012 46.5782 102.243C47.8456 103.471 49.635 104.095 51.8968 104.095C52.4991 104.082 53.0537 104.043 53.5454 103.976C54.0394 103.909 54.5572 103.794 55.0879 103.638L55.1291 103.625L56.2296 101.45L55.9307 101.259L55.935 101.257Z" fill="#001229"/>
<path d="M96.7592 101.294L96.7029 101.335C96.2609 101.651 95.767 101.896 95.2319 102.06C94.5386 102.275 93.7436 102.383 92.8662 102.383C91.3583 102.383 90.1235 101.894 89.1941 100.927C88.2647 99.9612 87.7946 98.6419 87.7946 97.0084C87.7946 95.5829 88.2582 94.452 89.1702 93.6482C90.0866 92.8402 91.185 92.4307 92.4307 92.4307C93.0806 92.4307 93.7132 92.539 94.3155 92.7513C94.9178 92.9658 95.4702 93.241 95.9555 93.5746L96.1158 93.6829V91.1807L96.0205 91.1742C95.8688 91.1633 95.7258 91.1417 95.5915 91.1135C95.4529 91.0832 95.2644 91.0377 95.0218 90.977C94.4541 90.8557 93.9992 90.7756 93.6721 90.7387C93.3428 90.7019 93.0005 90.6846 92.6474 90.6846C90.4333 90.6976 88.672 91.3735 87.4089 92.6928C86.1481 94.0122 85.509 95.6283 85.509 97.498C85.496 99.4413 86.1351 101.049 87.4024 102.279C88.6698 103.508 90.4593 104.132 92.721 104.132C93.3254 104.119 93.88 104.08 94.3697 104.012C94.8636 103.945 95.3814 103.83 95.9143 103.674L95.9576 103.661L97.0582 101.486L96.7592 101.296V101.294Z" fill="#001229"/>
<path d="M63.4111 6.62549C58.9028 6.62549 55.248 10.2802 55.248 14.7886C55.248 19.2969 58.9028 22.9517 63.4111 22.9517C67.9195 22.9517 71.5742 19.2969 71.5742 14.7886C71.5742 10.2802 67.9195 6.62549 63.4111 6.62549ZM63.4111 20.2848C59.8994 20.2848 57.0527 17.4381 57.0527 13.9263C57.0527 10.4146 59.8994 7.56788 63.4111 7.56788C66.9229 7.56788 69.7696 10.4146 69.7696 13.9263C69.7696 17.4381 66.9229 20.2848 63.4111 20.2848Z" fill="#001229"/>
<path d="M63.411 7.49609C60.8308 7.49609 58.7402 9.58669 58.7402 12.1669C58.7402 14.7471 60.8308 16.8377 63.411 16.8377C65.9913 16.8377 68.0819 14.7471 68.0819 12.1669C68.0819 9.58669 65.9913 7.49609 63.411 7.49609ZM63.411 12.4615C62.1524 12.4615 61.1341 11.4412 61.1341 10.1846C61.1341 8.9281 62.1545 7.90771 63.411 7.90771C64.6676 7.90771 65.688 8.9281 65.688 10.1846C65.688 11.4412 64.6676 12.4615 63.411 12.4615Z" fill="#001229"/>
<path d="M63.1878 7.2142C63.2636 7.2142 63.3373 7.20986 63.4131 7.2077C63.4868 7.21203 63.5626 7.2142 63.6384 7.2142C66.6389 7.2142 68.6255 4.54516 68.6255 2.55638C68.6255 1.14387 67.369 0 65.82 0C64.7953 0 63.9027 0.502611 63.4131 1.24786C62.9235 0.500444 62.0309 0 61.0062 0C59.4572 0 58.2007 1.14604 58.2007 2.55638C58.2007 4.54516 60.1873 7.2142 63.1878 7.2142Z" fill="#001229"/>
<path d="M63.6365 22.2705C63.5606 22.2705 63.487 22.2748 63.4111 22.277C63.3375 22.2727 63.2617 22.2705 63.1858 22.2705C60.1853 22.2705 58.1987 24.9395 58.1987 26.9283C58.1987 28.3408 59.4553 29.4847 61.0043 29.4847C62.029 29.4847 62.9215 28.9821 63.4111 28.2368C63.9008 28.9843 64.7933 29.4847 65.8181 29.4847C67.367 29.4847 68.6236 28.3387 68.6236 26.9283C68.6236 24.9395 66.637 22.2705 63.6365 22.2705Z" fill="#001229"/>
<path d="M56.7492 11.2287C56.786 11.1638 56.8207 11.0966 56.8532 11.0294C56.8922 10.9666 56.9334 10.9038 56.9702 10.8366C58.4477 8.22392 57.1045 5.18226 55.3735 4.20087C54.1452 3.50544 52.529 4.03405 51.7664 5.38157C51.2617 6.27197 51.2595 7.29669 51.6668 8.09177C50.7764 8.15026 49.899 8.68103 49.3942 9.57143C48.6316 10.919 49.0086 12.5763 50.2391 13.2717C51.9701 14.2509 55.2717 13.8371 56.7492 11.2244V11.2287Z" fill="#001229"/>
<path d="M70.075 18.2543C70.0382 18.3192 70.0036 18.3864 69.9711 18.4536C69.9321 18.5164 69.8909 18.5792 69.8541 18.6464C68.3766 21.2591 69.7198 24.3007 71.4507 25.2821C72.6791 25.9776 74.2952 25.449 75.0578 24.1014C75.5626 23.211 75.5648 22.1863 75.1575 21.3912C76.0479 21.3327 76.9253 20.802 77.4301 19.9116C78.1926 18.5641 77.8157 16.9067 76.5852 16.2113C74.8542 15.2321 71.5526 15.6459 70.075 18.2586V18.2543Z" fill="#001229"/>
<path d="M70.075 11.2287C70.0382 11.1638 70.0036 11.0966 69.9711 11.0294C69.9321 10.9666 69.8909 10.9038 69.8541 10.8366C68.3766 8.22392 69.7198 5.18226 71.4507 4.20087C72.6791 3.50544 74.2952 4.03405 75.0578 5.38157C75.5626 6.27197 75.5648 7.29669 75.1575 8.09177C76.0479 8.15026 76.9253 8.68103 77.4301 9.57143C78.1926 10.919 77.8157 12.5763 76.5852 13.2717C74.8542 14.2509 71.5526 13.8371 70.075 11.2244V11.2287Z" fill="#001229"/>
<path d="M56.7492 18.2543C56.786 18.3192 56.8207 18.3864 56.8532 18.4536C56.8922 18.5164 56.9334 18.5792 56.9702 18.6464C58.4477 21.2591 57.1045 24.3007 55.3735 25.2821C54.1452 25.9776 52.529 25.449 51.7664 24.1014C51.2617 23.211 51.2595 22.1863 51.6668 21.3912C50.7764 21.3327 49.899 20.802 49.3942 19.9116C48.6316 18.5641 49.0086 16.9067 50.2391 16.2113C51.9701 15.2321 55.2717 15.6459 56.7492 18.2586V18.2543Z" fill="#001229"/>
<path d="M63.4111 7.8418C64.0957 7.8418 64.6503 8.39857 64.6503 9.08533C64.6503 9.77208 64.0957 10.3289 63.4111 10.3289C62.7265 10.3289 62.1719 9.77208 62.1719 9.08533C62.1719 8.39857 62.7265 7.8418 63.4111 7.8418Z" fill="#001229"/>
</svg>
