<svg width="131" height="120" viewBox="0 0 131 120" fill="none" xmlns="http://www.w3.org/2000/svg">
<path d="M45.0518 26.9425C46.4117 24.6566 49.1049 23.7831 51.7274 24.2381C54.2512 24.6763 56.3461 26.1136 58.0934 28.0361C58.9447 28.9727 59.7599 30.1012 60.4865 31.3426H43.7462C43.8397 29.8122 44.2304 28.3232 45.0518 26.9425ZM64.0649 49.1842C65.779 47.9929 67.1869 46.5344 68.2649 44.8883L64.6697 44.1133C62.8925 46.9932 59.2654 48.3373 57.8116 48.552C57.7592 48.5601 57.7065 48.5672 57.6538 48.5741C57.5271 48.5905 57.4114 48.6028 57.3074 48.6118C57.2823 48.6137 57.2574 48.6163 57.2322 48.6182C56.9428 48.6405 56.7672 48.6381 56.7672 48.6381C54.2313 48.6657 52.0038 47.6183 50.1564 46.0711C46.8114 43.2694 44.881 39.3806 44.0366 35.106C44.0048 34.9456 43.9759 34.785 43.9486 34.6244L43.9479 34.6237H43.9483H62.073H69.523H70.635C70.0495 29.4104 66.785 24.7268 61.6927 22.4065C55.7834 19.7137 48.7327 20.0418 43.2973 23.6699C37.2362 27.7154 34.6787 35.2125 37.1216 42.0202C37.9263 44.263 39.2687 46.2291 40.9638 47.8335C47.2164 53.7511 57.1997 53.9558 64.0649 49.1842Z" fill="#001229"/>
<path d="M78.2687 48.5844H78.2791L80.8155 22.774H86.1433L83.2575 52.1459H93.4529V50.2319C92.5488 50.2319 91.8392 49.5134 91.9179 48.6859L94.3072 24.3177C94.3941 23.4466 95.1903 22.7717 96.1471 22.7717V20.8603H77.0385V22.774C77.9427 22.774 78.6523 23.4926 78.5735 24.3201L76.5707 44.7086C75.769 44.1134 74.7572 43.7575 73.6478 43.7575C70.8908 43.7575 68.696 45.9569 69.0246 48.5531C69.2611 50.4497 70.9143 52.0176 72.9698 52.2837L72.9724 52.2861C75.6428 52.632 77.9505 50.895 78.2687 48.5844Z" fill="#001229"/>
<path d="M22.192 48.8227L9.29863 48.728C14.5109 41.6707 15.5441 32.2734 15.3133 23.8065L22.7982 23.7802C23.1892 23.7788 23.9016 24.188 23.9016 24.6931L23.9073 47.4451C23.9075 48.4092 23.0062 48.8286 22.192 48.8227ZM36.6213 49.0172L33.2814 48.9965C32.6778 49.0184 32.1644 48.6253 32.1647 47.9361L32.178 20.8587L7.678 20.8829L7.64028 23.7975L9.81274 23.8091C10.8194 23.8146 11.7202 24.2748 11.8049 25.4581C12.2554 31.7446 11.1999 40.1703 7.61608 45.5216C5.58596 48.5529 3.67898 49.1541 0.00616864 48.8938L0 52.313L36.5067 52.2954L36.6213 49.0172Z" fill="#001229"/>
<path d="M122.533 44.3086C121.559 46.603 119.422 47.9787 116.759 48.0077C114.224 48.0354 111.996 46.9878 110.148 45.4406C106.803 42.6392 104.873 38.7503 104.029 34.4755C103.473 31.6641 103.557 28.8112 105.044 26.3122C106.404 24.0261 109.097 23.1526 111.719 23.6078C114.244 24.046 116.338 25.4834 118.085 27.4056C121.749 31.4359 124.814 38.9363 122.533 44.3086ZM130.639 34.0784C130.08 28.8307 126.805 24.1091 121.685 21.776C115.776 19.0834 108.725 19.4115 103.289 23.0395C97.2285 27.0851 94.6709 34.5822 97.1136 41.3897C97.9186 43.6327 99.2609 45.5988 100.956 47.203C107.208 53.1209 117.192 53.3253 124.057 48.554C128.818 45.2447 131.259 39.8992 130.639 34.0784Z" fill="#001229"/>
<path d="M104.426 82.3317C104.352 84.8918 99.9707 83.947 97.4134 81.5066C93.3883 77.6654 91.2939 71.3186 90.6191 65.8498C93.3562 62.2834 97.8124 58.5719 102.49 60.335L103.476 56.4819C99.2554 55.8882 95.4084 57.0447 92.2822 59.7434C88.6607 62.8693 85.9838 66.7053 83.9864 71.0102L83.967 59.3448C83.9658 58.6265 84.9717 58.3034 85.7546 58.3859L85.8253 56.3807L73.4387 56.3501L73.3792 58.528L74.5825 58.5356C75.3476 58.5406 75.9924 58.9619 75.9917 59.8717L75.9704 84.9699C75.6183 85.3981 74.7027 85.8246 75.094 86.7916L85.4317 86.8172C86.5022 84.7763 84.1065 86.012 83.9898 83.8943C83.9015 78.8675 84.2801 76.9443 86.0825 72.4077C89.2471 81.4022 95.6566 88.6621 105.774 87.1083C106.271 87.0319 107.476 86.7339 107.482 86.1511L107.548 79.1023L104.519 79.1109L104.426 82.3317Z" fill="#001229"/>
<path d="M26.6345 73.6649C24.2672 74.4364 21.9137 74.5094 19.3365 74.3249L19.3503 59.2265C21.6236 59.1755 23.7273 59.1988 25.8129 59.7278C29.0691 60.5538 31.3495 63.1287 31.4762 66.6323C31.5986 70.0192 29.684 72.6712 26.6345 73.6649ZM24.4938 56.4144L8.15227 56.3755L8.11194 59.0977L10.9411 59.1067C11.2448 59.1077 11.7385 59.6925 11.7382 60.0889L11.7214 84.0773L8.05808 84.2014L8.02368 87.2246L24.8509 87.2106L24.8321 84.1383L19.3401 84.1032L19.3472 77.4008C25.3059 77.4717 32.1538 77.132 36.8199 73.1675C38.9082 71.393 39.9971 68.8919 39.8581 66.2032C39.484 58.9691 30.6316 56.4291 24.4938 56.4144Z" fill="#001229"/>
<path d="M58.8546 92.5979L56.2366 89.188C56.5391 87.6423 56.9803 86.152 57.4916 84.6601C60.3326 85.5829 62.3718 88.0683 62.3718 90.9978C62.3718 94.7131 59.0985 97.7249 55.0605 97.7249C51.0226 97.7249 47.7491 94.7131 47.7491 90.9978C47.7491 87.2829 51.0226 84.271 55.0605 84.271C55.0608 84.271 55.0613 84.271 55.0615 84.271L53.7944 87.8868C53.6496 88.2991 53.2098 88.919 52.9498 89.2545C52.9576 89.4298 50.5294 92.6169 50.5294 92.6169L58.8546 92.5979ZM64.4771 59.2231C63.7395 60.7065 63.0439 62.1097 62.4465 63.6531L58.6154 73.5483C55.9803 68.8878 54.3927 63.6521 54.8195 58.4187L54.9868 56.3666L41.677 56.3766L41.7173 58.3641C42.6528 58.3205 43.2701 58.3126 43.8514 58.6376C45.1799 66.7432 49.2539 74.8993 57.2427 78.0478L55.5035 83.0099C55.2764 83.0023 55.0482 82.9981 54.8181 82.9981C47.7901 82.9981 42.0723 86.5845 42.0723 90.9924C42.0723 93.4731 43.8834 95.6935 46.7197 97.161C48.923 98.3092 51.7529 99 54.8399 99C61.8671 99 67.5639 95.4231 67.5639 91.0109C67.5639 91.0078 67.5634 91.0047 67.5634 91.0016C67.5634 90.9986 67.5639 90.9955 67.5639 90.9924C67.5639 87.2703 63.4866 84.1339 57.9863 83.2481L62.9514 69.6006C63.9345 66.8984 65.0228 64.3135 66.409 61.8914C67.5596 59.8809 69.4574 59.1776 71.7674 59.5929L71.8417 56.36C68.0548 56.3799 66.7784 55.9366 64.4771 59.2231Z" fill="#001229"/>
</svg>
