<svg width="199" height="55" viewBox="0 0 199 55" fill="none" xmlns="http://www.w3.org/2000/svg">
<path d="M0.117865 0.325565C-0.0856154 0.874962 -0.00422333 42.507 0.199257 44.0534C0.463781 45.8848 1.39979 47.7975 2.43754 48.6317C4.00433 49.873 4.79791 50.0765 9.13203 50.3817C15.2161 50.809 17.9427 51.6839 20.0996 53.8815L21.1984 55.0007L22.0937 53.9629C23.9861 51.806 27.0586 50.809 33.2037 50.3817C36.6629 50.1375 37.3547 50.0358 38.3111 49.5881C40.4476 48.6114 41.7092 46.7597 42.1162 44.0534C42.3196 42.507 42.4214 0.895309 42.1976 0.325565C42.0755 0.0406952 40.0407 0 21.1577 0C2.27475 0 0.239953 0.0406952 0.117865 0.325565ZM41.0988 21.8131C41.0988 35.1003 41.0174 42.6901 40.8749 43.5447C40.3052 47.0853 38.1483 48.6317 33.7531 48.6317C28.483 48.6317 23.8843 49.7305 21.9106 51.4805L21.1577 52.1316L20.4455 51.5008C18.4718 49.7712 15.2975 48.9573 9.35586 48.6521C5.18452 48.4283 4.20782 48.1637 2.92589 46.8818C1.23701 45.1929 1.33875 46.6376 1.25735 22.627L1.19631 1.42436H21.1577H41.0988V21.8131Z" fill="#001229"/>
<path d="M26.9975 3.60154L27.1196 4.53755L26.6923 4.11024C26.265 3.68293 25.8377 3.52015 25.8377 3.76432C25.8377 3.82537 26.0412 4.17128 26.3057 4.49685C26.6313 4.96486 26.7534 5.39217 26.733 6.10435C26.733 7.1014 26.1429 8.74959 25.797 8.74959C25.4104 8.74959 25.0034 7.30488 25.1459 6.38922C25.3087 5.29042 25.1052 5.22938 24.6982 6.24678C24.3523 7.08105 24.454 8.09845 24.9831 8.99376C25.2883 9.52281 25.2883 9.58386 24.8 10.0926C24.5354 10.3774 24.0674 10.7437 23.7622 10.9065C23.2535 11.171 23.1721 11.1507 22.6024 10.6826C21.8902 10.0722 21.5036 9.05481 21.585 7.93567C21.6664 6.81653 21.4425 6.71479 21.1577 7.75254C20.8525 8.87168 21.0152 9.84838 21.646 10.7437C21.9309 11.1507 22.114 11.5373 22.053 11.6187C21.9919 11.7204 21.585 11.8832 21.1373 12.0053C20.4251 12.2088 20.242 12.1884 19.9164 11.8832C19.4891 11.4966 19.0415 10.0926 19.2043 9.6449C19.2653 9.48212 19.1839 9.36003 19.0211 9.36003C18.6142 9.36003 18.6142 11.0896 19.0008 11.8425L19.306 12.4122H18.309C17.434 12.4122 17.2712 12.3308 16.6811 11.6594C15.6637 10.5199 15.1754 9.23794 15.1754 7.83393C15.1754 6.47061 15.6637 4.78172 16.3148 3.9678C16.8235 3.31667 16.6404 3.05214 16.0503 3.58119C15.5213 4.04919 14.9515 5.14799 14.748 6.0433C14.687 6.40956 14.4835 6.71479 14.3411 6.71479C14.0562 6.71479 13.6289 5.69739 13.6289 5.00555C13.6289 4.65964 13.5882 4.63929 13.4254 4.88346C13.0795 5.43286 13.2219 6.22643 13.8324 7.14209C14.1987 7.67114 14.4428 8.30193 14.4428 8.68855C14.4428 9.48212 14.1173 9.56351 13.7917 8.85133C13.5272 8.28159 13.2219 8.17984 13.2219 8.6682C13.2219 8.85133 13.5272 9.29898 13.9138 9.66525C14.6667 10.3774 15.4602 11.5373 15.4602 11.9442C15.4602 12.3308 14.9719 12.2698 14.4021 11.8018C13.8527 11.3948 13.5882 11.4355 13.7713 11.9239C13.9341 12.3512 14.9312 12.8192 15.6637 12.8192C16.966 12.8192 15.8875 13.6738 13.9545 14.1622L12.6115 14.4877V15.261C12.6115 16.197 12.876 16.4208 14.158 16.665C15.7858 16.9905 15.8265 17.0109 15.6637 17.8655C15.5009 18.7812 14.9719 19.8189 13.751 21.6299C12.815 23.0135 12.2045 24.621 12.2045 25.6791C12.2045 26.0047 12.3877 26.7576 12.5912 27.368C12.9778 28.4261 12.9778 28.4668 12.6115 28.7924C12.347 29.0366 11.5127 29.2197 9.88487 29.4028C8.5419 29.5453 7.38207 29.7691 7.19894 29.9319C6.99546 30.0947 6.5478 30.8882 6.16119 31.7021C5.79492 32.5161 5.12344 33.7166 4.69613 34.3677C3.67873 35.8531 3.51595 37.1961 4.24847 37.9083L4.69613 38.3559L5.28622 37.6641C5.81527 37.0333 5.85597 36.9519 5.5711 36.5246C5.30657 36.1177 5.30657 36.0566 5.59144 35.9549C5.79492 35.8735 5.89666 35.5479 5.89666 34.9782C5.89666 34.1032 6.62919 32.862 7.80938 31.7632L8.31808 31.2748L10.6174 31.7225C12.876 32.1498 14.8498 32.2719 15.1143 32.0074C15.1957 31.9463 14.9108 31.458 14.5039 30.9493L13.751 30.0133L14.5853 30.7254C15.0533 31.1121 15.4399 31.519 15.4399 31.6208C15.4602 31.7225 15.8265 32.5568 16.2538 33.4521C17.1695 35.3648 17.3322 36.5246 17.3729 41.4692C17.3933 44.0737 17.3322 44.6435 17.0881 44.8266C16.7218 45.1115 16.0707 46.0068 16.0707 46.2306C16.0707 46.3324 16.5387 46.3934 17.0881 46.3934H18.1055V45.6812C18.1055 45.1318 18.1869 44.969 18.4717 44.969C18.777 44.969 18.8176 44.6842 18.8176 41.9779C18.8176 38.6001 19.1839 34.9171 19.6316 33.8387L19.9368 33.1265L21.117 33.2486C24.5761 33.6556 24.9627 33.6352 26.7737 33.0655C28.8085 32.4143 28.7882 32.4143 30.7619 34.0015C31.5148 34.6119 32.7153 35.5886 33.4479 36.1584C34.1804 36.7485 34.9333 37.4606 35.1164 37.7455C35.6251 38.5391 36.1542 40.2687 36.4187 42.0593C36.5408 42.9342 36.7239 43.8906 36.8256 44.1958C36.9477 44.6231 36.8867 44.8877 36.5001 45.3964C36.2355 45.7626 36.0117 46.1492 36.0117 46.2306C36.0117 46.5155 37.843 46.4138 37.8837 46.1289C37.8837 46.0068 37.9244 45.6202 37.9448 45.315C37.9651 45.0097 38.0872 44.6435 38.2093 44.5214C38.3517 44.379 38.3314 44.1144 38.1483 43.6668C37.7616 42.7511 37.2936 40.0855 37.1309 37.949L36.9884 36.1177L35.7879 34.9985C35.1571 34.3881 34.5467 33.6149 34.4653 33.3096C34.4042 33.0044 34.4042 31.6208 34.4856 30.2371L34.6281 27.7139L35.3199 27.7343C36.5611 27.775 36.5611 27.4087 35.2995 26.2285C34.1397 25.1297 33.4072 24.7635 30.884 24.0513C29.8259 23.7461 29.5817 23.7461 27.5266 24.0716C24.6779 24.5193 21.7681 24.5396 20.8321 24.092C19.4077 23.4002 19.2043 21.9351 20.0589 18.3945C20.3438 17.194 20.5472 15.9528 20.5065 15.6272C20.4251 15.1389 20.4862 15.0575 20.8931 15.0575C22.1751 15.0575 23.4366 13.9587 23.1111 13.1244C23.0093 12.8599 22.8262 12.8192 22.3379 12.9209C21.7478 13.0227 21.7885 12.982 22.7245 12.4529C23.2942 12.1274 24.1895 11.8018 24.7186 11.7611C25.3087 11.6797 25.8377 11.4762 26.1022 11.2117C26.672 10.6623 26.4278 10.4792 25.6546 10.8658C24.7796 11.3338 24.6982 11.2727 25.3901 10.703C26.9162 9.40073 28.076 5.41251 27.4859 3.43876C27.1603 2.33996 26.8348 2.42135 26.9975 3.60154ZM17.2915 14.3249C17.2915 14.386 17.2102 14.4877 17.0881 14.5488C16.9863 14.6098 16.8846 14.5691 16.8846 14.4674C16.8846 14.3453 16.9863 14.2436 17.0881 14.2436C17.2102 14.2436 17.2915 14.2842 17.2915 14.3249Z" fill="#001229"/>
<path d="M27.9743 33.0847C27.8725 33.105 27.5063 33.1864 27.201 33.2475L26.6313 33.3899L27.0586 33.9189C27.2824 34.2038 27.4656 34.5497 27.4656 34.6922C27.4656 34.8143 27.8318 35.4247 28.2795 36.0351C28.7475 36.6252 29.1545 37.3374 29.2155 37.5816C29.2765 37.8258 29.1341 38.599 28.9103 39.3112C28.4016 40.8576 26.0616 44.7848 25.5122 45.0493C25.3087 45.151 24.9221 45.497 24.6575 45.8022L24.1692 46.3923H25.1255C25.9598 46.3923 26.1836 46.2905 26.8755 45.619C27.3435 45.151 27.9539 44.154 28.4016 43.1162C29.1545 41.407 30.2125 39.6774 31.4741 38.131C31.8404 37.663 32.1456 37.2153 32.1456 37.1136C32.1456 36.9915 31.9625 36.5642 31.7387 36.1165C31.5148 35.6689 31.3317 35.1602 31.3317 34.977C31.3317 34.4073 28.6458 32.9015 27.9743 33.0847Z" fill="#001229"/>
<path d="M57.377 11.2921V15.2599H58.2926H59.2083L59.2286 13.1641V11.0886L60.0425 13.1641L60.8565 15.2599H61.6297H62.4029L63.2372 13.1641L64.0714 11.0886V13.1641L64.0918 15.2599H65.0075H65.9231V11.2921V7.30388L64.7633 7.36492L63.6034 7.42596L62.8302 9.35903C61.4873 12.6961 61.7518 12.6554 60.6326 9.86773L59.6559 7.42596L58.5164 7.36492L57.377 7.30388V11.2921Z" fill="#001229"/>
<path d="M67.144 11.2918V15.2596H67.9376C68.7312 15.2596 68.7719 15.2189 70.3387 13.0824L71.9258 10.9255L71.9869 13.1027L72.0479 15.28L73.0043 15.2189L73.9606 15.1579V11.2918V7.42564L73.1264 7.36459L72.2921 7.30355L70.6439 9.58252L68.9754 11.8615V9.58252V7.3239H68.0597H67.144V11.2918Z" fill="#001229"/>
<path d="M75.0798 11.2918V15.2596H75.9955H76.9112V13.7335V12.2074H78.3355H79.7395L79.8006 13.6725L79.8616 15.1579L80.8383 15.2189L81.7947 15.28V11.2918V7.30355L80.8383 7.36459L79.8616 7.42564L79.8006 8.89069L79.7395 10.3761H78.3355H76.9112V8.85V7.3239H75.9955H75.0798V11.2918Z" fill="#001229"/>
<path d="M82.9141 7.56807C82.8531 7.73086 82.8327 9.50113 82.8531 11.4952L82.9141 15.1579L83.7281 15.2189L84.5623 15.28L86.2309 12.9806L87.8994 10.6813V12.9806V15.2596H88.8151H89.7307V11.2918V7.3239H88.9168C88.1029 7.3239 88.0622 7.36459 86.5157 9.48079L84.9489 11.6377L84.8472 9.52148L84.7455 7.42564L83.8705 7.36459C83.3007 7.3239 82.9752 7.38494 82.9141 7.56807Z" fill="#001229"/>
<path d="M92.6199 7.75261C90.4223 8.8514 89.934 12.0867 91.6839 14.0401C92.5589 15.0169 93.4745 15.3424 95.0413 15.2203C96.3843 15.1186 97.0761 14.732 97.829 13.6332C98.3377 12.86 98.3173 12.7989 97.2999 12.4937C96.6081 12.3106 96.5064 12.3309 95.9977 12.86C95.5907 13.3076 95.2855 13.4297 94.6547 13.4297C93.4135 13.4297 92.7623 12.7786 92.6199 11.4356C92.5385 10.4792 92.5792 10.3368 93.149 9.76707C93.9629 8.95315 95.2041 8.91245 95.957 9.66533C96.5267 10.2351 96.7302 10.2758 97.6255 9.9502C98.3377 9.70602 98.3173 9.4008 97.4831 8.46479C96.3843 7.26426 94.2477 6.95904 92.6199 7.75261Z" fill="#001229"/>
<path d="M98.4802 8.23988V9.15555H99.5994H100.719V12.2077V15.2599H101.634H102.55V12.2281V9.17589L103.628 9.11485L104.686 9.05381L104.747 8.17884L104.808 7.32422H101.655H98.4802V8.23988Z" fill="#001229"/>
<path d="M105.398 11.2921V15.2599H108.145H110.892V14.3443V13.4286H109.061H107.23V12.8182V12.2077H108.858H110.485V11.2921V10.3764H108.858H107.23V9.76599V9.17589L109.02 9.11485L110.791 9.05381V8.23988V7.42596L108.105 7.36492L105.398 7.30388V11.2921Z" fill="#001229"/>
<path d="M111.91 11.2921V15.2599H112.826H113.741V14.0594V12.8792L114.921 12.7571C115.573 12.7164 116.407 12.513 116.773 12.3095C118.014 11.6787 118.381 9.6032 117.445 8.36197C116.895 7.6091 115.959 7.34457 113.802 7.34457L111.91 7.32422V11.2921ZM115.735 9.39972C115.878 9.54216 115.98 9.82703 115.98 10.0712C115.98 10.7223 115.573 10.9869 114.616 10.9869H113.741V10.0712V9.15555H114.616C115.105 9.15555 115.593 9.25729 115.735 9.39972Z" fill="#001229"/>
<path d="M120.517 7.71042C118.401 8.68712 117.791 11.8207 119.296 13.8962C120.619 15.6461 124.139 15.6868 125.502 13.9369C126.154 13.1026 126.072 12.716 125.197 12.4922C124.485 12.3091 124.383 12.3498 123.875 12.8585C123.468 13.3061 123.162 13.4282 122.491 13.4282C120.66 13.4282 119.744 11.251 120.985 9.78592C121.433 9.25687 121.657 9.15513 122.41 9.15513C123.122 9.15513 123.447 9.27722 123.854 9.68418C124.322 10.1725 124.485 10.2132 125.116 10.0504C125.523 9.9487 125.869 9.72487 125.909 9.54174C125.991 9.07374 124.973 7.93425 124.18 7.60868C123.244 7.20172 121.535 7.26276 120.517 7.71042Z" fill="#001229"/>
<path d="M126.357 8.23988V9.15555H127.476H128.595V12.2077V15.2599H129.511H130.427V12.2281V9.17589L131.505 9.11485L132.563 9.05381L132.624 8.17884L132.685 7.32422H129.531H126.357V8.23988Z" fill="#001229"/>
<path d="M133.275 11.2921V15.2599H135.168C137.426 15.2599 138.403 15.0158 138.973 14.3036C139.542 13.5711 139.542 12.0857 138.932 11.4549C138.525 11.0276 138.525 10.9665 138.83 10.6206C139.319 10.0712 139.278 8.72824 138.749 8.15849C138.098 7.46666 137.508 7.32422 135.29 7.32422H133.275V11.2921ZM137.223 9.42007C137.528 9.92877 136.897 10.3764 135.88 10.3764C135.127 10.3764 135.106 10.3561 135.106 9.6439V8.93172L136.042 8.99276C136.694 9.03346 137.06 9.17589 137.223 9.42007ZM137.365 12.2281C137.853 13.0013 137.243 13.6321 136.002 13.6321H135.106V12.6961V11.7397L136.144 11.8415C136.714 11.9025 137.263 12.0857 137.365 12.2281Z" fill="#001229"/>
<path d="M142.086 7.71084C141.557 7.95501 141.028 8.42302 140.662 8.97241C140.173 9.72529 140.092 10.0305 140.092 11.2921C140.092 12.5333 140.173 12.8792 140.641 13.5711C141.333 14.6292 142.615 15.2599 144.019 15.2599C145.382 15.2599 146.237 14.8937 147.051 13.978C148.821 11.9636 148.292 8.85032 145.993 7.73118C144.914 7.20214 143.225 7.20214 142.086 7.71084ZM145.525 9.76599C146.094 10.3357 146.135 10.4782 146.054 11.4345C145.911 12.7775 145.26 13.4286 144.039 13.4286C142.228 13.4286 141.333 11.231 142.554 9.78633C143.002 9.25729 143.225 9.15555 143.999 9.15555C144.731 9.15555 145.016 9.27763 145.525 9.76599Z" fill="#001229"/>
<path d="M88.3671 18.0472C87.7363 18.1692 86.6782 19.207 86.6782 19.675C86.6782 19.9599 86.9021 20.143 87.3904 20.2854C88.0008 20.4889 88.1433 20.4686 88.3061 20.143C88.7334 19.3494 90.1374 19.5529 90.1374 20.4279C90.1374 20.9366 89.8118 21.1604 88.9979 21.1604C88.5706 21.1604 88.5095 21.2621 88.5095 21.8726C88.5095 22.5034 88.5706 22.5848 89.0386 22.5848C89.7711 22.5848 90.3409 22.9307 90.3409 23.3783C90.3409 24.2533 88.8555 24.5992 88.3468 23.8463C88.1229 23.5004 88.0008 23.4597 87.3904 23.6632C85.5184 24.2329 87.7567 26.2677 89.8932 25.9422C91.8059 25.6573 92.8233 23.6836 91.7652 22.3202C91.4193 21.8929 91.399 21.7912 91.6635 21.5674C92.4571 20.9162 92.1315 19.1052 91.0937 18.4134C90.585 18.0878 89.0996 17.8844 88.3671 18.0472Z" fill="#001229"/>
<path d="M142.045 18.1493C140.336 18.6377 139.319 20.0824 139.319 21.9747C139.319 25.4746 143.388 27.2856 146.034 24.9659C146.949 24.1723 147.316 23.2973 147.316 21.9747C147.316 20.6521 146.949 19.7771 146.034 18.9836C144.915 18.0069 143.551 17.7016 142.045 18.1493ZM144.263 20.0417C145.016 20.4283 145.281 20.9166 145.281 21.9747C145.281 23.0328 145.016 23.5212 144.223 23.9281C143.429 24.3351 142.452 24.1723 141.801 23.4805C141.15 22.7886 141.109 21.2218 141.72 20.5504C142.473 19.7161 143.307 19.5533 144.263 20.0417Z" fill="#001229"/>
<path d="M170.227 18.2113C168.599 18.781 167.663 20.1647 167.663 21.9756C167.663 23.2983 168.03 24.1732 168.945 24.9668C170.736 26.5336 173.646 26.2487 174.785 24.3767C175.009 24.0104 175.192 23.6442 175.192 23.5831C175.192 23.5221 174.826 23.3593 174.358 23.2169C173.585 22.9727 173.503 22.993 173.056 23.4814C171.753 24.8854 169.596 23.9494 169.596 21.9756C169.596 20.0019 171.753 19.0659 173.056 20.4699C173.503 20.9582 173.585 20.9786 174.358 20.7344C175.07 20.5309 175.172 20.4088 175.07 20.0629C174.887 19.3914 173.686 18.374 172.811 18.1299C171.794 17.845 171.204 17.8653 170.227 18.2113Z" fill="#001229"/>
<path d="M186.119 18.2101C182.538 19.4717 182.782 24.8435 186.445 25.8609C187.544 26.1662 189.232 25.8406 190.148 25.1488C191.369 24.2128 191.918 22.4221 191.471 20.8146C190.84 18.5967 188.378 17.3962 186.119 18.2101ZM189.09 20.5501C189.721 21.2623 189.822 22.2593 189.334 23.1954C188.724 24.3959 186.669 24.4569 185.875 23.3174C185.529 22.8291 185.468 21.3233 185.773 20.7536C186.384 19.6141 188.134 19.492 189.09 20.5501Z" fill="#001229"/>
<path d="M57.377 18.9229V19.7368H58.3944H59.4118V22.789V25.8412H60.4292H61.4466V22.789V19.7368H62.5453C63.6441 19.7368 63.6645 19.7368 63.7255 19.0857C63.7866 18.4549 63.8476 18.516 64.9261 20.3473C66.676 23.2977 66.615 23.135 66.2283 23.7454C65.9638 24.132 65.7603 24.2338 65.3127 24.1727C64.865 24.1117 64.7022 24.1727 64.6208 24.4983C64.3563 25.4953 64.4784 25.8209 65.1702 25.943C65.9638 26.1058 66.6963 25.8412 67.2864 25.2105C67.6527 24.7832 71.4171 18.4142 71.4171 18.1904C71.4171 18.1497 70.9694 18.109 70.4404 18.109H69.4433L68.548 19.7368C68.0597 20.6322 67.612 21.3647 67.551 21.3647C67.4899 21.3647 67.0423 20.6322 66.5336 19.7368L65.6179 18.109H61.5076H57.377V18.9229Z" fill="#001229"/>
<path d="M72.0278 21.9545V25.841H72.9435H73.8592V24.6405V23.4399L75.2835 23.3585C76.5654 23.2975 76.7689 23.2161 77.3794 22.626C77.9695 22.0359 78.0305 21.8528 78.0305 20.754C78.0305 19.6552 77.9695 19.4721 77.359 18.882C76.7079 18.2105 76.6875 18.2105 74.3679 18.1495L72.0278 18.0681V21.9545ZM75.7108 19.9401C76.1585 20.1843 76.2399 21.1406 75.8533 21.5272C75.7108 21.6697 75.2225 21.7714 74.7341 21.7714H73.8592V20.754V19.7366H74.5917C74.9783 19.7366 75.487 19.8383 75.7108 19.9401Z" fill="#001229"/>
<path d="M78.946 21.9749V25.841H79.821C80.6756 25.841 80.6756 25.8207 82.2628 23.6638L83.8296 21.4865V23.6638V25.841H84.847H85.8644V21.9749V18.1088H84.9691H84.0534L82.4663 20.286L80.8791 22.4429L80.8181 20.286L80.757 18.1088H79.8617H78.946V21.9749Z" fill="#001229"/>
<path d="M93.5967 21.9749V25.841H94.5123H95.4077L95.4687 23.8469L95.5297 21.8731L96.2826 23.8062L97.0151 25.7393H97.8901H98.7447L99.4773 23.8062L100.21 21.8731L100.271 23.8469L100.332 25.841H101.227H102.143V21.9749V18.0884L100.983 18.1495L99.8232 18.2105L98.9075 20.4895C98.4192 21.7511 97.9512 22.7888 97.8698 22.7888C97.7884 22.7888 97.3204 21.7511 96.832 20.4895L95.9164 18.2105L94.7565 18.1495L93.5967 18.0884V21.9749Z" fill="#001229"/>
<path d="M105.602 18.5564C105.5 18.8209 104.849 20.4488 104.157 22.1784C103.465 23.9079 102.875 25.4544 102.814 25.5765C102.733 25.78 102.997 25.841 103.75 25.841C104.768 25.841 104.768 25.841 105.012 25.0271L105.256 24.2132H106.823H108.39L108.654 25.0271C108.919 25.8207 108.939 25.841 109.916 25.841C110.445 25.841 110.892 25.78 110.872 25.6782C110.872 25.5968 110.201 23.8876 109.407 21.8731L107.922 18.2105L106.863 18.1495C105.927 18.0884 105.785 18.1495 105.602 18.5564ZM107.637 22.4225C107.637 22.5243 107.27 22.5853 106.802 22.5853C105.887 22.5853 105.887 22.565 106.558 20.9575L106.863 20.2453L107.25 21.2627C107.454 21.8121 107.637 22.3411 107.637 22.4225Z" fill="#001229"/>
<path d="M114.148 21.9749V25.841H115.043H115.939L117.546 23.6434L119.133 21.4662L119.194 23.6434L119.255 25.841H120.151H121.066V21.9749V18.1088H120.191H119.316L117.811 20.1843L116.284 22.2801L116.223 20.1843L116.162 18.1088H115.165H114.148V21.9749Z" fill="#001229"/>
<path d="M124.933 21.9749V25.841H125.848H126.764V22.7888V19.7366H128.188H129.613V22.7888V25.841H130.63H131.647V21.9749V18.1088H128.29H124.933V21.9749Z" fill="#001229"/>
<path d="M132.665 21.9545V25.841H133.682H134.7V24.6201V23.3992H135.737C136.307 23.3992 137.08 23.2568 137.447 23.0737C138.912 22.3818 139.197 20.0825 137.976 18.8413C137.345 18.2105 137.304 18.2105 135.005 18.1495L132.665 18.0681V21.9545ZM136.653 20.2453C136.958 20.7133 136.958 20.7947 136.653 21.2627C136.388 21.6697 136.144 21.7714 135.514 21.7714H134.7V20.754V19.7366H135.514C136.144 19.7366 136.388 19.8383 136.653 20.2453Z" fill="#001229"/>
<path d="M148.129 21.9749V25.841H149.147H150.144L150.205 23.9486L150.266 22.0766L150.978 23.9486L151.67 25.841H152.504H153.338L154.03 23.9486L154.742 22.0766L154.803 23.9486L154.864 25.841H155.861H156.879V21.9749V18.1088H155.678H154.478L153.521 20.4895C152.992 21.8121 152.545 22.9109 152.524 22.9312C152.504 22.9719 152.036 21.8935 151.507 20.5505L150.53 18.1088H149.33H148.129V21.9749Z" fill="#001229"/>
<path d="M157.896 21.996V25.8825L160.257 25.8011L162.617 25.7401L163.309 24.9872C163.858 24.3768 164.001 24.0512 164.001 23.4C164.001 21.6501 163.004 20.7548 161.05 20.7548H159.931V19.4322V18.1096H158.914H157.896V21.996ZM161.844 22.7082C162.556 23.4 161.966 24.214 160.725 24.214H159.931V23.2983V22.3826H160.725C161.193 22.3826 161.661 22.5251 161.844 22.7082Z" fill="#001229"/>
<path d="M164.815 21.9749V25.841H165.832H166.85V21.9749V18.1088H165.832H164.815V21.9749Z" fill="#001229"/>
<path d="M177.146 18.455C177.105 18.6585 176.983 19.7776 176.901 20.9578C176.759 23.3996 176.576 24.01 176.006 24.1524C175.681 24.2338 175.599 24.4373 175.599 25.1495C175.599 26.1669 175.864 26.2686 177.146 25.7396C178.122 25.3326 178.57 24.2338 178.753 21.7107L178.895 19.7369H179.893H180.89V22.7891V25.8413H181.805H182.721V21.9752V18.1091H179.994C177.553 18.1091 177.247 18.1498 177.146 18.455Z" fill="#001229"/>
<path d="M192.488 21.9749V25.841H194.685C197.371 25.841 198.145 25.5358 198.552 24.3353C198.836 23.4603 198.613 22.4225 198.063 21.9545C197.799 21.7511 197.799 21.6697 198.104 21.3441C198.531 20.8761 198.531 19.6756 198.083 19.0041C197.615 18.2715 196.985 18.1088 194.604 18.1088H192.488V21.9749ZM196.456 20.347C196.456 20.815 196.374 20.8557 195.398 20.9168L194.319 20.9778V20.347V19.7163L195.398 19.7773C196.374 19.8383 196.456 19.879 196.456 20.347ZM196.639 23.033C197.025 23.6638 196.557 24.1114 195.357 24.1725L194.319 24.2335V23.3992V22.565L195.357 22.626C196.089 22.6667 196.476 22.7888 196.639 23.033Z" fill="#001229"/>
<path d="M137.752 29.8694C137.752 29.9508 137.894 30.2357 138.078 30.4799C138.525 31.1107 139.482 31.0903 139.909 30.4188C140.336 29.7677 140.092 29.4625 139.665 30.0729C139.278 30.6426 138.566 30.663 138.423 30.1136C138.322 29.727 137.752 29.5235 137.752 29.8694Z" fill="#001229"/>
<path d="M57.377 34.9979C57.377 37.0327 57.4583 38.2536 57.5804 38.2536C57.7025 38.2536 57.7839 37.6025 57.7839 36.7275V35.2014H59.6152H61.4262L61.4873 36.6665C61.5279 37.5211 61.6297 38.1315 61.7518 38.1112C61.8739 38.0705 61.9756 36.7885 62.0163 34.8962C62.057 32.1899 62.0163 31.7422 61.7518 31.7422C61.5076 31.7422 61.4466 32.0271 61.4466 33.2683V34.7944H59.6152H57.7839V33.2683C57.7839 32.3934 57.7025 31.7422 57.5804 31.7422C57.4583 31.7422 57.377 32.9631 57.377 34.9979Z" fill="#001229"/>
<path d="M63.8884 35.0184C63.8884 37.5415 63.9495 38.2741 64.153 38.213C64.275 38.1723 65.2721 36.9108 66.3302 35.4457L68.2633 32.7598L68.3243 35.5271C68.365 37.5822 68.4464 38.2537 68.6295 38.1927C68.8126 38.1316 68.8737 37.277 68.8737 34.9777C68.8737 32.3528 68.833 31.8441 68.5685 31.8034C68.3853 31.7627 67.5918 32.6987 66.5337 34.2045C65.5773 35.5474 64.682 36.748 64.5599 36.8701C64.3564 37.0328 64.2954 36.5241 64.2954 34.4079C64.2954 32.7598 64.214 31.7424 64.0919 31.7424C63.9698 31.7424 63.8884 32.9632 63.8884 35.0184Z" fill="#001229"/>
<path d="M70.1964 31.8842C70.1964 31.9453 70.7051 32.6778 71.3155 33.5121L72.455 35.0178L71.2138 36.5032C70.5423 37.3171 69.9929 38.0497 69.9929 38.1107C69.9929 38.5787 70.6644 38.07 71.6818 36.8288C72.5364 35.7707 72.9637 35.4044 73.3503 35.4044C73.8183 35.4044 73.8387 35.4655 73.8997 36.7677C73.9404 37.6223 74.0625 38.1514 74.2253 38.2124C74.4084 38.2735 74.4695 37.9072 74.4695 36.8288V35.3841L75.0392 35.4451C75.4462 35.4858 75.9142 35.8724 76.7281 36.8084C77.7659 38.0497 78.3356 38.4973 78.3356 38.1107C78.3356 38.009 77.8269 37.3171 77.2165 36.5643C76.606 35.8317 76.0973 35.1195 76.0973 34.9975C76.0973 34.8957 76.606 34.1428 77.2165 33.3493C77.8269 32.5557 78.3356 31.8639 78.3356 31.8232C78.3356 31.7825 78.1932 31.7418 78.0304 31.7418C77.8676 31.7418 77.2165 32.4336 76.5857 33.2679C75.7311 34.4074 75.3241 34.794 74.9578 34.794C74.4898 34.794 74.4695 34.7329 74.4695 33.2475C74.4695 32.108 74.4084 31.7214 74.2253 31.7825C74.0422 31.8435 73.9404 32.3929 73.8997 33.3289C73.8387 34.6922 73.8183 34.794 73.391 34.794C73.0451 34.794 72.6178 34.387 71.8039 33.2679C70.8679 31.9656 70.1964 31.3959 70.1964 31.8842Z" fill="#001229"/>
<path d="M79.5566 34.9979V38.2536H81.5914C83.26 38.2536 83.6262 38.1926 83.6262 37.9484C83.6262 37.7042 83.3007 37.6432 81.8967 37.6432H80.1671V36.4223V35.2014H81.8967C82.9141 35.2014 83.6262 35.12 83.6262 34.9979C83.6262 34.8758 82.9141 34.7944 81.8967 34.7944H80.1671V33.5736V32.3527H81.8967C83.3007 32.3527 83.6262 32.2916 83.6262 32.0475C83.6262 31.8033 83.26 31.7422 81.5914 31.7422H79.5566V34.9979Z" fill="#001229"/>
<path d="M85.2539 35.0184C85.2539 37.5415 85.315 38.2741 85.5184 38.213C85.7016 38.152 85.783 37.3177 85.8237 35.2422L85.8847 32.3528H87.3904C88.6113 32.3528 88.9165 32.2918 88.9165 32.0476C88.9165 31.8034 88.5706 31.7424 87.0852 31.7424H85.2539V35.0184Z" fill="#001229"/>
<path d="M90.748 32.109C90.3207 32.3328 89.8527 32.8415 89.5678 33.3909C88.0824 36.2397 90.9718 39.3326 93.7799 37.8879C95.7536 36.8908 96.1199 34.1031 94.492 32.5363C93.9019 31.9666 93.6374 31.8648 92.6404 31.8038C91.7654 31.7428 91.277 31.8241 90.748 32.109ZM93.8002 32.7195C95.1839 33.7165 95.3263 35.7513 94.1054 36.9722C93.5357 37.5419 93.2915 37.6437 92.4776 37.6437C91.2974 37.6437 90.4428 37.1757 90.0155 36.26C89.6085 35.3851 89.7306 33.9403 90.28 33.1875C91.0532 32.1701 92.7014 31.9462 93.8002 32.7195Z" fill="#001229"/>
<path d="M96.9337 32.0061C96.893 32.1486 96.8726 33.5933 96.893 35.2008C96.9337 37.317 97.0151 38.1512 97.2186 38.2123C97.4017 38.2733 97.4627 37.9478 97.4627 37.0524V35.8112H98.6836C99.3754 35.8112 100.189 35.6688 100.515 35.506C101.756 34.8752 101.756 32.6776 100.515 32.0468C99.7621 31.6602 97.0965 31.6195 96.9337 32.0061ZM100.515 32.759C100.739 32.9828 100.922 33.4305 100.922 33.7764C100.922 34.7938 100.311 35.2008 98.7854 35.2008H97.4627V33.7764V32.3521H98.7854C99.8435 32.3521 100.189 32.4334 100.515 32.759Z" fill="#001229"/>
<path d="M104.035 32.0676C103.018 32.5763 102.448 33.6547 102.448 35.0384C102.448 36.3407 102.835 37.0121 103.974 37.7854C105.114 38.5789 106.965 38.3144 107.983 37.2156C108.654 36.4831 108.959 35.0791 108.674 34.0617C108.43 33.1664 107.637 32.21 106.864 31.9251C106.131 31.6403 104.747 31.7217 104.035 32.0676ZM107.148 32.678C107.698 33.0443 108.247 34.1431 108.247 34.8756C108.247 35.6895 107.759 36.7069 107.128 37.1953C106.294 37.8464 104.808 37.8057 103.994 37.1139C103.262 36.5034 102.855 35.3233 103.038 34.3059C103.201 33.5123 104.137 32.4338 104.849 32.2914C105.521 32.149 106.619 32.3321 107.148 32.678Z" fill="#001229"/>
<path d="M110.811 32.2914C110.75 32.617 110.648 33.7972 110.567 34.9366C110.445 37.0935 110.262 37.5208 109.366 37.6836C109.041 37.7447 108.959 37.9075 108.959 38.64C108.959 39.1894 109.061 39.576 109.224 39.6167C109.387 39.6777 109.468 39.4742 109.468 38.9859V38.2534H112.195H114.942L115.003 38.9045C115.105 40.0236 115.573 39.8405 115.573 38.6807C115.573 37.7854 115.512 37.6429 115.166 37.6429C114.779 37.6429 114.759 37.5005 114.759 34.6925V31.742H112.846H110.933L110.811 32.2914ZM114.148 34.9977V37.6429H112.439H110.73L110.893 36.9714C110.994 36.6255 111.116 35.425 111.198 34.3262L111.34 32.3524H112.744H114.148V34.9977Z" fill="#001229"/>
<path d="M117.872 32.0684C116.142 32.9434 115.715 35.7107 117.078 37.1961C118.36 38.6205 120.7 38.5798 121.86 37.1147C122.532 36.2398 122.043 36.0973 121.229 36.9112C120.578 37.5624 120.375 37.6438 119.479 37.6438C118.665 37.6438 118.32 37.5217 117.831 37.1147C116.61 36.0973 116.509 34.1032 117.607 33.0044C118.706 31.8853 120.456 32.0277 121.453 33.2893C121.758 33.6759 121.962 33.7777 122.104 33.6352C122.267 33.4724 122.125 33.1876 121.616 32.6382C120.985 31.9463 120.802 31.8649 119.724 31.8039C118.889 31.7429 118.32 31.8242 117.872 32.0684Z" fill="#001229"/>
<path d="M123.712 34.9979C123.712 37.0327 123.793 38.2536 123.915 38.2536C124.037 38.2536 124.119 37.6432 124.119 36.8292V35.4049H124.709C125.197 35.4049 125.502 35.6694 126.438 36.8292C127.069 37.6025 127.72 38.2536 127.883 38.2536C128.31 38.2536 128.29 38.1926 127.232 36.8903C126.682 36.2391 126.133 35.5473 125.97 35.3438C125.726 35.0386 125.828 34.8351 126.845 33.4718C127.476 32.6376 127.985 31.905 127.985 31.844C127.985 31.7829 127.863 31.7422 127.7 31.7422C127.557 31.7422 126.906 32.4341 126.276 33.2683C125.38 34.4485 125.014 34.7944 124.627 34.7944C124.139 34.7944 124.119 34.7537 124.119 33.2683C124.119 32.3934 124.037 31.7422 123.915 31.7422C123.793 31.7422 123.712 32.9631 123.712 34.9979Z" fill="#001229"/>
<path d="M130.528 31.9461C129.307 32.4548 128.473 34.2658 128.799 35.7512C129.613 39.3121 134.72 38.9255 135.045 35.2628C135.168 33.9809 134.496 32.638 133.479 32.1089C132.746 31.7223 131.24 31.6409 130.528 31.9461ZM133.336 32.5973C133.926 32.9025 134.496 34.0216 134.496 34.8559C134.496 36.6058 133.479 37.6436 131.769 37.6436C128.921 37.6436 128.351 33.4722 131.037 32.3734C131.566 32.1496 132.705 32.2513 133.336 32.5973Z" fill="#001229"/>
<path d="M136.531 35.0184C136.531 37.5415 136.592 38.2741 136.796 38.213C136.918 38.152 137.915 36.9311 138.973 35.466L140.906 32.8005L140.967 35.5474C141.008 37.5822 141.089 38.2537 141.272 38.1927C141.455 38.1316 141.516 37.277 141.516 34.9777C141.516 32.3324 141.476 31.8441 141.211 31.8441C141.048 31.8441 140.031 33.065 138.973 34.5504L137.04 37.2363L136.979 34.4893C136.897 30.5215 136.531 30.9691 136.531 35.0184Z" fill="#001229"/>
<path d="M59.1474 41.8145C57.5806 42.3639 56.8277 43.6052 57.0312 45.3144C57.2754 47.6137 59.595 48.8549 61.6298 47.7765C62.7286 47.2068 63.278 46.2504 63.278 44.9074C63.278 43.2999 62.4234 42.1401 60.938 41.7331C59.9613 41.4686 60.1037 41.4686 59.1474 41.8145ZM61.9961 43.0151C62.5658 43.6458 62.6676 43.89 62.6676 44.765C62.6676 46.5963 61.7316 47.6137 60.0834 47.6137C58.5776 47.5934 57.5806 46.5353 57.5806 44.9685C57.5806 43.8086 57.9061 43.1778 58.8015 42.5674C59.8596 41.8552 61.1008 42.0384 61.9961 43.0151Z" fill="#001229"/>
<path d="M85.1928 41.7942C83.626 42.364 82.8731 43.6052 83.0766 45.3144C83.2394 46.9016 84.3992 48.0207 86.0067 48.1631C87.1462 48.2649 88.2246 47.7765 88.713 46.9423C89.1199 46.2097 88.7944 45.9859 88.245 46.637C87.6549 47.3492 87.0648 47.6137 86.1695 47.6137C83.5446 47.6137 82.6289 43.9104 84.9079 42.5267C86.0677 41.8146 87.4311 42.1198 88.2653 43.2796C88.6316 43.7883 88.6926 43.8087 88.8351 43.4831C88.9165 43.2389 88.8147 42.954 88.4892 42.5878C87.6549 41.7128 86.3323 41.3872 85.1928 41.7942Z" fill="#001229"/>
<path d="M64.7432 44.9075L64.8042 48.1224L65.6181 48.1835C66.9611 48.3056 68.182 48.0207 68.6907 47.512C69.3825 46.8202 69.3825 45.3551 68.6703 44.6633C68.243 44.2156 67.9989 44.1546 66.7373 44.1546H65.3129V43.2389V42.3436L66.9815 42.2826C68.0802 42.2419 68.6703 42.1401 68.7314 41.957C68.7924 41.7739 68.3041 41.7128 66.7576 41.7128H64.6821L64.7432 44.9075ZM68.3041 45.0295C68.5076 45.2127 68.65 45.6807 68.65 46.108C68.65 47.1864 68.0396 47.6137 66.5134 47.6137H65.3129V46.0673V44.5208L66.6355 44.6022C67.5105 44.6633 68.0802 44.8057 68.3041 45.0295Z" fill="#001229"/>
<path d="M71.5597 41.8545C71.4987 41.9562 71.3969 43.0754 71.3155 44.3573C71.1528 46.9211 71.0307 47.3281 70.2778 47.613C69.9929 47.7351 69.8301 47.8978 69.8912 48.0199C70.0947 48.3658 70.6034 48.2438 71.1121 47.7351C71.6004 47.2467 71.7021 46.7787 71.9463 43.8893L72.0684 42.3225H73.4724H74.8561L74.9171 45.2119C74.9578 47.2874 75.0392 48.1217 75.2427 48.1827C75.4258 48.2438 75.4869 47.5112 75.4869 44.9881V41.712H73.5742C72.5161 41.712 71.6004 41.7731 71.5597 41.8545Z" fill="#001229"/>
<path d="M77.8676 44.8871C77.1147 46.637 76.545 48.1224 76.606 48.1834C76.7892 48.3666 77.2979 47.7765 77.5217 47.0846L77.7659 46.3928H79.4751H81.2047L81.6117 47.3085C81.9983 48.2038 82.4052 48.509 82.4052 47.9393C82.4052 47.3695 79.821 41.8145 79.5362 41.7535C79.3123 41.7128 78.8443 42.5877 77.8676 44.8871ZM80.3501 44.3377C80.696 45.1516 80.9809 45.8638 80.9809 45.9045C80.9809 45.9452 80.3501 45.9858 79.5565 45.9858C78.7833 45.9858 78.1321 45.9248 78.1321 45.8434C78.1321 45.4568 79.4751 42.5674 79.5769 42.6895C79.6582 42.7709 80.0042 43.5034 80.3501 44.3377Z" fill="#001229"/>
<path d="M89.7302 42.0183C89.7302 42.2422 89.9744 42.3236 90.7476 42.3236H91.7447L91.8057 45.213C91.8464 46.9833 91.9482 48.1227 92.0702 48.1227C92.1923 48.1227 92.2941 46.9833 92.3348 45.213L92.3958 42.3236H93.3929C94.1661 42.3236 94.4103 42.2422 94.4103 42.0183C94.4103 41.7742 94.0237 41.7131 92.0702 41.7131C90.1168 41.7131 89.7302 41.7742 89.7302 42.0183Z" fill="#001229"/>
<path d="M95.4686 44.9077C95.5093 46.9425 95.611 48.1227 95.7535 48.1634C95.8755 48.2041 96.8319 47.0239 97.89 45.5385L99.8027 42.8322L99.9044 45.4571C99.9858 47.3088 100.088 48.1227 100.271 48.1837C100.454 48.2448 100.515 47.5122 100.515 44.9891C100.515 42.3235 100.454 41.7131 100.23 41.7131C100.067 41.7131 99.0905 42.9136 98.0324 44.3786L96.1401 47.0239L96.079 44.3786C96.0383 42.1811 95.9773 41.7131 95.7128 41.7131C95.4686 41.7131 95.4279 42.1811 95.4686 44.9077Z" fill="#001229"/>
</svg>
