<svg width="141" height="116" viewBox="0 0 141 116" fill="none" xmlns="http://www.w3.org/2000/svg">
<path d="M92.8632 12.8705H90.6724V18.9108H89.4621V12.8705H87.291V11.8872H92.8632V12.8705Z" fill="#001229"/>
<path d="M96.3136 15.5583L97.7214 11.8872H99.0774L96.6322 17.7151L96.4099 18.1548C96.0888 18.728 95.5677 19.0145 94.8464 19.0145L94.345 18.9849L94.3549 18.0189C94.4315 18.0313 94.5698 18.0387 94.7649 18.0387C95.1132 18.0387 95.3577 17.8905 95.4985 17.594L95.7504 17.0011L93.3472 11.8872H94.6785L96.3136 15.5583Z" fill="#001229"/>
<path d="M101.229 16.3069V18.9132H100.009V11.8872H102.696C103.482 11.8872 104.104 12.0923 104.566 12.4999C105.028 12.91 105.257 13.451 105.257 14.123C105.257 14.795 105.033 15.3483 104.581 15.7313C104.129 16.1142 103.496 16.3069 102.681 16.3069H101.229ZM101.229 15.3212H102.696C103.131 15.3212 103.462 15.2199 103.689 15.0148C103.916 14.8098 104.032 14.5158 104.032 14.1304C104.032 13.745 103.916 13.4485 103.684 13.2213C103.452 12.994 103.133 12.8779 102.728 12.8705H101.229V15.3212Z" fill="#001229"/>
<path d="M110.627 11.8872H111.847V18.9132H110.627V13.9105L107.545 18.9132H106.324V11.8872H107.545V16.8949L110.627 11.8872Z" fill="#001229"/>
<path d="M116.822 13.8005C116.822 13.4843 116.703 13.2348 116.466 13.047C116.229 12.8617 115.905 12.7678 115.495 12.7678C115.144 12.7678 114.853 12.8592 114.618 13.0445C114.384 13.2298 114.265 13.4694 114.265 13.761H113.05C113.05 13.378 113.156 13.0371 113.369 12.7382C113.581 12.4393 113.875 12.207 114.25 12.0415C114.626 11.876 115.041 11.792 115.495 11.792C116.3 11.792 116.923 11.9674 117.37 12.3182C117.814 12.669 118.039 13.1606 118.039 13.7906C118.039 14.1093 117.943 14.4008 117.75 14.6676C117.558 14.9344 117.288 15.1444 116.94 15.3001C117.333 15.4359 117.632 15.641 117.839 15.9152C118.047 16.1894 118.15 16.5328 118.15 16.9405C118.15 17.5704 117.908 18.0719 117.427 18.4425C116.945 18.8131 116.3 19.0008 115.498 19.0008C115.001 19.0008 114.554 18.9119 114.154 18.7365C113.754 18.5586 113.453 18.319 113.253 18.0127C113.052 17.7063 112.951 17.3555 112.951 16.9602H114.166C114.166 17.2616 114.292 17.5186 114.542 17.7261C114.794 17.9336 115.112 18.0374 115.498 18.0374C115.927 18.0374 116.276 17.9361 116.538 17.7335C116.799 17.5309 116.93 17.2666 116.93 16.9429C116.93 16.5477 116.814 16.2611 116.584 16.0807C116.355 15.9029 116.016 15.8139 115.574 15.8139H114.749V14.848H115.53C116.392 14.848 116.822 14.4996 116.822 13.8005Z" fill="#001229"/>
<path d="M120.862 11.8872L122.888 17.2728L124.908 11.8872H126.486V18.9132H125.271V16.5984L125.392 13.5004L123.317 18.9132H122.445L120.376 13.5054L120.497 16.5984V18.9132H119.281V11.8872H120.865H120.862Z" fill="#001229"/>
<path d="M118.141 53.5679H118.951C119.233 53.5679 119.443 53.4889 119.583 53.3332C119.724 53.1776 119.793 52.9133 119.793 52.5377V50.8998C119.793 50.5243 119.724 50.26 119.583 50.1043C119.443 49.9487 119.233 49.8696 118.951 49.8696H118.141V53.5655V53.5679Z" fill="#001229"/>
<path d="M88.9806 58.8194H88.1704V62.5152H88.9806C89.2621 62.5152 89.4721 62.4361 89.6128 62.2805C89.7536 62.1249 89.8228 61.8605 89.8228 61.485V59.8471C89.8228 59.474 89.7536 59.2072 89.6128 59.0516C89.4721 58.896 89.2621 58.8169 88.9806 58.8169V58.8194Z" fill="#001229"/>
<path d="M50.262 38.6133H51.9143L51.0869 33.0918L50.262 38.6133Z" fill="#001229"/>
<path d="M98.6008 40.5157H99.411C99.6925 40.5157 99.9025 40.4366 100.043 40.281C100.184 40.1253 100.253 39.861 100.253 39.4855V37.8476C100.253 37.4721 100.184 37.2077 100.043 37.0521C99.9025 36.8964 99.6925 36.8174 99.411 36.8174H98.6008V40.5132V40.5157Z" fill="#001229"/>
<path d="M111.934 40.5157H112.744C113.026 40.5157 113.236 40.4366 113.376 40.281C113.517 40.1253 113.586 39.861 113.586 39.4855V37.8476C113.586 37.4721 113.517 37.2077 113.376 37.0521C113.236 36.8964 113.026 36.8174 112.744 36.8174H111.934V40.5132V40.5157Z" fill="#001229"/>
<path d="M95.0784 58.6943C94.4856 58.6943 94.1892 59.0526 94.1892 59.7715V65.6685C94.1892 66.3849 94.4856 66.7456 95.0784 66.7456C95.6712 66.7456 95.9676 66.3874 95.9676 65.6685V59.7715C95.9676 59.055 95.6712 58.6943 95.0784 58.6943Z" fill="#001229"/>
<path d="M84.5989 38.6133H86.2513L85.4238 33.0918L84.5989 38.6133Z" fill="#001229"/>
<path d="M72.0293 32.5933C71.4365 32.5933 71.1401 32.9515 71.1401 33.6704V39.5674C71.1401 40.2839 71.4365 40.6445 72.0293 40.6445C72.6221 40.6445 72.9185 40.2863 72.9185 39.5674V33.6704C72.9185 32.9539 72.6221 32.5933 72.0293 32.5933Z" fill="#001229"/>
<path d="M138.935 0H42.6471C42.1976 0 41.795 0.274227 41.632 0.691738L0.104932 114.25C-0.305078 115.134 0.556922 116.075 1.4708 115.742L125.783 70.4877C126.215 70.3295 126.504 69.917 126.504 69.4575V44.6835L139.422 37.3437C139.792 37.1584 140.027 36.7805 140.027 36.363V1.09443C140.027 0.48916 139.538 0 138.933 0H138.935ZM47.0955 42.0747H45.3492V37.3956H43.4005V42.0747H41.6863V31.1577H43.4005V35.8367H45.3492V31.1577H47.0955V42.0747ZM52.4454 42.0747L52.149 40.0934H50.0446L49.7482 42.0747H48.1724L49.9186 31.1577H52.4281L54.1743 42.0747H52.4429H52.4454ZM61.4112 43.5422H59.7416V42.0772H55.2512V31.1601H56.9653V40.5183H58.9141V31.1601H60.6604V40.5504H61.4088V43.5446L61.4112 43.5422ZM68.0702 42.0747H66.5265V34.3841L65.825 37.067L64.39 42.0747H62.6289V31.1577H64.1578V38.0676L64.7827 35.6663L66.1856 31.1577H68.0727V42.0747H68.0702ZM74.6353 39.456C74.6353 40.3305 74.4105 41.005 73.9635 41.4843C73.5164 41.9635 72.8717 42.2007 72.0295 42.2007C71.1872 42.2007 70.5426 41.9611 70.0955 41.4843C69.6485 41.005 69.4262 40.3305 69.4262 39.456V33.7788C69.4262 32.9043 69.6485 32.2298 70.0955 31.7506C70.5426 31.2713 71.1872 31.0341 72.0295 31.0341C72.8717 31.0341 73.5164 31.2738 73.9635 31.7506C74.4105 32.2298 74.6353 32.9043 74.6353 33.7788V39.456ZM77.7375 42.0747H76.0209V31.1577H77.7375V35.8367H79.6863V31.1577H81.4325V42.0747H79.6863V37.3956H77.7375V42.0747ZM83.1887 55.1262H81.4424V45.7681H79.4937V55.1262H77.777V44.2092H83.1887V55.1262ZM84.0853 42.0747H82.5094L84.2557 31.1577H86.7651L88.5114 42.0747H86.78L86.4836 40.0934H84.3792L84.0828 42.0747H84.0853ZM86.1205 55.1262H84.4039V44.2092H86.9306C87.7828 44.2092 88.4225 44.4389 88.8498 44.896C89.2771 45.353 89.4895 46.025 89.4895 46.907V48.3275C89.4895 49.2119 89.2771 49.8814 88.8498 50.3384C88.4225 50.7955 87.7828 51.0252 86.9306 51.0252H86.1205V55.1262ZM95.6149 42.0747H93.8687V32.7165H92.3719L92.1842 39.3152C92.1521 40.3132 91.9446 41.0247 91.5593 41.4521C91.174 41.8795 90.5516 42.092 89.6871 42.092H89.4228V40.5331C89.7044 40.5331 89.9143 40.5109 90.0551 40.4639C90.1959 40.417 90.2996 40.3133 90.3663 40.1527C90.433 39.9921 90.4725 39.745 90.4824 39.4115L90.764 31.1601H95.6149V42.0772V42.0747ZM95.9113 46.8279V52.5051C95.9113 53.3796 95.6866 54.054 95.2395 54.5333C94.7924 55.0126 94.1478 55.2498 93.3055 55.2498C92.4633 55.2498 91.8186 55.0101 91.3716 54.5333C90.9245 54.054 90.7022 53.3796 90.7022 52.5051V46.8279C90.7022 45.9534 90.9245 45.2789 91.3716 44.7996C91.8186 44.3204 92.4633 44.0832 93.3055 44.0832C94.1478 44.0832 94.7924 44.3228 95.2395 44.7996C95.6866 45.2789 95.9113 45.9534 95.9113 46.8279ZM91.5395 61.3765C91.5395 62.261 91.3271 62.9305 90.8998 63.3875C90.4725 63.8445 89.8328 64.0743 88.9807 64.0743H88.1705V68.1753H86.4539V57.2583H88.9807C89.8328 57.2583 90.4725 57.488 90.8998 57.945C91.3271 58.4021 91.5395 59.074 91.5395 59.956V61.3765ZM97.6823 65.5566C97.6823 66.4311 97.4575 67.1056 97.0105 67.5848C96.5634 68.0641 95.9187 68.3013 95.0765 68.3013C94.2342 68.3013 93.5896 68.0616 93.1425 67.5848C92.6955 67.1056 92.4732 66.4311 92.4732 65.5566V59.8794C92.4732 59.0049 92.6955 58.3304 93.1425 57.8512C93.5896 57.3719 94.2342 57.1347 95.0765 57.1347C95.9187 57.1347 96.5634 57.3744 97.0105 57.8512C97.4575 58.3304 97.6823 59.0049 97.6823 59.8794V65.5566ZM99.4137 35.2586C100.266 35.2586 100.906 35.4884 101.333 35.9454C101.76 36.4025 101.973 37.0745 101.973 37.9564V39.3769C101.973 40.2614 101.76 40.9309 101.333 41.3879C100.906 41.8449 100.266 42.0747 99.4137 42.0747H96.887V31.1577H98.6036V35.2586H99.4137ZM101.195 48.8092V50.3681H98.8407V53.5649H101.805V55.1238H97.1265V44.2067H101.805V45.7656H98.8407V48.8068H101.195V48.8092ZM104.045 60.9393H102.422V59.7682C102.422 59.0518 102.126 58.6911 101.533 58.6911C100.94 58.6911 100.644 59.0493 100.644 59.7682V65.6653C100.644 66.3718 100.94 66.7251 101.533 66.7251C102.126 66.7251 102.422 66.3718 102.422 65.6653V64.1064H104.045V65.5566C104.045 66.441 103.827 67.1179 103.39 67.5923C102.953 68.0666 102.318 68.3013 101.488 68.3013C100.659 68.3013 100.024 68.0641 99.5866 67.5923C99.1494 67.1179 98.932 66.441 98.932 65.5566V59.8794C98.932 58.995 99.1494 58.3181 99.5866 57.8438C100.024 57.3694 100.656 57.1347 101.488 57.1347C102.321 57.1347 102.953 57.3719 103.39 57.8438C103.827 58.3181 104.045 58.995 104.045 59.8794V60.9393ZM104.734 55.1262H103.017V44.2092H104.734V48.9673L106.979 44.2092H108.693L106.307 49.076L108.693 55.1287H106.932L105.262 50.7782L104.731 51.7763V55.1287L104.734 55.1262ZM106.945 35.8367V31.1577H108.691V42.0747H106.945V37.3956H104.996V42.0747H103.279V31.1577H104.996V35.8367H106.945ZM110.346 60.9393H108.723V59.7682C108.723 59.0518 108.426 58.6911 107.834 58.6911C107.241 58.6911 106.945 59.0493 106.945 59.7682V65.6653C106.945 66.3718 107.241 66.7251 107.834 66.7251C108.426 66.7251 108.723 66.3718 108.723 65.6653V64.1064H110.346V65.5566C110.346 66.441 110.128 67.1179 109.691 67.5923C109.254 68.0666 108.619 68.3013 107.789 68.3013C106.959 68.3013 106.325 68.0641 105.887 67.5923C105.45 67.1179 105.233 66.441 105.233 65.5566V59.8794C105.233 58.995 105.45 58.3181 105.887 57.8438C106.325 57.3694 106.957 57.1347 107.789 57.1347C108.622 57.1347 109.254 57.3719 109.691 57.8438C110.128 58.3181 110.346 58.995 110.346 59.8794V60.9393ZM112.746 35.2586C113.599 35.2586 114.238 35.4884 114.666 35.9454C115.093 36.4025 115.305 37.0745 115.305 37.9564V39.3769C115.305 40.2614 115.093 40.9309 114.666 41.3879C114.238 41.8449 113.601 42.0747 112.746 42.0747H110.22V31.1577H111.936V35.2586H112.746ZM115.211 44.2092V45.7681H113.418V55.1262H111.704V45.7681H109.911V44.2092H115.214H115.211ZM117.113 68.1778H115.57V60.4872L114.868 63.1701L113.433 68.1778H111.672V57.2607H113.201V64.1706L113.826 61.7693L115.229 57.2607H117.116V68.1778H117.113ZM118.951 48.3102C119.803 48.3102 120.443 48.5399 120.87 48.997C121.297 49.454 121.51 50.126 121.51 51.0079V52.4285C121.51 53.3129 121.297 53.9824 120.87 54.4394C120.443 54.8965 119.805 55.1262 118.951 55.1262H116.424V44.2092H118.141V48.3102H118.951ZM118 42.0747H116.286V31.1577H118V42.0747ZM124.207 68.1778H122.663V60.4872L121.962 63.1701L120.527 68.1778H118.766V57.2607H120.295V64.1706L120.919 61.7693L122.322 57.2607H124.209V68.1778H124.207ZM124.207 55.1262H122.493V44.2092H124.207V55.1262ZM124.207 32.7165H121.243V35.7577H123.597V37.3166H121.243V40.5134H124.207V42.0722H119.529V31.1552H124.207V32.7141V32.7165ZM139.227 36.363C139.227 36.4741 139.165 36.5754 139.066 36.6248L139.046 36.6347L139.029 36.6446L126.506 43.7596V29.7124C126.506 29.1096 126.017 28.618 125.41 28.618H40.7255C40.2982 28.618 39.9129 28.8651 39.7326 29.2505L5.80061 102.033L42.3779 0.985725C42.4224 0.874554 42.5286 0.80044 42.6496 0.80044H138.938C139.098 0.80044 139.229 0.931376 139.229 1.09443V36.363H139.227Z" fill="#001229"/>
<path d="M93.3055 45.6465C92.7127 45.6465 92.4163 46.0047 92.4163 46.7236V52.6206C92.4163 53.3371 92.7127 53.6978 93.3055 53.6978C93.8982 53.6978 94.1946 53.3395 94.1946 52.6206V46.7236C94.1946 46.0072 93.8982 45.6465 93.3055 45.6465Z" fill="#001229"/>
<path d="M87.5628 49.2317C87.7036 49.076 87.7728 48.8117 87.7728 48.4362V46.7983C87.7728 46.4252 87.7036 46.1584 87.5628 46.0028C87.422 45.8471 87.2121 45.7681 86.9305 45.7681H86.1204V49.4639H86.9305C87.2121 49.4639 87.422 49.3848 87.5628 49.2292V49.2317Z" fill="#001229"/>
</svg>
