<svg width="95" height="117" viewBox="0 0 95 117" fill="none" xmlns="http://www.w3.org/2000/svg">
<path d="M10.6351 78.3655C10.6351 77.2684 10.5232 76.3728 10.2769 75.6563C10.053 74.9399 9.73955 74.4025 9.33653 73.9771C8.95591 73.5741 8.48572 73.283 7.97076 73.1263C7.45579 72.9696 6.91844 72.88 6.33631 72.88H5.21682V72.6561H6.38109C6.94083 72.6561 7.4334 72.5666 7.81403 72.4098C8.19466 72.2531 8.5305 72.0292 8.7544 71.7381C9.00069 71.4471 9.15742 71.1112 9.26937 70.7306C9.38132 70.35 9.42609 69.9246 9.42609 69.4768C9.42609 68.5364 9.17981 67.7751 8.68723 67.2154C8.19466 66.6557 7.54535 66.387 6.71693 66.387C5.88851 66.387 5.19443 66.5437 4.61229 66.8796C4.03016 67.193 3.51519 67.708 3.04501 68.3797L2.93306 69.7902H2.70916L2.93306 66.4765H3.15696L3.08979 67.6632C3.42564 67.3497 3.76148 67.1035 4.09733 66.9019C4.43318 66.7004 4.76902 66.5661 5.08248 66.4542C5.39593 66.3422 5.70939 66.275 6.00046 66.2303C6.29153 66.1855 6.53781 66.1631 6.73932 66.1631C7.56774 66.1631 8.23944 66.275 8.79918 66.4765C9.35893 66.678 9.78433 66.9467 10.1202 67.2602C10.456 67.5736 10.6799 67.9319 10.8143 68.3349C10.9486 68.7155 11.0158 69.1185 11.0158 69.4992C11.0158 69.8574 10.9486 70.238 10.8366 70.5963C10.7247 70.9545 10.5232 71.2903 10.2769 71.6038C10.0082 71.9173 9.69477 72.1635 9.29176 72.3874C8.88874 72.6113 8.41855 72.7457 7.85881 72.8128C8.37377 72.88 8.91113 73.0367 9.44848 73.283C9.98584 73.5293 10.4784 73.8652 10.9038 74.2906C11.3292 74.716 11.6875 75.2757 11.9785 75.925C12.2472 76.5743 12.4039 77.358 12.4039 78.2536C12.4039 79.2163 12.2696 80.1343 11.9785 80.9851C11.6875 81.8359 11.2397 82.5748 10.6575 83.2017C10.0754 83.8286 9.33653 84.3212 8.44094 84.7018C7.54535 85.0601 6.49303 85.2616 5.2616 85.2616C4.43318 85.2616 3.69431 85.1496 3.04501 84.9033C2.39571 84.657 1.83596 84.3212 1.38817 83.9182C0.94037 83.5152 0.582134 83.045 0.358236 82.5076C0.134338 81.9703 0 81.4329 0 80.8732V80.8284C0 80.2462 0.179119 79.6865 0.514965 79.1491C0.850812 78.6342 1.38817 78.1192 2.14942 77.649L2.26137 77.8282C1.92552 78.0073 1.65684 78.2312 1.43295 78.4775C1.20905 78.7237 1.02993 78.97 0.895591 79.2387C0.761252 79.5074 0.671692 79.7537 0.604523 80.0224C0.537354 80.291 0.492574 80.5597 0.492574 80.806V80.9179C0.514964 81.4777 0.626914 82.015 0.850812 82.5076C1.07471 83.0002 1.38817 83.448 1.79118 83.8062C2.1942 84.1869 2.70916 84.4779 3.2913 84.6794C3.87343 84.8809 4.54512 84.9929 5.28399 84.9929C6.29153 84.9929 7.14234 84.7914 7.83642 84.4107C8.5305 84.0301 9.06786 83.5152 9.49326 82.9106C9.91867 82.2837 10.2097 81.5896 10.3889 80.806C10.5456 79.9776 10.6351 79.1715 10.6351 78.3655Z" fill="#001229"/>
<path d="M27.6513 73.2341C27.6513 73.7043 27.6066 74.1969 27.517 74.7343C27.4274 75.2716 27.2707 75.809 27.0468 76.3239C26.8229 76.8613 26.5318 77.3539 26.196 77.8464C25.8378 78.339 25.4124 78.7644 24.8974 79.1226C24.3824 79.5033 23.7779 79.7943 23.0838 80.0182C22.3897 80.2421 21.6061 80.3541 20.7105 80.3541C19.8373 80.3541 19.0313 80.2421 18.3596 80.0182C17.6655 79.7943 17.0834 79.5033 16.5684 79.1226C16.0534 78.742 15.628 78.3166 15.2698 77.8464C14.9116 77.3539 14.6205 76.8613 14.419 76.3239C14.1951 75.7866 14.0384 75.2716 13.9488 74.7343C13.8592 74.1969 13.8145 73.7043 13.8145 73.2341C13.8145 72.4729 13.9264 71.6892 14.1727 70.8384C14.419 69.9876 14.822 69.2488 15.3593 68.5323C15.8967 67.8158 16.6132 67.2561 17.5088 66.7859C18.382 66.3157 19.4567 66.0918 20.7329 66.0918C22.0091 66.0918 23.1062 66.3157 24.0018 66.7411C24.8974 67.1665 25.6139 67.7486 26.1512 68.4203C26.711 69.1144 27.0916 69.8757 27.3379 70.7265C27.5394 71.5997 27.6513 72.4281 27.6513 73.2341ZM25.9273 73.2341C25.9273 72.249 25.8154 71.331 25.5915 70.5026C25.3676 69.6742 25.0317 68.9353 24.5839 68.3084C24.1361 67.6815 23.5988 67.2113 22.9271 66.8531C22.2778 66.5172 21.5165 66.3381 20.6657 66.3381C19.8149 66.3381 19.0761 66.4948 18.4267 66.8307C17.7774 67.1665 17.2401 67.6143 16.7923 68.2188C16.3669 68.8233 16.031 69.5398 15.8071 70.3906C15.5832 71.2414 15.4713 72.1818 15.4713 73.2117C15.4713 74.0849 15.5832 74.9581 15.7848 75.7866C16.0087 76.615 16.3221 77.3539 16.7699 77.9808C17.1953 78.6301 17.7551 79.145 18.4044 79.5257C19.0537 79.9063 19.8149 80.1078 20.6881 80.1078C21.5613 80.1078 22.345 79.9063 22.9943 79.5257C23.6436 79.145 24.2033 78.6077 24.6287 77.9808C25.0541 77.3315 25.39 76.5926 25.6139 75.7866C25.8378 74.9805 25.9273 74.1297 25.9273 73.2341Z" fill="#001229"/>
<path d="M34.6822 80.1109V79.887H36.5853V66.6546H32.3536L32.3312 67.3263C32.3088 68.3115 32.2864 69.2966 32.2417 70.2594C32.2193 71.2221 32.1521 72.2073 32.0625 73.1924C32.0178 73.7074 31.973 74.2224 31.9058 74.7597C31.8387 75.2971 31.7491 75.8344 31.6371 76.3718C31.5252 76.9092 31.3909 77.4017 31.2565 77.8943C31.0998 78.3645 30.9207 78.8123 30.6968 79.1705C30.4729 79.5511 30.1818 79.8422 29.846 80.0213C29.4877 80.2228 29.1295 80.3124 28.7265 80.3124C28.5921 80.3124 28.4578 80.29 28.3011 80.2452C28.1443 80.2004 27.9876 80.1333 27.8309 80.0213C27.6965 79.9094 27.5622 79.775 27.4726 79.5959C27.3607 79.4168 27.3159 79.1929 27.3159 78.9018C27.3159 78.7899 27.3159 78.7003 27.3383 78.6108C27.3607 78.5212 27.3607 78.4316 27.4055 78.3645C27.4279 78.2749 27.4726 78.1854 27.495 78.1182H27.7861C27.7413 78.1854 27.6965 78.2973 27.6742 78.4317C27.6294 78.566 27.607 78.7227 27.607 78.9018C27.607 79.1257 27.6518 79.3049 27.7189 79.4616C27.7861 79.6183 27.8981 79.7303 28.01 79.8198C28.122 79.9094 28.2563 79.9765 28.3682 80.0213C28.5026 80.0661 28.6369 80.0885 28.7489 80.0885C29.5101 80.0885 30.1146 79.7303 30.54 79.0138C30.7416 78.6779 30.9207 78.2973 31.055 77.8495C31.1893 77.4017 31.3237 76.9091 31.4132 76.3942C31.5252 75.8792 31.5924 75.3643 31.6595 74.8045C31.7267 74.2448 31.7715 73.7074 31.8387 73.1924C31.9282 72.1849 31.9954 71.155 32.0178 70.125C32.0402 69.0727 32.0849 67.9308 32.1073 66.677H29.8684V66.4531H40.0557V66.677H38.175V79.9094H40.0557V80.1333H34.6822V80.1109Z" fill="#001229"/>
<path d="M53.7352 73.2383C53.7352 72.2531 53.6232 71.3351 53.3993 70.5067C53.1754 69.6783 52.862 68.9394 52.4366 68.3125C52.0336 67.6856 51.541 67.2154 50.9589 66.8572C50.3767 66.5213 49.7498 66.3422 49.0557 66.3422C48.6527 66.3422 48.2497 66.4094 47.8467 66.5213C47.4437 66.6557 47.0854 66.8348 46.772 67.1035C46.4585 67.3721 46.1898 67.708 45.9883 68.111C45.7868 68.514 45.6749 69.0066 45.6749 69.5887C45.6749 69.8798 45.7196 70.1709 45.7868 70.4619C45.854 70.753 45.9435 71.0217 46.0779 71.2903C46.1898 71.559 46.3466 71.7829 46.5033 72.0068C46.6824 72.2307 46.8615 72.4098 47.063 72.5666L46.9735 72.7457C46.8167 72.6561 46.66 72.5218 46.4585 72.365C46.2794 72.2083 46.1003 72.0068 45.9435 71.7605C45.7868 71.5142 45.6525 71.2232 45.5405 70.8873C45.4286 70.5515 45.3838 70.1709 45.3838 69.7454C45.3838 69.2753 45.4734 68.8051 45.6301 68.3797C45.7868 67.9543 46.0107 67.5736 46.3242 67.2378C46.6376 66.9019 47.0183 66.6557 47.4884 66.4542C47.9586 66.2526 48.496 66.1631 49.1005 66.1631C50.2424 66.1631 51.2051 66.387 52.0112 66.8124C52.8172 67.2378 53.4665 67.8199 53.9815 68.4916C54.4964 69.1857 54.8547 69.947 55.101 70.7978C55.3249 71.6486 55.4592 72.477 55.4592 73.283C55.4592 73.7532 55.4144 74.2458 55.3249 74.7831C55.2353 75.3205 55.0786 75.8579 54.8547 76.3728C54.6308 76.9102 54.3397 77.4028 54.0039 77.8953C53.6456 78.3879 53.2202 78.8133 52.7053 79.1715C52.1903 79.5522 51.5858 79.8432 50.8917 80.0671C50.1976 80.291 49.414 80.403 48.5184 80.403C47.6452 80.403 46.8391 80.291 46.1674 80.0671C45.4734 79.8432 44.8912 79.5522 44.3763 79.1715C43.8613 78.7909 43.4359 78.3655 43.0776 77.8953C42.7194 77.4028 42.4283 76.9102 42.2268 76.3728C42.0029 75.8355 41.8462 75.3205 41.7567 74.7831C41.6671 74.2458 41.6223 73.7532 41.6223 73.283C41.6223 72.7009 41.6895 72.0964 41.8014 71.5142C41.9358 70.9321 42.1373 70.3724 42.406 69.8126C42.697 69.2753 43.0777 68.7603 43.5478 68.2901C44.018 67.8199 44.6002 67.4169 45.2942 67.0587L45.3614 67.2602C44.936 67.5513 44.6002 67.8871 44.3315 68.2901C44.0628 68.6707 43.8613 69.1185 43.7046 69.6335C43.5478 70.1261 43.4583 70.6858 43.3911 71.2903C43.3239 71.8949 43.3015 72.5666 43.3015 73.283C43.3015 74.1562 43.4135 75.0294 43.615 75.8579C43.8389 76.6863 44.1524 77.4251 44.6002 78.0521C45.0256 78.7014 45.5853 79.2163 46.2346 79.5969C46.8839 79.9776 47.6452 80.1791 48.5184 80.1791C49.3916 80.1791 50.1752 79.9776 50.8245 79.5969C51.4738 79.2163 52.0336 78.679 52.459 78.0521C52.8844 77.4028 53.2202 76.6639 53.4441 75.8579C53.6456 74.9847 53.7352 74.1338 53.7352 73.2383Z" fill="#001229"/>
<path d="M68.2886 66.4321L68.4901 69.4771H68.2662L68.02 67.059C67.7065 66.9471 67.2363 66.8575 66.6094 66.7904C65.9825 66.7008 65.2212 66.6784 64.3256 66.6784H63.2733V79.9108H65.1541V80.1347H59.8253V79.9108H61.7284V66.6784H60.6537C59.7357 66.6784 58.9745 66.7232 58.3252 66.7904C57.6759 66.8799 57.2281 66.9695 56.9818 67.059L56.7803 69.4771H56.5564L56.7355 66.4321H68.2886Z" fill="#001229"/>
<path d="M83.4694 73.2341C83.4694 73.7043 83.4247 74.1969 83.3351 74.7343C83.2456 75.2716 83.0888 75.809 82.8649 76.3239C82.641 76.8613 82.35 77.3539 82.0141 77.8464C81.6559 78.339 81.2305 78.7644 80.7155 79.1226C80.2005 79.5033 79.596 79.7943 78.9019 80.0182C78.2078 80.2421 77.4242 80.3541 76.5286 80.3541C75.6554 80.3541 74.8494 80.2421 74.1777 80.0182C73.4836 79.7943 72.9015 79.5033 72.3865 79.1226C71.8715 78.742 71.4461 78.3166 71.0879 77.8464C70.7297 77.3539 70.4386 76.8613 70.2371 76.3239C70.0132 75.7866 69.8565 75.2716 69.7669 74.7343C69.6773 74.1969 69.6326 73.7043 69.6326 73.2341C69.6326 72.4729 69.7445 71.6892 69.9908 70.8384C70.2371 70.01 70.6401 69.2488 71.1775 68.5323C71.7372 67.8382 72.4313 67.2561 73.3269 66.7859C74.2001 66.3157 75.2748 66.0918 76.551 66.0918C77.8272 66.0918 78.9243 66.3157 79.8199 66.7411C80.7155 67.1665 81.432 67.7486 81.9693 68.4203C82.5291 69.1144 82.9097 69.8757 83.156 70.7265C83.3351 71.5997 83.4694 72.4281 83.4694 73.2341ZM81.7454 73.2341C81.7454 72.249 81.6335 71.331 81.4096 70.5026C81.1857 69.6742 80.8498 68.9353 80.4021 68.3084C79.9543 67.6815 79.4169 67.2113 78.7452 66.8531C78.0959 66.5172 77.3347 66.3381 76.4838 66.3381C75.633 66.3381 74.8942 66.4948 74.2449 66.8307C73.5956 67.1665 73.0582 67.6143 72.6104 68.2188C72.185 68.8233 71.8492 69.5398 71.6253 70.3906C71.4014 71.2414 71.2894 72.1818 71.2894 73.2117C71.2894 74.0849 71.4014 74.9581 71.6029 75.7866C71.8268 76.615 72.1402 77.3539 72.588 77.9808C73.0134 78.6301 73.5732 79.145 74.2225 79.5257C74.8718 79.9063 75.633 80.1078 76.5062 80.1078C77.3794 80.1078 78.1631 79.9063 78.8124 79.5257C79.4617 79.145 80.0214 78.6077 80.4468 77.9808C80.8722 77.3315 81.2081 76.5926 81.432 75.7866C81.6335 74.9805 81.7454 74.1297 81.7454 73.2341Z" fill="#001229"/>
<path d="M94.2164 66.4291L94.3955 69.295H94.1716L93.9253 67.1008L93.7909 67.0336C93.679 66.9889 93.567 66.9441 93.4327 66.8993C93.3208 66.8545 93.1416 66.8098 92.9401 66.7874C92.7162 66.7426 92.4476 66.7202 92.0893 66.6978C91.7311 66.6754 91.2833 66.6754 90.7236 66.6754H88.4622V72.855H92.0669V71.1758H92.2684V74.691H92.0669V73.0341H88.4622V79.863H90.6116C90.9698 79.863 91.3057 79.863 91.6191 79.863C91.9326 79.863 92.2461 79.8406 92.5371 79.8182C92.8282 79.7958 93.1193 79.751 93.3879 79.6839C93.679 79.6167 93.9701 79.5495 94.2835 79.4376L94.7761 77.1762H95L94.4626 80.0869H85.0142V79.863H86.8949V66.6306H85.0142V66.4067L94.2164 66.4291Z" fill="#001229"/>
<path d="M16.2775 85.596L11.8891 91.5069C12.5608 91.5741 13.1653 91.7308 13.7027 91.9995C14.2177 92.2682 14.7326 92.6264 15.2028 93.1414C15.673 93.634 16.1656 94.2609 16.6358 95.0221C17.1283 95.7834 17.6657 96.679 18.2478 97.7537C18.7852 98.6941 19.3225 99.5897 19.8599 100.485C20.3972 101.358 20.957 102.164 21.5391 102.836C22.1213 103.53 22.7258 104.068 23.3303 104.493C23.9572 104.918 24.5841 105.12 25.2558 105.12C25.5245 105.12 25.7932 105.075 26.0619 104.963C26.3081 104.851 26.532 104.717 26.7335 104.538C26.9127 104.359 27.0694 104.157 27.1813 103.888C27.2933 103.642 27.3605 103.351 27.3605 103.06C27.3605 102.903 27.3381 102.747 27.3157 102.59C27.2933 102.433 27.2261 102.254 27.1366 102.097H27.3829C27.4276 102.209 27.4724 102.321 27.5172 102.478C27.562 102.635 27.5844 102.814 27.5844 102.993C27.5844 103.306 27.5396 103.597 27.45 103.866C27.3605 104.157 27.2037 104.403 26.9798 104.605C26.7559 104.829 26.4873 104.986 26.129 105.12C25.7708 105.254 25.3454 105.321 24.8528 105.321C24.1139 105.321 23.3975 105.187 22.7482 104.896C22.0765 104.605 21.4496 104.224 20.8674 103.732C20.2853 103.262 19.7256 102.702 19.1882 102.075C18.6732 101.448 18.1807 100.799 17.7329 100.127C17.2851 99.4553 16.8597 98.7836 16.479 98.1119C16.0984 97.4402 15.7402 96.8133 15.4267 96.2088C15.0909 95.6043 14.7774 95.0221 14.464 94.4848C14.1505 93.9474 13.837 93.4549 13.4788 93.0518C13.143 92.6264 12.7847 92.313 12.4041 92.0667C12.0235 91.8204 11.5981 91.7084 11.1279 91.7084H9.87405V98.8508H11.7548V99.0747H6.42603V98.8508H8.30677V85.6184H6.42603V85.3945H11.7548V85.6184H9.87405V91.4846H11.2622C11.3294 91.4846 11.3742 91.4846 11.4413 91.4846C11.5085 91.4846 11.5533 91.4845 11.6205 91.5069L15.9865 85.6184H14.0833V85.3945H18.315V85.6184L16.2775 85.596Z" fill="#001229"/>
<path d="M33.1816 92.1794C33.1816 92.6496 33.1368 93.1422 33.0473 93.6796C32.9577 94.2169 32.801 94.7543 32.5771 95.2692C32.3532 95.8066 32.0621 96.2992 31.7263 96.7917C31.368 97.2843 30.9426 97.7097 30.4277 98.0679C29.9127 98.4486 29.3082 98.7396 28.6141 98.9635C27.92 99.1874 27.1364 99.2994 26.2408 99.2994C25.3676 99.2994 24.5615 99.1874 23.8899 98.9635C23.1958 98.7396 22.6136 98.4486 22.0987 98.0679C21.5837 97.6873 21.1583 97.2619 20.8001 96.7917C20.4418 96.2992 20.1508 95.8066 19.9493 95.2692C19.7254 94.7319 19.5686 94.2169 19.4791 93.6796C19.3895 93.1422 19.3447 92.6496 19.3447 92.1794C19.3447 91.4182 19.4567 90.6345 19.703 89.7837C19.9493 88.9329 20.3523 88.1941 20.8896 87.4776C21.4494 86.7835 22.1434 86.2014 23.039 85.7312C23.9122 85.261 24.987 85.0371 26.2632 85.0371C27.5394 85.0371 28.6365 85.261 29.5321 85.6864C30.4277 86.1118 31.1441 86.6939 31.6815 87.3656C32.2412 88.0597 32.6219 88.821 32.8682 89.6718C33.0697 90.545 33.1816 91.3734 33.1816 92.1794ZM31.4576 92.1794C31.4576 91.1943 31.3456 90.2763 31.1217 89.4479C30.8979 88.6195 30.562 87.8806 30.1142 87.2537C29.6664 86.6268 29.1291 86.1566 28.4574 85.7984C27.8081 85.4625 27.0468 85.2834 26.196 85.2834C25.3452 85.2834 24.6063 85.4401 23.957 85.776C23.3077 86.1118 22.7704 86.5596 22.3226 87.1641C21.8972 87.7687 21.5613 88.4851 21.3374 89.3359C21.1135 90.1867 21.0016 91.1271 21.0016 92.1571C21.0016 93.0303 21.1135 93.9035 21.315 94.7319C21.5389 95.5603 21.8524 96.2992 22.3002 96.9261C22.7256 97.5754 23.2853 98.0903 23.9346 98.471C24.5839 98.8516 25.3452 99.0531 26.2184 99.0531C27.0916 99.0531 27.8752 98.8516 28.5245 98.471C29.1738 98.0903 29.7336 97.553 30.159 96.9261C30.5844 96.2992 30.9202 95.5379 31.1441 94.7319C31.368 93.9035 31.4576 93.0526 31.4576 92.1794Z" fill="#001229"/>
<path d="M41.1521 99.0523V98.8284H43.0553V85.596H38.8236L38.8012 86.2677C38.7788 87.2529 38.7564 88.238 38.7116 89.2008C38.6892 90.1636 38.6221 91.1487 38.5325 92.1338C38.4877 92.6488 38.443 93.1638 38.3758 93.7011C38.3086 94.2385 38.2191 94.7758 38.1071 95.3132C37.9952 95.8506 37.8608 96.3431 37.7265 96.8357C37.5698 97.3059 37.3906 97.7537 37.1667 98.1119C36.9428 98.4925 36.6518 98.7836 36.3159 98.9627C35.9577 99.1642 35.5995 99.2538 35.1964 99.2538C35.0621 99.2538 34.9278 99.2314 34.771 99.1866C34.6143 99.1418 34.4576 99.0747 34.3009 98.9627C34.1665 98.8508 34.0322 98.7164 33.9426 98.5373C33.8307 98.3582 33.7859 98.1343 33.7859 97.8432C33.7859 97.7313 33.7859 97.6417 33.8083 97.5522C33.8307 97.4626 33.8307 97.3731 33.8754 97.3059C33.8978 97.2163 33.9426 97.1268 33.965 97.0596H34.2561C34.2113 97.1268 34.1665 97.2387 34.1441 97.3731C34.0993 97.5074 34.077 97.6641 34.077 97.8432C34.077 98.0671 34.1217 98.2463 34.1889 98.403C34.2561 98.5597 34.368 98.6717 34.48 98.7612C34.5919 98.8508 34.7263 98.9179 34.8382 98.9627C34.9502 99.0075 35.1069 99.0299 35.2188 99.0299C35.9801 99.0299 36.5846 98.6717 37.01 97.9552C37.2115 97.6193 37.3906 97.2387 37.525 96.7909C37.6593 96.3431 37.7937 95.8506 37.8832 95.3356C37.9952 94.8206 38.0623 94.3057 38.1295 93.7459C38.1967 93.1862 38.2415 92.6488 38.3086 92.1338C38.3982 91.1263 38.4654 90.0964 38.4877 89.0665C38.5101 88.0365 38.5549 86.8723 38.5773 85.6184H36.3383V85.3945H46.5257V85.6184H44.6449V98.8508H46.5257V99.0747L41.1521 99.0523Z" fill="#001229"/>
<path d="M51.6752 90.9906C52.0335 90.8786 52.4589 90.7891 52.9067 90.7443C53.3769 90.6771 53.7575 90.6547 54.0933 90.6547C54.9889 90.6547 55.7502 90.7667 56.3771 90.9906C57.004 91.2145 57.519 91.5279 57.8996 91.9086C58.2802 92.2892 58.5713 92.7146 58.7504 93.2072C58.9295 93.6998 59.0191 94.1923 59.0191 94.7073C59.0191 95.1999 58.9295 95.7148 58.7728 96.2298C58.6161 96.7448 58.325 97.2373 57.922 97.6627C57.519 98.0881 56.9816 98.4464 56.2875 98.7151C55.6158 98.9837 54.7427 99.1405 53.6679 99.1405C53.444 99.1405 53.1978 99.1405 52.9515 99.1405C52.7052 99.1405 52.4589 99.1181 52.235 99.1181C52.0559 99.0957 51.8992 99.0957 51.7424 99.0957C51.5857 99.0957 51.4514 99.0957 51.3618 99.0957H48.2048V98.8718H50.0856V85.6394H48.2048V85.4155H53.5336V85.6394H51.6529V90.9906H51.6752ZM57.2951 94.7745C57.2951 94.1252 57.2055 93.543 57.0264 93.0728C56.8473 92.6026 56.601 92.1996 56.2652 91.8862C55.9517 91.5727 55.5711 91.3264 55.1233 91.1697C54.6979 91.013 54.2053 90.9234 53.6903 90.9234C53.3545 90.9234 53.0186 90.9458 52.6828 90.9906C52.3469 91.0354 52.0111 91.1025 51.6529 91.1921V98.8046L51.832 98.827C52.0783 98.8494 52.3469 98.8718 52.638 98.8942C52.9291 98.9166 53.2425 98.9166 53.6008 98.9166C54.1381 98.9166 54.6307 98.827 55.1009 98.6255C55.5487 98.4464 55.9517 98.1553 56.2652 97.8195C56.5786 97.4612 56.8249 97.0358 57.004 96.5209C57.2055 95.9835 57.2951 95.4014 57.2951 94.7745Z" fill="#001229"/>
<path d="M60.7212 99.0532V98.8293H62.6019V85.5969H60.7212V85.373H66.05V85.5969H64.1692V98.8293H70.8638V85.5969H68.983V85.373H74.3118V85.5969H72.4086V98.8293C72.946 98.8517 73.349 98.9188 73.6625 99.0756C73.9759 99.2099 74.1998 99.389 74.3342 99.5906C74.4909 99.7921 74.5805 99.9936 74.6252 100.195C74.67 100.397 74.6924 100.576 74.6924 100.688C74.6924 101.225 74.6028 101.65 74.4461 102.009C74.267 102.367 74.0655 102.636 73.7968 102.859C73.5281 103.061 73.2371 103.218 72.8788 103.285C72.543 103.374 72.2071 103.397 71.8489 103.397C71.1324 103.397 70.4831 103.285 69.8786 103.039C69.2965 102.792 68.7143 102.546 68.1546 102.277C67.7068 102.031 67.2814 101.83 66.856 101.65C66.4306 101.471 66.0052 101.382 65.6022 101.382C65.1544 101.382 64.7961 101.538 64.5051 101.83C64.214 102.121 64.0125 102.501 63.9005 102.927L63.6766 102.77C63.9229 102.053 64.3036 101.471 64.7961 101.001C65.2887 100.531 65.9156 100.285 66.6545 100.285C67.2142 100.285 67.7516 100.397 68.2665 100.598C68.7815 100.822 69.2741 101.046 69.7667 101.292C70.2145 101.538 70.6846 101.74 71.1324 101.941C71.5802 102.143 72.0504 102.233 72.543 102.233C73.1475 102.233 73.6177 102.076 73.9759 101.785C74.3118 101.494 74.4909 101.113 74.4909 100.643C74.4909 100.128 74.2894 99.7249 73.9088 99.4338C73.5281 99.1428 72.9908 99.0084 72.3639 99.0084H60.7212V99.0532Z" fill="#001229"/>
<path d="M90.2536 92.1794C90.2536 92.6496 90.2088 93.1422 90.1193 93.6796C90.0297 94.2169 89.873 94.7543 89.6491 95.2692C89.4252 95.8066 89.1341 96.2992 88.7983 96.7917C88.4401 97.2843 88.0146 97.7097 87.4997 98.0679C86.9847 98.4486 86.3802 98.7396 85.6861 98.9635C84.992 99.1874 84.2084 99.2994 83.3128 99.2994C82.4396 99.2994 81.6336 99.1874 80.9619 98.9635C80.2678 98.7396 79.6857 98.4486 79.1707 98.0679C78.6557 97.6873 78.2303 97.2619 77.8721 96.7917C77.5138 96.2992 77.2228 95.8066 77.0213 95.2692C76.7974 94.7319 76.6406 94.2169 76.5511 93.6796C76.4615 93.1422 76.4167 92.6496 76.4167 92.1794C76.4167 91.4182 76.5287 90.6345 76.775 89.7837C77.0213 88.9553 77.4243 88.1941 77.9616 87.4776C78.5214 86.7835 79.2155 86.2014 80.1111 85.7312C80.9843 85.261 82.059 85.0371 83.3352 85.0371C84.6114 85.0371 85.7085 85.261 86.6041 85.6864C87.4997 86.1118 88.2162 86.6939 88.7535 87.3656C89.3133 88.0597 89.6939 88.821 89.9402 89.6718C90.1417 90.545 90.2536 91.3734 90.2536 92.1794ZM88.5296 92.1794C88.5296 91.1943 88.4177 90.2763 88.1938 89.4479C87.9699 88.6195 87.634 87.8806 87.1862 87.2537C86.7384 86.6268 86.2011 86.1566 85.5294 85.7984C84.8801 85.4625 84.1188 85.2834 83.268 85.2834C82.4172 85.2834 81.6783 85.4401 81.029 85.776C80.3797 86.1118 79.8424 86.5596 79.3946 87.1641C78.9692 87.7687 78.6333 88.4851 78.4094 89.3359C78.1855 90.1867 78.0736 91.1271 78.0736 92.1571C78.0736 93.0303 78.1855 93.9035 78.3871 94.7319C78.6109 95.5603 78.9244 96.2992 79.3722 96.9261C79.7976 97.5754 80.3573 98.0903 81.0067 98.471C81.656 98.8516 82.4172 99.0531 83.2904 99.0531C84.1636 99.0531 84.9473 98.8516 85.5966 98.471C86.2459 98.0903 86.8056 97.553 87.231 96.9261C87.6564 96.2992 87.9923 95.5379 88.2162 94.7319C88.4177 93.9035 88.5296 93.0526 88.5296 92.1794Z" fill="#001229"/>
<path d="M47.4884 0C32.3306 0 20.0386 12.292 20.0386 27.4499C20.0386 42.6077 32.3306 54.8997 47.4884 54.8997C62.6463 54.8997 74.9383 42.6077 74.9383 27.4499C74.9383 12.292 62.6463 0 47.4884 0ZM53.6232 30.4277C47.3541 30.4277 42.2716 25.3452 42.2716 19.0761C42.2716 12.8069 47.3541 7.72447 53.6232 7.72447C59.8924 7.72447 64.9748 12.8069 64.9748 19.0761C64.9748 25.3452 59.8924 30.4277 53.6232 30.4277Z" fill="#001229"/>
<path d="M25.2812 116.138C24.887 115.892 24.542 115.596 24.3449 115.202C24.0986 114.808 24 114.364 24 113.871C24 113.379 24.0986 112.935 24.3449 112.541C24.5913 112.147 24.887 111.851 25.2812 111.605C25.6754 111.358 26.1682 111.26 26.661 111.26C27.1537 111.26 27.5972 111.358 28.0407 111.605C28.435 111.851 28.7799 112.147 28.977 112.541C29.2234 112.935 29.3219 113.379 29.3219 113.871C29.3219 114.364 29.2234 114.808 28.977 115.202C28.7306 115.596 28.435 115.892 28.0407 116.138C27.6465 116.385 27.203 116.483 26.661 116.483C26.1682 116.483 25.7247 116.385 25.2812 116.138ZM27.7451 115.744C28.09 115.547 28.3364 115.3 28.4842 115.005C28.6813 114.66 28.7799 114.315 28.7799 113.921C28.7799 113.527 28.6813 113.182 28.4842 112.837C28.2871 112.492 28.0407 112.245 27.7451 112.097C27.4001 111.9 27.0552 111.802 26.661 111.802C26.2668 111.802 25.8725 111.9 25.5769 112.097C25.2319 112.295 24.9855 112.541 24.7884 112.837C24.5913 113.182 24.4928 113.527 24.4928 113.921C24.4928 114.315 24.5913 114.66 24.7884 115.005C24.9855 115.35 25.2319 115.596 25.5769 115.744C25.9218 115.941 26.2668 116.04 26.661 116.04C27.0552 115.99 27.4494 115.892 27.7451 115.744Z" fill="#001229"/>
<path d="M31.9348 116.138C31.5406 115.892 31.1956 115.596 30.9985 115.202C30.7521 114.808 30.6536 114.364 30.6536 113.871C30.6536 113.379 30.7521 112.935 30.9985 112.541C31.2449 112.147 31.5406 111.851 31.9348 111.605C32.329 111.358 32.7725 111.26 33.3145 111.26C33.7088 111.26 34.0537 111.309 34.3494 111.457C34.645 111.605 34.9407 111.753 35.1871 111.999L34.8421 112.344C34.4479 111.95 33.9551 111.753 33.3145 111.753C32.9203 111.753 32.5261 111.851 32.2304 112.048C31.8855 112.245 31.6391 112.492 31.442 112.787C31.2449 113.083 31.1463 113.477 31.1463 113.871C31.1463 114.266 31.2449 114.611 31.442 114.956C31.6391 115.251 31.8855 115.547 32.2304 115.695C32.5754 115.892 32.9203 115.99 33.3145 115.99C33.9059 115.99 34.4479 115.793 34.8421 115.399L35.1871 115.744C34.9407 115.99 34.6943 116.187 34.3494 116.286C34.0044 116.434 33.6595 116.483 33.3145 116.483C32.7725 116.483 32.329 116.385 31.9348 116.138Z" fill="#001229"/>
<path d="M40.9514 111.358V116.433H40.4094V114.068H37.2063V116.433H36.6643V111.358H37.2063V113.625H40.4094V111.358H40.9514Z" fill="#001229"/>
<path d="M42.7265 116.387C42.6279 116.288 42.6279 116.239 42.6279 116.091C42.6279 115.992 42.6772 115.894 42.7265 115.795C42.825 115.697 42.8743 115.697 43.0222 115.697C43.1207 115.697 43.2193 115.746 43.3178 115.795C43.4164 115.894 43.4164 115.943 43.4164 116.091C43.4164 116.19 43.3671 116.288 43.3178 116.387C43.2193 116.485 43.17 116.485 43.0222 116.485C42.9236 116.485 42.825 116.436 42.7265 116.387Z" fill="#001229"/>
<path d="M51.2513 114.267C51.4484 114.464 51.547 114.76 51.547 115.104C51.547 115.548 51.3992 115.893 51.0542 116.139C50.7586 116.386 50.2658 116.484 49.6745 116.484H47.4077V111.409H49.5266C50.0687 111.409 50.5122 111.507 50.8078 111.754C51.1035 112 51.2513 112.296 51.2513 112.739C51.2513 113.035 51.2021 113.281 51.0542 113.478C50.9064 113.675 50.7093 113.823 50.4629 113.922C50.7586 113.873 51.0542 114.02 51.2513 114.267ZM47.9498 113.675H49.5266C49.9209 113.675 50.2165 113.577 50.4136 113.429C50.6107 113.281 50.7093 113.035 50.7093 112.739C50.7093 112.444 50.6107 112.197 50.4136 112.049C50.2165 111.901 49.9209 111.803 49.5266 111.803H47.9498V113.675ZM51.005 115.055C51.005 114.415 50.5615 114.119 49.6745 114.119H47.9498V116.041H49.6745C50.5615 115.991 51.005 115.696 51.005 115.055Z" fill="#001229"/>
<path d="M56.5733 111.358V116.433H56.0313V111.801H54.8486V111.358H56.5733Z" fill="#001229"/>
<path d="M61.3529 111.95C61.6979 112.393 61.895 113.034 61.895 113.822C61.895 114.413 61.7964 114.857 61.5993 115.251C61.4022 115.645 61.1558 115.941 60.7616 116.138C60.4167 116.335 60.0224 116.434 59.5297 116.434C59.0369 116.434 58.6427 116.335 58.347 116.138L58.5441 115.695C58.7905 115.843 59.1355 115.941 59.5297 115.941C60.0717 115.941 60.5152 115.744 60.8602 115.399C61.1558 115.054 61.3529 114.512 61.3529 113.871C61.3529 113.724 61.3529 113.625 61.3529 113.477C61.2051 113.773 61.008 113.97 60.7616 114.118C60.4659 114.266 60.1703 114.364 59.8253 114.364C59.4804 114.364 59.1847 114.315 58.9383 114.167C58.692 114.019 58.4949 113.871 58.347 113.625C58.1992 113.379 58.1499 113.132 58.1499 112.837C58.1499 112.541 58.2485 112.245 58.3963 111.999C58.5441 111.753 58.7412 111.555 59.0369 111.457C59.2833 111.309 59.5789 111.26 59.9239 111.26C60.4659 111.309 61.008 111.506 61.3529 111.95ZM60.5152 113.822C60.7123 113.724 60.8602 113.576 60.9587 113.428C61.0573 113.28 61.1065 113.083 61.1065 112.886C61.1065 112.689 61.0573 112.492 60.9587 112.344C60.8602 112.196 60.7123 112.048 60.5152 111.95C60.3181 111.851 60.0717 111.802 59.7761 111.802C59.4311 111.802 59.0862 111.9 58.8891 112.097C58.6427 112.295 58.5441 112.59 58.5441 112.886C58.5441 113.231 58.6427 113.477 58.8891 113.674C59.1354 113.871 59.4311 113.97 59.8253 113.97C60.121 113.97 60.3181 113.921 60.5152 113.822Z" fill="#001229"/>
<path d="M66.0842 113.575C66.3306 113.723 66.5277 113.871 66.6756 114.117C66.8234 114.364 66.8727 114.61 66.8727 114.906C66.8727 115.202 66.7741 115.497 66.6263 115.744C66.4785 115.99 66.2814 116.187 65.9857 116.286C65.7393 116.433 65.4436 116.483 65.0987 116.483C64.4088 116.483 63.916 116.286 63.5711 115.842C63.2261 115.399 63.0291 114.758 63.0291 113.97C63.0291 113.378 63.1276 112.935 63.3247 112.541C63.5218 112.146 63.7682 111.851 64.1624 111.654C64.5074 111.456 64.9016 111.358 65.3944 111.358C65.8871 111.358 66.2813 111.456 66.577 111.654L66.3799 112.097C66.1335 111.949 65.7886 111.851 65.3944 111.851C64.8523 111.851 64.4088 112.048 64.0639 112.393C63.7682 112.738 63.5711 113.28 63.5711 113.92C63.5711 114.019 63.5711 114.167 63.5711 114.315C63.7189 114.019 63.916 113.822 64.1624 113.674C64.4581 113.526 64.7537 113.428 65.0987 113.428C65.4929 113.378 65.7886 113.477 66.0842 113.575ZM66.035 115.744C66.2813 115.546 66.3799 115.251 66.3799 114.955C66.3799 114.61 66.2813 114.364 66.035 114.167C65.7886 113.97 65.4929 113.871 65.0987 113.871C64.8523 113.871 64.6059 113.92 64.4088 114.019C64.2117 114.117 64.0639 114.265 63.9653 114.413C63.8668 114.561 63.8175 114.758 63.8175 114.955C63.8175 115.152 63.8668 115.349 63.9653 115.497C64.0639 115.645 64.2117 115.793 64.4088 115.891C64.6059 115.99 64.8523 116.039 65.148 116.039C65.4929 116.039 65.7886 115.941 66.035 115.744Z" fill="#001229"/>
<path d="M71.456 111.358V111.752L69.3371 116.483H68.7457L70.8154 111.851H68.2037V112.787H67.7109V111.358H71.456Z" fill="#001229"/>
</svg>
