<svg width="789" height="862" viewBox="0 0 789 862" fill="none" xmlns="http://www.w3.org/2000/svg">
<path d="M284.812 227.532C366.921 250.414 415.18 340.12 392.608 427.893C370.036 515.667 285.179 568.276 203.07 545.394C97.3387 515.929 72.7028 432.806 95.2748 345.033C117.847 257.26 178.483 197.9 284.812 227.532Z" fill="#E01737"/>
<path d="M544.823 167.045C558.155 230.733 515.513 293.917 449.584 308.173C383.655 322.434 319.406 282.364 306.074 218.676C288.91 136.667 335.385 91.8034 401.313 77.5475C467.243 63.2865 527.562 84.572 544.823 167.045Z" fill="#E01737"/>
<path d="M680.581 311.977C654.129 350.999 602.375 360.728 564.981 333.707C527.591 306.687 518.724 253.151 545.172 214.128C579.236 163.875 623.382 165.378 660.772 192.398C698.167 219.419 714.839 261.443 680.581 311.977Z" fill="#E01737"/>
<path d="M690.557 458.501C659.467 466.999 626.96 446.119 617.949 411.86C608.943 377.604 626.838 342.941 657.929 334.442C697.963 323.496 721.525 346.825 730.536 381.083C739.543 415.34 730.817 447.493 690.557 458.501Z" fill="#E01737"/>
<path d="M398.499 732.377C440.613 684.141 433.997 607.229 383.728 560.591C333.461 513.947 258.575 515.243 216.461 563.479C162.234 625.592 180.962 688.627 231.231 735.265C281.499 781.909 343.966 794.842 398.499 732.377Z" fill="#E01737"/>
<path d="M585.886 676.835C581.7 629.274 541.537 593.931 496.176 597.889C450.819 601.849 417.445 643.613 421.627 691.172C427.018 752.42 465.981 774.079 511.337 770.119C556.698 766.16 591.31 738.428 585.886 676.835Z" fill="#E01737"/>
<path d="M665.336 554.928C642.482 531.396 604.302 532.578 580.055 557.568C555.812 582.559 554.678 621.893 577.532 645.424C606.958 675.728 638.565 667.774 662.813 642.784C687.055 617.793 694.928 585.402 665.336 554.928Z" fill="#E01737"/>
<path d="M516.167 231.87C631.447 263.996 700.177 386.158 669.685 504.732C639.192 623.307 521.026 693.384 405.746 661.257C290.466 629.131 221.736 506.969 252.228 388.394C282.721 269.82 400.888 199.743 516.167 231.87Z" fill="#E01737"/>
<path d="M669.107 504.217C699.918 385.357 631.707 263.197 516.745 231.355C401.783 199.513 283.611 270.05 252.801 388.91C221.991 507.769 290.211 629.932 405.173 661.774C520.135 693.616 638.297 623.076 669.107 504.217ZM653.982 500.027C631.111 588.258 543.079 640.812 457.741 617.176C372.399 593.538 321.576 502.524 344.447 414.293C367.318 326.063 455.355 273.51 540.698 297.148C626.035 320.784 676.853 411.797 653.982 500.027Z" fill="#E91C3C"/>
<path d="M676.805 448.944C705.579 456.963 722.731 487.456 715.121 517.048C707.51 546.645 678.018 564.139 649.243 556.12C620.469 548.101 603.317 517.608 610.928 488.011C618.538 458.419 648.03 440.925 676.805 448.944Z" fill="#E91C3C"/>
</svg>
